<svg id="Layer_5" viewBox="0 0 50 50" xmlns="http://www.w3.org/2000/svg" data-name="Layer 5"><path d="m43.78515625 10.29785156h-37.5703125c-2.59960938 0-4.71484375 2.11523438-4.71484375 4.71484375v19.97460938c0 2.59960938 2.11523438 4.71484375 4.71484375 4.71484375h37.5703125c2.59960938 0 4.71484375-2.11523438 4.71484375-4.71484375v-19.97460938c0-2.59960938-2.11523438-4.71484375-4.71484375-4.71484375zm2.71484375 24.68945313c0 1.49707031-1.21777344 2.71484375-2.71484375 2.71484375h-37.5703125c-1.49707031 0-2.71484375-1.21777344-2.71484375-2.71484375v-19.97460938c0-1.49707031 1.21777344-2.71484375 2.71484375-2.71484375h37.5703125c1.49707031 0 2.71484375 1.21777344 2.71484375 2.71484375zm-13.50878906-10.88916016c0-.00018311.00018311-.00030518.00018311-.00048828s-.00018311-.00030518-.00018311-.00048828c0-.09667969.078125-.17480469.17480469-.17480469h2c.09667969 0 .17480469.078125.17480469.17480469 0 .00018311-.00018311.00030518-.00018311.00048828s.00018311.00030518.00018311.00048828c0 .09667969-.078125.17480469-.17480469.17480469h-2c-.09667969 0-.17480469-.078125-.17480469-.17480469zm-5 0c0-.00018311.00018311-.00030518.00018311-.00048828s-.00018311-.00030518-.00018311-.00048828c0-.09667969.078125-.17480469.17480469-.17480469h2c.09667969 0 .17480469.078125.17480469.17480469 0 .00018311-.00018311.00030518-.00018311.00048828s.00018311.00030518.00018311.00048828c0 .09667969-.078125.17480469-.17480469.17480469h-2c-.09667969 0-.17480469-.078125-.17480469-.17480469zm-5 0c0-.00018311.00018311-.00030518.00018311-.00048828s-.00018311-.00030518-.00018311-.00048828c0-.09667969.078125-.17480469.17480469-.17480469h2c.09667969 0 .17480469.078125.17480469.17480469 0 .00018311-.00018311.00030518-.00018311.00048828s.00018311.00030518.00018311.00048828c0 .09667969-.078125.17480469-.17480469.17480469h-2c-.09667969 0-.17480469-.078125-.17480469-.17480469zm15 0c0-.00018311.00018311-.00030518.00018311-.00048828s-.00018311-.00030518-.00018311-.00048828c0-.09667969.078125-.17480469.17480469-.17480469h2c.09667969 0 .17480469.078125.17480469.17480469 0 .00018311-.00018311.00030518-.00018311.00048828s.00018311.00030518.00018311.00048828c0 .09667969-.078125.17480469-.17480469.17480469h-2c-.09667969 0-.17480469-.078125-.17480469-.17480469zm0 4c0-.09667969.078125-.17480469.17480469-.17480469h2c.09667969 0 .17480469.078125.17480469.17480469s-.078125.17480469-.17480469.17480469h-2c-.09667969 0-.17480469-.078125-.17480469-.17480469zm-15 0c0-.09667969.078125-.17480469.17480469-.17480469h2c.09667969 0 .17480469.078125.17480469.17480469s-.078125.17480469-.17480469.17480469h-2c-.09667969 0-.17480469-.078125-.17480469-.17480469zm10 0c0-.09667969.078125-.17480469.17480469-.17480469h2c.09667969 0 .17480469.078125.17480469.17480469s-.078125.17480469-.17480469.17480469h-2c-.09667969 0-.17480469-.078125-.17480469-.17480469zm-5 0c0-.09667969.078125-.17480469.17480469-.17480469h2c.09667969 0 .17480469.078125.17480469.17480469s-.078125.17480469-.17480469.17480469h-2c-.09667969 0-.17480469-.078125-.17480469-.17480469zm13.25976562 4.00048828c0 .55224609-.44775391 1-1 1h-17.08496094c-.55224609 0-1-.44775391-1-1s.44775391-1 1-1h17.08496094c.55224609 0 1 .44775391 1 1zm1.70214844-14.00195312c0 1.37841797-1.12158203 2.5-2.5 2.5h-17.48925781c-1.37841797 0-2.5-1.12158203-2.5-2.5s1.12158203-2.5 2.5-2.5h17.48925781c1.37841797 0 2.5 1.12158203 2.5 2.5zm-25.75878906 10.71728515.24121094 2.75097656c.00488281.05517578-.02734375.10742188-.07958984.12744141-1.44042969.55810547-3.36083984.86523438-5.40771484.86523438-2.04638672 0-3.96679688-.30712891-5.40771484-.86523438-.05224609-.02001953-.08447266-.07226562-.07958984-.12744141l.24121094-2.75341797c.06494141-.95800781.87011719-1.70996094 1.83300781-1.70996094h1.40039062c.25341797 0 .45947266-.20654297.45947266-.45996094v-.74072266c-1.04882812-.49517822-1.83453369-1.46740723-2.03662109-2.68066406l-.18847656-1.13183594c-.18505859-1.11279297.12646484-2.24414062.85546875-3.10498047.72949219-.86083984 1.79443359-1.35449219 2.92236328-1.35449219 1.12841797 0 2.19335938.49365234 2.92285156 1.35449219.72900391.86083984 1.04052734 1.99267578.85546875 3.10498047l-.18847656 1.13183594c-.2020874 1.2130127-.98748779 2.18505859-2.03613281 2.68035889v.74102783c0 .25341797.20654297.45996094.45996094.45996094h1.39990234c.96289062 0 1.76806641.75195312 1.83300781 1.71240234z"/></svg>