<svg enable-background="new 0 0 492 492" viewBox="0 0 492 492" xmlns="http://www.w3.org/2000/svg"><g id="Master_Layer_2"/><g id="Layer_1"><g><g><g><path clip-rule="evenodd" d="m246.249 212.268c-17.886 0-34.733-6.757-47.484-19.056-12.894-12.437-20.057-29.045-20.169-46.763-.112-17.712 6.836-34.401 19.564-46.991 12.695-12.557 29.626-19.534 47.674-19.645 18.059-.118 35.067 6.656 47.922 19.055 12.895 12.437 20.057 29.045 20.169 46.764.112 17.712-6.836 34.4-19.565 46.99-12.695 12.557-29.626 19.534-47.674 19.645-.145 0-.292.001-.437.001zm.014-120.922c-14.515 0-29.022 5.441-40.002 16.302-10.504 10.39-16.238 24.144-16.146 38.728.092 14.59 6.004 28.28 16.647 38.544 10.936 10.549 25.22 15.813 39.496 15.813 14.515 0 29.022-5.441 40.001-16.302 10.504-10.39 16.238-24.144 16.146-38.728-.092-14.591-6.004-28.28-16.647-38.545-10.936-10.548-25.219-15.812-39.495-15.812z" fill="#212121" fill-rule="evenodd"/></g><g><path clip-rule="evenodd" d="m266.765 171.578c-1.439 0-2.88-.536-3.998-1.614l-41.011-39.556c-2.29-2.208-2.355-5.855-.147-8.144 2.208-2.29 5.855-2.355 8.145-.147l41.011 39.556c2.29 2.208 2.355 5.855.147 8.145-1.131 1.17-2.638 1.76-4.147 1.76z" fill="#212121" fill-rule="evenodd"/></g><g><path clip-rule="evenodd" d="m226.012 171.828c-1.485 0-2.968-.57-4.095-1.709-2.237-2.261-2.217-5.909.045-8.146l40.497-40.059c2.262-2.237 5.909-2.217 8.146.045 2.237 2.261 2.217 5.909-.044 8.146l-40.497 40.059c-1.124 1.11-2.589 1.664-4.052 1.664z" fill="#212121" fill-rule="evenodd"/></g><g><path clip-rule="evenodd" d="m246.26 382.111c-.559 0-1.121-.081-1.669-.247-50.213-15.209-101.132-15.209-151.345 0-1.746.528-3.638.199-5.102-.887-1.464-1.087-2.328-2.803-2.328-4.626v-223.71c0-2.31 1.38-4.396 3.505-5.3 15.924-6.773 32.087-11.569 48.042-14.254 15.992-2.691 32.212-3.336 48.208-1.915 3.169.281 5.509 3.078 5.228 6.247s-3.076 5.511-6.247 5.228c-28.899-2.565-58.222 2.09-87.217 13.839v212.21c23.787-6.517 47.832-9.818 71.582-9.818s47.795 3.3 71.582 9.818v-162.19c0-3.181 2.579-5.76 5.76-5.76s5.76 2.579 5.76 5.76v169.846c0 1.823-.864 3.539-2.328 4.626-1.003.745-2.209 1.133-3.431 1.133z" fill="#212121" fill-rule="evenodd"/></g><g><path clip-rule="evenodd" d="m67.701 413.668c-1.26 0-2.5-.414-3.519-1.199-1.414-1.091-2.242-2.775-2.242-4.561v-228.51c0-2.413 1.504-4.57 3.768-5.405 8.076-2.976 16.274-5.593 24.367-7.777 3.071-.828 6.233.989 7.062 4.06s-.989 6.233-4.06 7.062c-6.508 1.756-13.089 3.805-19.616 6.106v217.05c29.48-7.305 56.797-11.386 83.288-12.455 28.892-1.164 57.028 1.425 83.752 7.702v-19.39c0-3.181 2.579-5.76 5.76-5.76s5.76 2.579 5.76 5.76v26.756c0 1.785-.828 3.47-2.242 4.561s-3.253 1.464-4.98 1.011c-52.938-13.89-110.389-12.32-175.636 4.8-.483.127-.974.189-1.462.189z" fill="#212121" fill-rule="evenodd"/></g><g><path clip-rule="evenodd" d="m246.258 382.113c-2.472 0-4.757-1.604-5.51-4.092-.922-3.045.799-6.26 3.843-7.182 26.202-7.936 52.785-11.96 79.012-11.96 23.75 0 47.795 3.3 71.582 9.818v-212.21c-28.995-11.75-58.319-16.405-87.216-13.839-3.174.282-5.966-2.059-6.247-5.228s2.059-5.965 5.228-6.247c15.997-1.421 32.216-.776 48.208 1.915 15.955 2.685 32.118 7.48 48.042 14.254 2.125.904 3.505 2.99 3.505 5.3v223.71c0 1.823-.863 3.539-2.328 4.626-1.464 1.086-3.357 1.415-5.102.887-50.213-15.209-101.132-15.209-151.345 0-.556.167-1.119.248-1.672.248z" fill="#212121" fill-rule="evenodd"/></g><g><path clip-rule="evenodd" d="m424.82 413.668c-.488 0-.979-.062-1.462-.188-65.247-17.12-122.698-18.691-175.636-4.8-3.077.808-6.226-1.032-7.033-4.109s1.032-6.226 4.109-7.033c28.858-7.573 59.465-10.767 90.974-9.497 26.491 1.068 53.807 5.149 83.288 12.455v-217.052c-6.527-2.301-13.109-4.35-19.616-6.106-3.071-.829-4.889-3.991-4.06-7.062s3.992-4.889 7.062-4.06c8.093 2.184 16.291 4.801 24.367 7.777 2.264.835 3.768 2.992 3.768 5.405v228.51c0 1.785-.828 3.47-2.242 4.561-1.019.786-2.26 1.199-3.519 1.199z" fill="#212121" fill-rule="evenodd"/></g><g><path clip-rule="evenodd" d="m212.507 230.777c-.602 0-1.213-.095-1.815-.295-26.904-8.931-54.752-8.924-82.769.02-3.03.967-6.271-.705-7.239-3.735-.967-3.031.705-6.271 3.736-7.239 15.324-4.892 30.723-7.357 45.78-7.3 14.784.047 29.629 2.51 44.121 7.321 3.019 1.002 4.654 4.262 3.652 7.281-.802 2.417-3.051 3.947-5.466 3.947z" fill="#212121" fill-rule="evenodd"/></g><g><path clip-rule="evenodd" d="m212.507 273.504c-.602 0-1.213-.095-1.815-.295-26.904-8.931-54.752-8.924-82.769.02-3.031.967-6.271-.705-7.239-3.735-.967-3.03.705-6.271 3.736-7.239 15.324-4.892 30.723-7.359 45.78-7.3 14.784.047 29.629 2.51 44.121 7.321 3.019 1.002 4.654 4.263 3.652 7.281-.802 2.416-3.051 3.947-5.466 3.947z" fill="#212121" fill-rule="evenodd"/></g><g><path clip-rule="evenodd" d="m212.507 316.229c-.602 0-1.214-.095-1.815-.295-26.905-8.931-54.752-8.924-82.769.02-3.031.967-6.271-.705-7.239-3.735-.967-3.03.705-6.271 3.736-7.239 15.324-4.892 30.723-7.348 45.78-7.3 14.784.047 29.629 2.51 44.121 7.321 3.019 1.002 4.654 4.262 3.652 7.281-.802 2.417-3.051 3.947-5.466 3.947z" fill="#212121" fill-rule="evenodd"/></g><g><path clip-rule="evenodd" d="m366.771 230.777c-.602 0-1.214-.095-1.815-.295-26.905-8.931-54.752-8.924-82.769.02-3.031.968-6.272-.705-7.239-3.735-.967-3.031.705-6.271 3.736-7.239 15.177-4.845 30.433-7.301 45.349-7.301.144 0 .287 0 .431.001 14.784.047 29.629 2.51 44.121 7.321 3.019 1.002 4.655 4.262 3.652 7.281-.803 2.417-3.052 3.947-5.466 3.947z" fill="#212121" fill-rule="evenodd"/></g><g><path clip-rule="evenodd" d="m366.771 273.504c-.602 0-1.214-.095-1.815-.295-26.904-8.931-54.752-8.924-82.769.02-3.031.967-6.272-.705-7.239-3.735-.967-3.031.705-6.271 3.736-7.239 15.177-4.845 30.432-7.301 45.348-7.301.144 0 .287 0 .432.001 14.784.047 29.629 2.51 44.121 7.321 3.019 1.002 4.655 4.262 3.652 7.281-.802 2.416-3.052 3.947-5.466 3.947z" fill="#212121" fill-rule="evenodd"/></g><g><path clip-rule="evenodd" d="m366.771 316.229c-.602 0-1.214-.095-1.815-.295-26.904-8.931-54.752-8.924-82.769.02-3.031.967-6.272-.705-7.239-3.735-.967-3.031.705-6.271 3.736-7.239 15.177-4.845 30.432-7.301 45.348-7.301.144 0 .287 0 .432.001 14.784.047 29.629 2.51 44.121 7.321 3.019 1.002 4.655 4.262 3.652 7.281-.802 2.417-3.052 3.947-5.466 3.947z" fill="#212121" fill-rule="evenodd"/></g></g></g></g></svg>