<svg height="512" viewBox="0 0 512 512" width="512" xmlns="http://www.w3.org/2000/svg"><g id="_03-W" data-name="03-W"><g id="linear_color" data-name="linear color"><path d="m370.758 307.09c-25.162-4.42-41.124-8.367-51.252-11.57a56.775 56.775 0 0 0 16.432-7.966 36.28 36.28 0 0 0 15.71-30.493c12.59 1.5 30.206-1.286 40.656-18.671 7.388-12.3 9.613-24.145 6.612-35.212-3.383-12.476-12.435-20.461-19.318-24.931.9-7.118.342-13.249-1.65-18.18a41.927 41.927 0 0 0 20.175-15.739c9.313-13.969 9.321-34.758.023-52.964-6.608-12.941-16.538-21.853-27.488-25.02 1.68-6.279 3.178-15.823.577-25.206-2.521-9.091-10.683-17.172-20.8-20.586-9.464-3.2-19.5-2.042-28.805 3.2-4.965-6.185-15.23-15.572-32.89-17.768-9.9-1.233-20.862 0-32.6 3.668-9.87-3.489-51.59-16.222-81.868 5.565-13.843 9.961-19.832 25.333-22.276 34.375a32.715 32.715 0 0 0 -21.008 1.98 33.9 33.9 0 0 0 -19.273 22.194c-3.6 14 4.57 26.244 9.329 31.91-4 9.593-6.792 25.554-2.321 38.973a34.081 34.081 0 0 0 14.345 18.475 34.7 34.7 0 0 0 -1.068 8.906 30.794 30.794 0 0 0 -18.006 13.235c-7.884 12.228-7.692 29.358-4.006 40.906 6.831 21.447 24.409 27.445 36.211 27.847 3.216 10.58 14.342 33.153 51.345 39.8-13.736 4.713-26.833 7.946-56.3 13.27a61.882 61.882 0 0 0 -51.244 61.062v135.85a6 6 0 0 0 12 0v-135.85a49.9 49.9 0 0 1 41.318-49.24c20.879-3.668 35.908-7.063 46.806-10.149 1.147 12.008 7.246 22.262 16.959 27.854 12.205 7.027 22.031 8.017 27.862 7.7l15.427 41.76a6 6 0 0 0 11.256 0l15.427-41.76c5.834.312 15.66-.678 27.863-7.7 9.712-5.592 15.812-15.846 16.959-27.854 10.9 3.086 25.926 6.481 46.806 10.149a49.9 49.9 0 0 1 41.317 49.24v135.85a6 6 0 0 0 12 0v-135.85a61.883 61.883 0 0 0 -51.242-61.06zm-145.338-47.77c-23.773-9.988-46.548-30.393-51.5-60.778-1.671-10.331-2.928-20.375-3.757-29.943a40.777 40.777 0 0 0 5.146-1.927 33.983 33.983 0 0 0 57.833 32.189 25.163 25.163 0 0 0 4.48 10.805c2.859 3.8 8.369 8.334 18.375 8.334a6 6 0 0 0 0-12c-6.435 0-9.837-2.814-11.032-9.125-1.1-5.829-.01-12.737 1.923-18.875h23.173a34 34 0 1 0 60.961-22.6 49.231 49.231 0 0 0 11.412 5.33c-.754 11.849-2.216 24.542-4.36 37.813-7.212 41.065-45.529 66.035-82.074 67.457-9.254 0-19.977-2.258-30.58-6.68zm-81.181-83.12a25.867 25.867 0 0 1 -.01-8.173 48.206 48.206 0 0 0 14.04 2.259c.85 9.61 2.114 19.664 3.779 29.986-2.591 1.02-5.449.861-8.659-.5-2.706-1.926-8.222-13.692-9.15-23.572zm61.585-55.722c-.319-11.153 5.468-31.239 22.351-37.655 13.773-5.234 21.913 14.554 22.247 15.385a6.007 6.007 0 0 0 10.234 1.574c.149-.182 15.025-18.138 30.261-14.513 12.242 2.911 13.7 9.4 15.845 23.793 1.65 11.1 3.691 24.786 14.473 37.644a33.972 33.972 0 0 0 -49.735 19.294h-19.233c1.331-2.1 2.6-3.545 3.588-4.01a6 6 0 0 0 -.355-11.99c-6.1 0-11.645 5.889-15.758 13.837a33.977 33.977 0 0 0 -40.542-20.675c4.553-8.408 6.787-16.957 6.624-22.681zm98.176 33.522a22 22 0 1 1 -22 22 22.025 22.025 0 0 1 22-22zm-96 0a22 22 0 1 1 -22 22 22.025 22.025 0 0 1 22-22zm179.334 52.319c2.113 7.791.324 16.5-5.316 25.89-11.6 19.306-34.5 11.832-35.444 11.512a6.015 6.015 0 0 0 -7.714 7.383c.195.667 4.591 16.472-9.836 26.641-7.673 5.408-16.956 8.255-27.654 8.51-2.858-4.075-4.756-10.194-5.569-17.952 23.09-12.031 40.536-25.409 51.411-56.277 5.4 1.583 10.493 1.169 16.363-1.329 5.193-2.272 10.028-10.679 13.075-19.779 5.372 4.366 9.15 9.739 10.684 15.401zm-19.383-32.237c.039 8.472-6.706 24.345-9.345 25.689-3.209 1.366-6.065 1.523-8.655.5 2.091-12.97 3.543-25.417 4.346-37.119a54.67 54.67 0 0 0 11.716-.152c2.021 3.32 2.113 8.173 1.938 11.082zm-234.536-66.475a6.023 6.023 0 0 0 -1.1-7.378c-.121-.114-12.055-11.537-8.985-23.474 2.861-12.206 18.882-20.213 30.25-13.808a6.008 6.008 0 0 0 8.775-4.534c.028-.219 3.036-22.027 18.919-33.456 28.443-20.466 72.07-3.555 72.5-3.383a6 6 0 0 0 4.119.118c10.8-3.6 20.678-4.88 29.363-3.8 19.725 2.453 27.089 16.244 27.374 16.791a6 6 0 0 0 8.993 2.1c9.51-7.217 17.743-6.625 22.975-4.858 7.3 2.463 11.889 8.166 13.069 12.422 3.158 11.395-2.341 24.138-2.416 24.31a6 6 0 0 0 5.254 8.429c9.355.359 18.916 7.923 24.951 19.739 7.354 14.4 7.621 30.436.679 40.85-5.211 7.816-14.48 12.775-25.428 13.6-12.025.91-24.185-3.328-30.994-10.8-9.742-10.685-11.443-22.12-13.086-33.179-2.1-14.154-4.28-28.79-24.939-33.7-15.18-3.607-28.707 5.578-36.2 12.306-6.4-9.981-18.034-20.2-33.579-14.3-22.855 8.686-30.513 34.191-30.083 49.216.191 6.676-6.1 23.656-18.809 32.3-9.189 6.255-19.949 6.825-31.98 1.7l-.1-.044a21.967 21.967 0 0 1 -12.832-13.93c-4.105-12.31.129-27.723 3.31-33.237zm23.456 139.54a6 6 0 0 0 -6.747-5.265c-.884.117-21.712 2.608-28.708-19.357-2.739-8.58-3.075-21.865 2.658-30.757a18.773 18.773 0 0 1 9.387-7.576c.61 2.695 1.3 5 1.849 6.64 1.295 3.882 6.067 16.788 13.122 19.868 5.863 2.5 10.963 2.909 16.356 1.327 10.883 30.873 28.312 44.236 51.412 56.273a45.01 45.01 0 0 1 -3.858 15.055 91 91 0 0 1 -12.266-1.268c-39.136-6.842-43.062-33.836-43.205-34.94zm142.06 79.069c-14.394 8.285-23.732 5.836-24.033 5.754a5.83 5.83 0 0 0 -7.42 3.647l-11.478 31.069-11.477-31.069a6 6 0 0 0 -7.421-3.647c-.09.03-9.5 2.612-24.032-5.754-6.932-3.992-11.017-11.928-11.137-21.229 19.226-6.848 22.431-14.776 25.766-32.023a82.04 82.04 0 0 0 56.6 0c3.515 17.786 6.578 25.053 25.766 32.023-.117 9.301-4.201 17.237-11.134 21.229z"/><path d="m374.745 393.254a6 6 0 0 0 -6 6c0 38.979-9 48.843-14.961 55.37-3.43 3.758-6.977 7.645-7.039 14.5-.06 6.832-.236 12.588-.406 18.155-.174 5.708-.339 11.103-.339 16.721a6 6 0 0 0 12 0c0-5.435.162-10.741.333-16.359s.35-11.453.412-18.413c.019-2.052.756-3.067 3.9-6.514 7.207-7.9 18.1-19.827 18.1-63.46a6 6 0 0 0 -6-6z"/><path d="m165.254 469.12c-.061-6.851-3.608-10.738-7.038-14.5-5.958-6.527-14.961-16.391-14.961-55.37a6 6 0 0 0 -12 0c0 43.633 10.891 55.564 18.1 63.46 3.147 3.447 3.884 4.462 3.9 6.514.062 6.96.24 12.783.412 18.413s.333 10.928.333 16.363a6 6 0 0 0 12 0c0-5.618-.165-11.013-.339-16.725-.17-5.567-.345-11.323-.407-18.155z"/><circle cx="256" cy="406" r="6"/><circle cx="256" cy="444" r="6"/><circle cx="256" cy="482" r="6"/><path d="m304 178a6 6 0 0 0 6-6v-4a6 6 0 0 0 -12 0v4a6 6 0 0 0 6 6z"/><path d="m208 178a6 6 0 0 0 6-6v-4a6 6 0 0 0 -12 0v4a6 6 0 0 0 6 6z"/><path d="m274.688 239.859a6.031 6.031 0 0 0 .677-8.483 5.969 5.969 0 0 0 -8.433-.673 17.446 17.446 0 0 1 -10.432 3.297 23.673 23.673 0 0 1 -12.024-3.617 6 6 0 0 0 -6.893 9.823 35.038 35.038 0 0 0 18.917 5.794 29.1 29.1 0 0 0 18.188-6.141z"/></g></g></svg>