<svg width="18" height="18" viewBox="0 0 18 18" fill="none" xmlns="http://www.w3.org/2000/svg">
<path d="M17.2266 3.375C17.2266 3.04866 17.0969 2.73568 16.8662 2.50493C16.6354 2.27417 16.3224 2.14453 15.9961 2.14453H1.23047C0.904128 2.14453 0.591154 2.27417 0.360396 2.50493C0.129638 2.73568 0 3.04866 0 3.375L0 4.45008H17.2266V3.375Z" fill="#E12C2C"/>
<path d="M10.2656 8.90625C10.2661 8.48681 10.4329 8.08469 10.7295 7.7881C11.0261 7.49151 11.4282 7.32468 11.8477 7.32422C12.3328 7.32505 12.806 7.17423 13.2012 6.89285L13.7443 6.50613C14.012 6.31608 14.3321 6.21398 14.6603 6.21398C14.9886 6.21398 15.3087 6.31608 15.5763 6.50613L16.1191 6.89285C16.4459 7.12598 16.8274 7.27059 17.2266 7.31262V5.50488H0V12.8754C0 13.2017 0.129638 13.5147 0.360396 13.7455C0.591154 13.9762 0.904128 14.1059 1.23047 14.1059H10.986C10.5119 13.2397 10.2641 12.2678 10.2656 11.2804V8.90625ZM2.40785 7.97391H2.75238C2.82163 7.97391 2.89021 7.98755 2.95419 8.01405C3.01817 8.04055 3.0763 8.07939 3.12527 8.12836C3.17424 8.17733 3.21308 8.23546 3.23958 8.29944C3.26609 8.36342 3.27973 8.432 3.27973 8.50125C3.27973 8.5705 3.26609 8.63908 3.23958 8.70306C3.21308 8.76704 3.17424 8.82517 3.12527 8.87414C3.0763 8.92311 3.01817 8.96195 2.95419 8.98845C2.89021 9.01495 2.82163 9.02859 2.75238 9.02859H2.40785C2.3386 9.02859 2.27003 9.01495 2.20605 8.98845C2.14207 8.96195 2.08393 8.92311 2.03496 8.87414C1.98599 8.82517 1.94715 8.76704 1.92065 8.70306C1.89415 8.63908 1.88051 8.5705 1.88051 8.50125C1.88051 8.432 1.89415 8.36342 1.92065 8.29944C1.94715 8.23546 1.98599 8.17733 2.03496 8.12836C2.08393 8.07939 2.14207 8.04055 2.20605 8.01405C2.27003 7.98755 2.3386 7.97391 2.40785 7.97391ZM6.92086 11.2853H2.40785C2.26799 11.2853 2.13386 11.2297 2.03496 11.1308C1.93607 11.0319 1.88051 10.8978 1.88051 10.7579C1.88051 10.6181 1.93607 10.4839 2.03496 10.385C2.13386 10.2861 2.26799 10.2306 2.40785 10.2306H6.92086C7.06072 10.2306 7.19485 10.2861 7.29375 10.385C7.39264 10.4839 7.4482 10.6181 7.4482 10.7579C7.4482 10.8978 7.39264 11.0319 7.29375 11.1308C7.19485 11.2297 7.06072 11.2853 6.92086 11.2853ZM6.92086 9.02859H4.82098C4.68112 9.02859 4.54698 8.97303 4.44809 8.87414C4.34919 8.77524 4.29363 8.64111 4.29363 8.50125C4.29363 8.36139 4.34919 8.22726 4.44809 8.12836C4.54698 8.02947 4.68112 7.97391 4.82098 7.97391H6.92086C7.06072 7.97391 7.19485 8.02947 7.29375 8.12836C7.39264 8.22726 7.4482 8.36139 7.4482 8.50125C7.4482 8.64111 7.39264 8.77524 7.29375 8.87414C7.19485 8.97303 7.06072 9.02859 6.92086 9.02859Z" fill="#E12C2C"/>
<path d="M17.4727 8.37867C16.7688 8.37985 16.0821 8.16093 15.5088 7.75253L14.9653 7.36582C14.8761 7.30254 14.7695 7.26855 14.6602 7.26855C14.5508 7.26855 14.4442 7.30254 14.355 7.36582L13.8115 7.75253C13.2382 8.16093 12.5515 8.37985 11.8477 8.37867C11.7078 8.37867 11.5737 8.43423 11.4748 8.53312C11.3759 8.63202 11.3203 8.76615 11.3203 8.90601V11.2801C11.3203 12.2687 11.6226 13.2337 12.1867 14.0456C12.7508 14.8575 13.5497 15.4775 14.4763 15.8223C14.5949 15.8664 14.7254 15.8664 14.844 15.8223C15.7706 15.4775 16.5695 14.8575 17.1336 14.0456C17.6977 13.2337 18 12.2687 18 11.2801V8.90601C18 8.76615 17.9444 8.63202 17.8455 8.53312C17.7466 8.43423 17.6125 8.37867 17.4727 8.37867ZM16.1107 11.1859L14.8331 12.6361C14.7836 12.6923 14.7228 12.7373 14.6545 12.7681C14.5863 12.7989 14.5123 12.8148 14.4374 12.8148C14.3626 12.8148 14.2886 12.7989 14.2204 12.7681C14.1521 12.7373 14.0912 12.6923 14.0418 12.6361L13.2096 11.6918C13.1638 11.6398 13.1287 11.5793 13.1063 11.5138C13.084 11.4482 13.0747 11.3789 13.0791 11.3098C13.0879 11.1702 13.1519 11.0398 13.2569 10.9474C13.3619 10.8549 13.4993 10.808 13.6389 10.8168C13.7785 10.8257 13.9089 10.8897 14.0013 10.9946L14.4373 11.4896L15.319 10.4887C15.4114 10.3838 15.5418 10.3198 15.6814 10.3109C15.821 10.3021 15.9584 10.349 16.0634 10.4415C16.1684 10.5339 16.2324 10.6643 16.2412 10.8039C16.2501 10.9435 16.2032 11.0809 16.1107 11.1859Z" fill="#E12C2C"/>
</svg>
