<?xml version="1.0" encoding="iso-8859-1"?>
<!-- Generator: Adobe Illustrator 19.0.0, SVG Export Plug-In . SVG Version: 6.00 Build 0)  -->
<svg version="1.1" id="Capa_1" xmlns="http://www.w3.org/2000/svg" xmlns:xlink="http://www.w3.org/1999/xlink" x="0px" y="0px"
	 viewBox="0 0 468.293 468.293" style="enable-background:new 0 0 468.293 468.293;" xml:space="preserve">
<path style="fill:#F6C358;" d="M420.293,460.541H48c-10.345,0-18.732-8.386-18.732-18.732V178.617h409.756v263.192
	C439.024,452.154,430.638,460.541,420.293,460.541z"/>
<path style="fill:#E1E6E9;" d="M29.268,204.637L29.268,204.637C13.104,204.637,0,191.533,0,175.369V120.75h58.537v54.619
	C58.537,191.533,45.433,204.637,29.268,204.637z"/>
<path style="fill:#D15241;" d="M87.805,204.637L87.805,204.637c-16.164,0-29.268-13.104-29.268-29.268V120.75h58.537v54.619
	C117.073,191.533,103.969,204.637,87.805,204.637z"/>
<path style="fill:#E1E6E9;" d="M146.341,204.637L146.341,204.637c-16.164,0-29.268-13.104-29.268-29.268V120.75h58.537v54.619
	C175.61,191.533,162.506,204.637,146.341,204.637z"/>
<path style="fill:#3EA69B;" d="M204.878,204.637L204.878,204.637c-16.164,0-29.268-13.104-29.268-29.268V120.75h58.537v54.619
	C234.146,191.533,221.042,204.637,204.878,204.637z"/>
<path style="fill:#E1E6E9;" d="M263.415,204.637L263.415,204.637c-16.164,0-29.268-13.104-29.268-29.268V120.75h58.537v54.619
	C292.683,191.533,279.579,204.637,263.415,204.637z"/>
<path style="fill:#D15241;" d="M321.951,204.637L321.951,204.637c-16.164,0-29.268-13.104-29.268-29.268V120.75h58.537v54.619
	C351.22,191.533,338.116,204.637,321.951,204.637z"/>
<path style="fill:#E1E6E9;" d="M380.488,204.637L380.488,204.637c-16.164,0-29.268-13.104-29.268-29.268V120.75h58.537v54.619
	C409.756,191.533,396.652,204.637,380.488,204.637z"/>
<path style="fill:#2D93BA;" d="M439.024,204.637L439.024,204.637c-16.164,0-29.268-13.104-29.268-29.268V120.75h58.537v54.619
	C468.293,191.533,455.189,204.637,439.024,204.637z"/>
<polygon style="fill:#EBF0F3;" points="58.537,120.75 0,120.75 39.413,55.595 88.096,55.595 "/>
<polygon style="fill:#E56353;" points="117.073,120.75 58.537,120.75 88.096,55.595 136.78,55.595 "/>
<polygon style="fill:#EBF0F3;" points="175.61,120.75 117.073,120.75 136.78,55.595 185.463,55.595 "/>
<polygon style="fill:#44C4A1;" points="234.146,120.75 175.61,120.75 185.463,55.595 234.146,55.595 "/>
<polygon style="fill:#EBF0F3;" points="292.683,120.75 234.146,120.75 234.146,55.595 282.83,55.595 "/>
<polygon style="fill:#E56353;" points="351.22,120.75 292.683,120.75 282.83,55.595 331.513,55.595 "/>
<polygon style="fill:#EBF0F3;" points="409.756,120.75 351.22,120.75 331.513,55.595 380.197,55.595 "/>
<polygon style="fill:#27A2DB;" points="468.293,120.75 409.756,120.75 380.197,55.595 428.88,55.595 "/>
<rect x="29.265" y="373.448" style="fill:#D5D6DB;" width="409.725" height="18.732"/>
<path style="fill:#64798A;" d="M216.78,460.541H108.053V354.922c0-27.533,22.32-49.853,49.853-49.853h9.02
	c27.533,0,49.853,22.32,49.853,49.853V460.541z"/>
<g>
	<rect x="263.418" y="357.345" style="fill:#E56353;" width="50.913" height="50.913"/>
	<rect x="335.797" y="357.345" style="fill:#E56353;" width="50.913" height="50.913"/>
</g>
<path style="fill:#3EA69B;" d="M365.437,99.965H102.856V32.728c0-13.794,11.182-24.976,24.976-24.976h212.63
	c13.794,0,24.976,11.182,24.976,24.976L365.437,99.965L365.437,99.965z"/>
<g>
	<path style="fill:#FFFFFF;" d="M149.631,80.046h-22.927V27.671h20.378c3.549,0,6.61,0.427,9.183,1.274
		c2.567,0.851,4.482,2,5.732,3.448c2.396,2.695,3.591,5.744,3.591,9.14c0,4.098-1.299,7.143-3.896,9.14
		c-0.945,0.701-1.598,1.137-1.945,1.311c-0.348,0.177-0.976,0.463-1.872,0.863c3.244,0.701,5.829,2.162,7.756,4.384
		c1.921,2.223,2.884,4.982,2.884,8.277c0,3.646-1.25,6.869-3.75,9.668C161.82,78.424,156.771,80.046,149.631,80.046z M135.546,49.4
		h11.238c6.396,0,9.591-2.171,9.591-6.518c0-2.497-0.774-4.296-2.323-5.393s-3.945-1.649-7.195-1.649h-11.311V49.4z M135.546,71.878
		h13.86c3.25,0,5.732-0.512,7.457-1.537c1.72-1.021,2.585-2.957,2.585-5.805c0-4.646-3.726-6.97-11.165-6.97h-12.738V71.878z"/>
	<path style="fill:#FFFFFF;" d="M186.418,68.131l-5.244,11.915h-9.439l23.079-52.375h9.439l23.079,52.375h-9.445l-5.244-11.915
		H186.418z M209.046,59.967l-9.512-21.579l-9.518,21.579H209.046z"/>
	<path style="fill:#FFFFFF;" d="M273.863,27.671h8.841v52.375h-9.591l-29.671-38.213v38.213h-8.841V27.671h8.841l30.421,39.113
		V27.671z"/>
	<path style="fill:#FFFFFF;" d="M297.235,27.671h8.841v25.552l23.976-25.552h11.238l-21.055,22.93l21.354,29.445h-10.488
		l-17.384-22.927l-7.64,8.241v14.686h-8.841V27.671z"/>
</g>
<g>
</g>
<g>
</g>
<g>
</g>
<g>
</g>
<g>
</g>
<g>
</g>
<g>
</g>
<g>
</g>
<g>
</g>
<g>
</g>
<g>
</g>
<g>
</g>
<g>
</g>
<g>
</g>
<g>
</g>
</svg>
