<svg width="28" height="28" viewBox="0 0 28 28" fill="none" xmlns="http://www.w3.org/2000/svg">
<path d="M7.97608 24.1161C7.46733 24.1161 7.04288 23.946 6.70273 23.6059C6.36258 23.2657 6.19214 22.8413 6.19141 22.3325V6.02087C6.19141 5.51286 6.36185 5.08878 6.70273 4.74863C7.04362 4.40848 7.46807 4.23804 7.97608 4.2373H19.8691C20.3771 4.2373 20.8016 4.40775 21.1425 4.74863C21.4833 5.08952 21.6534 5.51396 21.6527 6.02198V22.3325C21.6527 22.8405 21.4826 23.265 21.1425 23.6059C20.8023 23.9468 20.3775 24.1168 19.868 24.1161H7.97608ZM7.97608 23.0117H19.8691C20.0385 23.0117 20.1942 22.941 20.3363 22.7997C20.4784 22.6583 20.549 22.5022 20.5483 22.3314V6.02198C20.5483 5.8519 20.4776 5.69582 20.3363 5.55372C20.1949 5.41163 20.0388 5.34095 19.868 5.34168H7.97608C7.80601 5.34168 7.64992 5.41236 7.50782 5.55372C7.36573 5.69508 7.29505 5.8508 7.29578 6.02087V22.3325C7.29578 22.5019 7.36646 22.6576 7.50782 22.7997C7.64918 22.9418 7.8049 23.0125 7.97498 23.0117M13.0518 19.6135L11.6537 17.957C11.5579 17.8524 11.4427 17.8002 11.308 17.8002C11.1733 17.8002 11.0577 17.8594 10.9612 17.978L9.77069 19.5373C9.65142 19.6934 9.63191 19.8514 9.71216 20.0111C9.79241 20.1709 9.92346 20.2508 10.1053 20.2508H17.9088C18.0914 20.2508 18.2225 20.1709 18.302 20.0111C18.3823 19.8506 18.3701 19.6923 18.2656 19.5362L16.1187 16.6682C16.0222 16.5489 15.9033 16.4893 15.7619 16.4893C15.6198 16.4893 15.5006 16.5489 15.4041 16.6682L13.0518 19.6135Z" fill="#3A4B15"/>
</svg>
