<svg id="Layer_4" viewBox="0 0 512 512" xmlns="http://www.w3.org/2000/svg" data-name="Layer 4"><path d="m289.88 412.047h165.973v57.781h-165.973z" fill="#93cf00"/><path d="m258.898 10h124.927v37.17h-124.927z" fill="#009da2"/><path d="m240.85 47.17h215.003v323.977h-215.003z" fill="#93cf00"/><path d="m149.023 186.997h398.658v167.003h-398.658z" fill="#abe200" transform="matrix(0 1 -1 0 618.851 -77.853)"/><path d="m240.85 303.761h177.338v36.88h-177.338z" fill="#d2f7ff"/><path d="m240.85 223.723h177.338v36.88h-177.338z" fill="#d2f7ff"/><path d="m21.139 147.609h268.741v322.219h-268.741z" fill="#33a6fb"/><path d="m18.4 198.348h274.219v220.741h-274.219z" fill="#57bfff" transform="matrix(0 1 -1 0 464.229 153.209)"/><path d="m21.139 147.609h268.741v24h-268.741z" fill="#0087ff"/><path d="m10 115.437h292.644v32.172h-292.644z" fill="#1262b2"/><path d="m41.029 65.353h165.666v50.084h-165.666z" fill="#6cacdd"/><path d="m41.029 91.437h165.666v24h-165.666z" fill="#4695c6"/><path d="m10 469.828h492v32.172h-492z" fill="#417195"/><path d="m21.139 383.799h268.741v28.249h-268.741z" fill="#afeeff"/><path d="m111.175 412.047h88.669v57.781h-88.669z" fill="#d2f7ff"/><path d="m149.51 412.047h12v57.781h-12z" fill="#91caed"/><g fill="#d2f7ff"><path d="m136.285 178.996h38.449v38.449h-38.449z"/><path d="m211.817 178.996h38.449v38.449h-38.449z"/><path d="m60.753 178.996h38.449v38.449h-38.449z" transform="matrix(-1 0 0 -1 159.955 396.442)"/><path d="m136.285 246.479h38.449v38.449h-38.449z"/><path d="m211.817 246.479h38.449v38.449h-38.449z"/><path d="m60.753 246.479h38.449v38.449h-38.449z" transform="matrix(-1 0 0 -1 159.955 531.408)"/><path d="m136.285 313.962h38.449v38.449h-38.449z"/><path d="m211.817 313.962h38.449v38.449h-38.449z"/><path d="m60.753 313.962h38.449v38.449h-38.449z" transform="matrix(-1 0 0 -1 159.955 666.373)"/></g><path d="m289.88 371.147h182.451v40.901h-182.451z" fill="#49a549"/><path d="m315.598 412.047h65.508v57.781h-65.508z" fill="#d2f7ff"/><path d="m342.352 412.047h12v57.781h-12z" fill="#91caed"/><g><path d="m372.723726 12.155069c7.1216704-2.8734258 15.0800895-2.8734258 22.2017599 0l82.6584291 33.3507237c15.0397604 6.0681881 24.7582594 20.8042117 24.4068629 37.0182125-.4263033 19.6703224-1.3684071 47.3720749-3.450398 73.7439592-2.5066494 31.7508924-12.724076 52.2110039-19.3976921 62.4694881-3.0052164 4.6195293-6.8800553 8.6029477-11.3810882 11.7828974-15.7171308 11.1040483-61.5685451 42.0815874-83.9369937 42.0815874s-68.2198629-30.9775391-83.9369937-42.0815874c-4.5010329-3.1799498-8.3758719-7.1633681-11.3810883-11.7828975-6.673616-10.2584843-16.8910426-30.7185958-19.397692-62.469488-2.0819909-26.3718843-3.0240947-54.0736368-3.450398-73.7439592-.3513965-16.2140007 9.3671025-30.9500244 24.4068629-37.0182125l82.6584291-33.3507237z" fill="#3451c6"/><path d="m383.8244591 260.6020601c-12.4902344 0-42.7197266-15.6547852-77.0126953-39.8823242-3.3149414-2.3422852-6.0893555-5.2109375-8.246582-8.5263672-5.5273438-8.4960938-15.1499023-27.1816406-17.4936523-56.8696289-2.0878906-26.4428711-3.0097656-54.3256836-3.4160156-73.0595703-.2416992-11.1542969 6.5498047-21.4541016 16.8994141-25.6298828l82.6591797-33.3505859c2.1103516-.8515625 4.3344727-1.2836914 6.6108398-1.2836914 2.2758789 0 4.5.4321289 6.6103516 1.2836914l82.6582031 33.3505859c10.3500977 4.1757812 17.1416016 14.4755859 16.9003906 25.6298828-.40625 18.7299805-1.328125 46.609375-3.4165039 73.0595703-2.3432617 29.6860352-11.9658203 48.3730469-17.4936523 56.8701172-2.15625 3.3144531-4.9311523 6.1831055-8.246582 8.5258789-34.2919922 24.2275391-64.5209961 39.8823242-77.0126953 39.8823242z" fill="#0087ff"/><g fill="#0087ff"><path d="m383.8244591 61.6728609c3.3134766 0 6-2.6865234 6-6v-45.0531617c-3.958374-.8175049-8.041626-.8175049-12 .000061v45.0531006c0 3.3134766 2.6865234 6 6 6z"/><path d="m305.3673057 78.8534028c.000061.000061-15.3005371-15.3005371-26.4656372-26.4656372-3.0455933 2.6785889-5.6430054 5.8068848-7.7107544 9.2599487 11.0841675 11.0841675 25.6911621 25.6911621 25.6911621 25.6911621 5.7678833 5.4295654 13.9257812-2.6960449 8.4852295-8.4854736z"/><path d="m488.7476158 52.3878877-27.598938 27.598938c-2.3432617 2.3432617-2.3432617 6.1420898 0 8.4853516 2.3428345 2.3430176 6.1425171 2.3430176 8.4853516 0 0 0 13.7790527-13.7790527 26.8243408-26.8243408-2.067749-3.453064-4.6651611-6.5813599-7.7107544-9.2599487z"/><path d="m383.8244591 229.1035249c-3.3134766 0-6 2.6865234-6 6v36.8759766c2.1355591.3933105 4.1542358.6224365 6.0001221.6224365 1.8457642 0 3.8644409-.2290649 5.9998779-.6223755v-36.8760376c0-3.3134766-2.6865234-6-6-6z"/></g><path d="m383.8245683 248.3709179c-.3320722 0-8.4088158-.1567023-32.5772593-13.761673-15.3200199-8.6236242-29.9942999-18.6625649-37.3779774-23.8792278-2.0442293-1.4442382-3.7437661-3.1955708-5.051547-5.206146-4.8940559-7.5227639-13.4222389-24.1734391-15.5532329-51.1630506-2.0647374-26.1545668-2.9781332-53.7867631-3.3809318-72.3620374-.1319875-6.101663 3.5844345-11.7369 9.2483301-14.0222301l82.6583801-33.3507799c.6494208-.2618717 1.3338103-.3949109 2.0342382-.3949109s1.3848175.1330392 2.0342382.3949109l82.6586431 33.3510428c5.6636327 2.2850672 9.3803177 7.9203041 9.2480672 14.0222301-.4025357 18.572908-1.3156686 46.2032638-3.3809318 72.3617745-2.1307311 26.9896115-10.659177 43.6402866-15.5532329 51.1633135-1.3077809 2.0103122-3.0073177 3.7616449-5.0512841 5.2056201-7.3839404 5.2169258-22.0582204 15.2558666-37.3779774 23.8794907-24.1687065 13.6047077-32.24545 13.761673-32.5775222 13.761673z" fill="#ffd300"/><path d="m383.8244591 223.7456148c-3.3144531-1.1679688-9.8701172-3.8955078-20.8041992-10.050293-13.9223633-7.8369141-27.3925781-17-34.5996094-22.0712891-3.1738281-5.1420898-9.5498047-17.8686523-11.230957-39.1523438-1.7963867-22.7626953-2.7041016-46.75-3.1611328-64.6254883l69.7958984-28.1611328 69.7963867 28.1616211c-.4570312 17.875-1.3647461 41.8618164-3.1621094 64.625-1.6801758 21.2827148-8.0566406 34.0107422-11.230957 39.152832-7.2050781 5.0698242-20.675293 14.2333984-34.5981445 22.0708008-10.9345703 6.1547852-17.4907227 8.8823242-20.8051758 10.050293z" fill="#ffee93"/><g><path d="m435.3803391 97.9783819c-6.9994539-6.2318004-17.7234081-5.6088412-23.9529994 1.3895081l-40.8844542 45.9205928-14.9156739-14.9156739c-16.5261669-15.2754222-39.2789335 7.4403087-23.9926813 23.9939935-.0000815-.0001262 27.6282663 27.6276693 27.6282663 27.6276693 6.5696949 6.8472044 18.5114864 6.4995583 24.6676191-.715423.0000161.000235 52.8394315-59.3476674 52.8394315-59.3476674 6.2306958-6.9983494 5.608289-17.7223036-1.3895081-23.9529994z" fill="#93cf00"/><path d="m371.2331505 174.9174898c-1.3540039 0-2.5605469-.4482422-3.3110352-1.2304688l-27.6044922-27.6079102c-2.2319336-2.4995117-1.8476562-4.2695312-1.3569336-5.390625.8393555-1.9179688 2.8554688-3.3642578 4.6894531-3.3642578 1.1635742 0 2.4033203.581543 3.6875 1.7294922l23.7114258 23.7119141 49.3408203-55.418457c1.2890625-1.4477539 2.8803711-1.6640625 3.7138672-1.6640625.8598633 0 2.1289062.2182617 3.2963867 1.2578125 1.3369141 1.1904297 1.6113281 2.6542969 1.6557617 3.4213867.0444336.7666016-.0585938 2.2524414-1.2485352 3.5888672 0 .0004883-33.8100586 37.9750977-47.3369141 53.1679688l-.1757812-.0668945-5.4931641 6.4375c-.7626953.894043-2.0966797 1.4277344-3.5683594 1.4277344z" fill="#abe200"/></g></g></svg>