<svg width="28" height="28" viewBox="0 0 28 28" fill="none" xmlns="http://www.w3.org/2000/svg">
<path d="M13.7422 15.0053C13.7422 15.17 13.6768 15.328 13.5603 15.4445C13.4438 15.561 13.2857 15.6265 13.121 15.6265H8.1513C7.98654 15.6265 7.82853 15.561 7.71203 15.4445C7.59553 15.328 7.53009 15.17 7.53009 15.0053C7.53009 14.8405 7.59553 14.6825 7.71203 14.566C7.82853 14.4495 7.98654 14.3841 8.1513 14.3841H13.121C13.2857 14.3841 13.4438 14.4495 13.5603 14.566C13.6768 14.6825 13.7422 14.8405 13.7422 15.0053ZM13.121 11.0709H8.1513C7.98654 11.0709 7.82853 11.1364 7.71203 11.2529C7.59553 11.3694 7.53009 11.5274 7.53009 11.6921C7.53009 11.8569 7.59553 12.0149 7.71203 12.1314C7.82853 12.2479 7.98654 12.3134 8.1513 12.3134H13.121C13.2857 12.3134 13.4438 12.2479 13.5603 12.1314C13.6768 12.0149 13.7422 11.8569 13.7422 11.6921C13.7422 11.5274 13.6768 11.3694 13.5603 11.2529C13.4438 11.1364 13.2857 11.0709 13.121 11.0709ZM24.5099 17.5543V24.1164C24.5101 24.2256 24.4816 24.3329 24.4272 24.4275C24.3728 24.5221 24.2944 24.6008 24.1999 24.6554C24.1054 24.7101 23.9982 24.739 23.889 24.739C23.7799 24.7391 23.6726 24.7104 23.5781 24.6558L20.9897 23.1752L18.4013 24.6558C18.3068 24.7104 18.1995 24.7391 18.0903 24.739C17.9812 24.739 17.8739 24.7101 17.7795 24.6554C17.685 24.6008 17.6066 24.5221 17.5522 24.4275C17.4977 24.3329 17.4692 24.2256 17.4695 24.1164V21.4245H4.83817C4.45374 21.4245 4.08505 21.2717 3.81322 20.9999C3.54139 20.7281 3.38867 20.3594 3.38867 19.975V6.72244C3.38867 6.33801 3.54139 5.96933 3.81322 5.6975C4.08505 5.42566 4.45374 5.27295 4.83817 5.27295H23.0604C23.4448 5.27295 23.8135 5.42566 24.0853 5.6975C24.3572 5.96933 24.5099 6.33801 24.5099 6.72244V9.97138C25.0323 10.4551 25.4491 11.0417 25.7341 11.6941C26.0192 12.3465 26.1663 13.0509 26.1663 13.7628C26.1663 14.4748 26.0192 15.1792 25.7341 15.8316C25.4491 16.484 25.0323 17.0705 24.5099 17.5543ZM20.9897 9.8285C20.2115 9.82851 19.4509 10.0592 18.8039 10.4916C18.1569 10.9239 17.6526 11.5383 17.3548 12.2572C17.057 12.9761 16.9791 13.7672 17.1309 14.5304C17.2827 15.2936 17.6575 15.9946 18.2077 16.5448C18.7579 17.0951 19.4589 17.4698 20.2221 17.6216C20.9853 17.7734 21.7764 17.6955 22.4953 17.3977C23.2142 17.0999 23.8287 16.5957 24.261 15.9487C24.6933 15.3017 24.924 14.541 24.924 13.7628C24.924 12.7194 24.5095 11.7187 23.7717 10.9808C23.0338 10.243 22.0331 9.82851 20.9897 9.8285ZM17.4695 20.182V17.5543C16.563 16.7084 15.9903 15.5652 15.8554 14.3327C15.7206 13.1001 16.0326 11.8601 16.7347 10.8382C17.4368 9.81628 18.4824 9.08028 19.6812 8.76407C20.8801 8.44786 22.1527 8.57243 23.2675 9.11515V6.72244C23.2675 6.66753 23.2456 6.61486 23.2068 6.57602C23.168 6.53719 23.1153 6.51537 23.0604 6.51537H4.83817C4.78325 6.51537 4.73058 6.53719 4.69175 6.57602C4.65291 6.61486 4.6311 6.66753 4.6311 6.72244V19.975C4.6311 20.0299 4.65291 20.0826 4.69175 20.1214C4.73058 20.1602 4.78325 20.182 4.83817 20.182H17.4695ZM23.2675 18.4106C22.5586 18.7587 21.7794 18.9397 20.9897 18.9397C20.2 18.9397 19.4208 18.7587 18.7119 18.4106V23.0458L20.6791 21.9204C20.7735 21.8659 20.8806 21.8372 20.9897 21.8372C21.0987 21.8372 21.2058 21.8659 21.3003 21.9204L23.2675 23.0458V18.4106Z" fill="#3A4B15"/>
</svg>
