<svg id="Capa_1" enable-background="new 0 0 513.311 513.311" height="512" viewBox="0 0 513.311 513.311" width="512" xmlns="http://www.w3.org/2000/svg"><circle cx="63.362" cy="147.474" fill="#ffb69e" r="35.588"/><path d="m250.496 257.24h-49.116c-7.116 0-12.884-5.768-12.884-12.884v-26.249c0-7.116 5.768-12.884 12.884-12.884h49.116c7.116 0 12.884 5.768 12.884 12.884v26.249c0 7.116-5.769 12.884-12.884 12.884z" fill="#c43625"/><path d="m169.998 292.484c-3.275 0-6.556-1.206-9.119-3.638-5.313-5.038-5.534-13.428-.496-18.741l36.991-39.002c5.038-5.312 13.429-5.534 18.74-.496 5.313 5.038 5.534 13.428.496 18.741l-36.991 39.002c-2.607 2.748-6.111 4.134-9.621 4.134z" fill="#c43625"/><path d="m140.785 511.617c-22.936 0-41.529-18.593-41.529-41.528v-95.768c0-22.935 18.593-41.528 41.529-41.528s41.529 18.593 41.529 41.528v95.768c-.001 22.935-18.594 41.528-41.529 41.528z" fill="#373c41"/><path d="m22.757 114.652h-22.757v30.703h22.757c6.584 0 11.921-5.337 11.921-11.921v-6.861c-.001-6.583-5.338-11.921-11.921-11.921z" fill="#87a0af"/><path d="m192.873 286.776-24.794-144.83c-5.388-31.47-32.471-54.311-64.398-54.311h-103.681v33.671h103.681c15.473 0 28.599 11.07 31.211 26.322l21.425 125.153h-156.317v33.672h176.28c4.961 0 9.671-2.189 12.87-5.982s4.561-8.804 3.723-13.695z" fill="#e64937"/><path d="m105.368 195.443h-83.551c-8.104-.026-15.658 2.844-21.817 7.729v65.541h142.102v-32.533c-.03-22.399-16.526-40.674-36.734-40.737z" fill="#64afff"/><path d="m157.396 255.801h-157.396v177.015h195.463c12.574 0 22.767-10.193 22.767-22.768v-93.414c0-33.597-27.236-60.833-60.834-60.833z" fill="#e64937"/><ellipse id="XMLID_58_" cx="141.888" cy="335.398" fill="#ffe678" rx="36.431" ry="36.454"/><path d="m50.083 403.765h-50.083v57.367h50.083c6.434 0 11.651-5.216 11.651-11.651v-34.065c0-6.435-5.217-11.651-11.651-11.651z" fill="#87a0af"/><path d="m105.738 255.801h-18.063c0-13.406-10.907-24.313-24.313-24.313s-24.312 10.907-24.312 24.313h-18.063c0-23.366 19.009-42.375 42.375-42.375s42.376 19.009 42.376 42.375z" fill="#373c41"/><path d="m60.304 324.921h-60.304v23.426h60.304c6.469 0 11.713-5.244 11.713-11.713-.001-6.469-5.244-11.713-11.713-11.713z" fill="#f5876e"/><path d="m38.417 363.387h-38.417v23.426h38.417c6.469 0 11.713-5.245 11.713-11.713 0-6.469-5.244-11.713-11.713-11.713z" fill="#f5876e"/><path d="m444.026 511.617c-12.72 0-23.033-10.312-23.033-23.033v-184.101c0-12.72 10.312-23.033 23.033-23.033 12.72 0 23.033 10.312 23.033 23.033v184.102c0 12.72-10.313 23.032-23.033 23.032z" fill="#373c41"/><path d="m388.425 511.617c-12.72 0-23.033-10.312-23.033-23.033v-184.101c0-12.72 10.312-23.033 23.033-23.033s23.033 10.312 23.033 23.033v184.102c-.001 12.72-10.313 23.032-23.033 23.032z" fill="#50555a"/><path d="m513.31 165.737c-.125-24.92-20.674-45.194-45.806-45.194-12.012 0-84.816 0-95.517 0-23.299 0-44.578 12.774-55.533 33.336l-28.805 54.064c-3.635 6.822-2.823 15.159 2.06 21.151 4.9 6.013 12.912 8.463 20.3 6.287l55.382-16.304v85.407h101.666v-62.361l23.708 4.203c5.488.975 11.257-.481 15.681-4.19 4.35-3.646 6.863-9.032 6.863-14.709zm-170.283 19.907 7.307-13.714c3.207-6.019 8.683-10.326 15.058-12.099v19.23zm131.896 18.887-7.864-1.394v-44.205h.446c4.002 0 7.399 3.205 7.418 6.902z" fill="#00558c"/><path d="m434.575 242.096-59.157 4.65c-4.934.388-9.249-3.298-9.637-8.232l-6.487-82.528c-.388-4.934 3.298-9.249 8.232-9.637l59.157-4.65c4.934-.388 9.249 3.298 9.637 8.232l6.487 82.528c.388 4.934-3.297 9.249-8.232 9.637z" fill="#b4d7dc"/><path d="m449.66 217.499-4.224-18.196-6.96-1.234c-10.441-1.854-20.399 5.111-22.25 15.549s5.111 20.399 15.549 22.249l7.677 1.361z" fill="#ffb69e"/><path d="m439.452 237.228 12.726 2.256 5.751-37.966-12.492-2.215z" fill="#fff"/><circle id="XMLID_46_" cx="416.021" cy="94.988" fill="#ffb69e" r="39.78"/><path d="m375.159 53.23c1.264-3.405 18.86-6.109 40.582-6.109 21.739 0 39.334 2.703 40.583 6.109h.243v22.889c-.016 9.277-18.281 21.365-40.827 21.365s-40.795-12.088-40.811-21.365v-22.889z" fill="#373c41"/><path d="m456.924 15.637c-11.69-8.992-26.316-13.943-41.183-13.943-14.861 0-29.485 4.951-41.177 13.943-11.38 8.751-18.174 20.228-18.174 30.7 0 25.874 35.716 25.874 59.351 25.874s59.352 0 59.352-25.874c0-10.473-6.793-21.95-18.169-30.7z" fill="#00558c"/><ellipse cx="415.741" cy="59.064" fill="#ffc305" rx="13.649" ry="19.987"/></svg>