<svg width="28" height="28" viewBox="0 0 28 28" fill="none" xmlns="http://www.w3.org/2000/svg">
<path fill-rule="evenodd" clip-rule="evenodd" d="M9.58525 10.571C9.58554 8.97391 10.0805 7.41611 11.002 6.11172C11.9236 4.80732 13.2265 3.82036 14.7317 3.2865C16.237 2.75263 17.8706 2.69806 19.4081 3.13029C20.9456 3.56252 22.3115 4.46033 23.318 5.70032C24.3245 6.94031 24.9223 8.46162 25.0292 10.0551C25.1361 11.6486 24.7468 13.2361 23.9148 14.5994C23.0829 15.9627 21.8491 17.0349 20.3831 17.6686C18.9171 18.3022 17.2908 18.4663 15.7278 18.1382L14.0028 19.8632C13.5886 20.2775 13.0269 20.5103 12.4412 20.5104H11.794C11.794 21.0962 11.5613 21.658 11.1471 22.0722C10.7328 22.4864 10.171 22.7192 9.58525 22.7192C9.58525 23.305 9.35254 23.8668 8.93832 24.281C8.5241 24.6952 7.96229 24.9279 7.37649 24.9279H5.16774C4.58194 24.9279 4.02014 24.6952 3.60591 24.281C3.19169 23.8668 2.95898 23.305 2.95898 22.7192V19.8632C2.95911 19.2775 3.1919 18.7158 3.60615 18.3016L9.74869 12.1591C9.63955 11.6368 9.58478 11.1046 9.58525 10.571ZM17.3159 7.25788C17.023 7.25788 16.7421 7.37423 16.535 7.58134C16.3279 7.78845 16.2115 8.06935 16.2115 8.36225C16.2115 8.65515 16.3279 8.93605 16.535 9.14316C16.7421 9.35028 17.023 9.46663 17.3159 9.46663C17.6088 9.46663 17.8897 9.58298 18.0968 9.79009C18.3039 9.9972 18.4203 10.2781 18.4203 10.571C18.4203 10.8639 18.5366 11.1448 18.7437 11.3519C18.9508 11.559 19.2317 11.6754 19.5246 11.6754C19.8175 11.6754 20.0984 11.559 20.3056 11.3519C20.5127 11.1448 20.629 10.8639 20.629 10.571C20.629 9.69231 20.28 8.8496 19.6586 8.22827C19.0373 7.60694 18.1946 7.25788 17.3159 7.25788Z" fill="white"/>
</svg>
