<svg height="512" viewBox="0 0 512 512" width="512" xmlns="http://www.w3.org/2000/svg"><g id="_x32_3_Fast_delivery"><path d="m492.365 202.52-40.37-72.8c-4.4-7.93-12.76-12.85-21.82-12.85h-94.88v-19.45c0-8.81-7.16-15.97-15.97-15.97h-259.5c-3.86 0-7 3.13-7 7 0 3.86 3.14 7 7 7h259.5c1.09 0 1.97.88 1.97 1.97v214h-261.47c-3.86 0-7 3.14-7 7v43.6c0 8.8 7.17 15.97 15.98 15.97h13.53c3.48 29.55 28.69 52.56 59.16 52.56 30.48 0 55.69-23.01 59.16-52.56h121.05c3.47 29.55 28.68 52.56 59.16 52.56 30.47 0 55.68-23.01 59.16-52.56h54.13c8.81 0 15.97-7.17 15.97-15.97v-90.84c0-23.96-6.14-47.71-17.76-68.66zm-425.54 159.5v-36.6h36.35c-11.3 9.52-19.03 23.15-20.84 38.57h-13.53c-1.09 0-1.98-.89-1.98-1.97zm74.67 54.53c-25.12 0-45.57-20.44-45.57-45.56 0-25.13 20.45-45.57 45.57-45.57 25.13 0 45.57 20.44 45.57 45.57 0 25.12-20.44 45.56-45.57 45.56zm179.8-52.56h-120.64c-1.81-15.42-9.53-29.05-20.84-38.57h141.48zm59.57 52.56c-25.13 0-45.57-20.44-45.57-45.56 0-25.13 20.44-45.57 45.57-45.57 25.12 0 45.57 20.44 45.57 45.57 0 25.12-20.45 45.56-45.57 45.56zm115.26-85.1c-7.54-2.84-12.92-10.13-12.92-18.65v-21.38c0-1.09.89-1.97 1.97-1.97h10.95zm0-56h-10.95c-8.8 0-15.97 7.16-15.97 15.97v21.38c0 16.31 11.57 29.96 26.92 33.19v16.03c0 1.08-.88 1.97-1.97 1.97h-54.13c-3.48-29.56-28.69-52.57-59.16-52.57-18.27 0-34.64 8.26-45.57 21.25v-201.8h94.88c3.98 0 7.65 2.16 9.57 5.64l40.37 72.8c10.47 18.88 16.01 40.28 16.01 61.87zm-115.261 118.211c-12.502 0-22.673-10.171-22.673-22.673s10.171-22.673 22.673-22.673 22.673 10.171 22.673 22.673-10.171 22.673-22.673 22.673zm0-31.345c-4.782 0-8.673 3.891-8.673 8.673s3.891 8.673 8.673 8.673 8.673-3.891 8.673-8.673-3.891-8.673-8.673-8.673zm-239.368 31.345c-12.502 0-22.673-10.171-22.673-22.673s10.171-22.673 22.673-22.673 22.673 10.171 22.673 22.673-10.171 22.673-22.673 22.673zm0-31.345c-4.782 0-8.673 3.891-8.673 8.673s3.891 8.673 8.673 8.673 8.673-3.891 8.673-8.673-3.891-8.673-8.673-8.673zm323.654-111.38c-1.187 0-2.383-.132-3.57-.403l-105.437-24.103c-7.31-1.671-12.414-8.074-12.414-15.571v-55.583c0-8.808 7.166-15.974 15.974-15.974h62.547c5.802 0 11.155 3.152 13.97 8.227l36.524 65.867c2.845 5.131 5.332 10.533 7.392 16.056 2.041 5.471.912 11.607-2.946 16.014-3.084 3.521-7.486 5.47-12.04 5.47zm-105.447-97.634c-1.088 0-1.974.886-1.974 1.974v55.583c0 .926.631 1.717 1.533 1.923l105.438 24.102c1.012.23 1.659-.304 1.956-.642.343-.391.684-1.037.362-1.897-1.817-4.873-4.011-9.637-6.519-14.16l-36.524-65.866c-.348-.627-1.009-1.017-1.726-1.017zm-152.838-37.912c-48.55 0-88.04 39.5-88.04 88.04 0 48.55 39.49 88.04 88.04 88.04 48.54 0 88.04-39.49 88.04-88.04 0-48.54-39.5-88.04-88.04-88.04zm0 162.08c-40.83 0-74.04-33.21-74.04-74.04 0-40.82 33.21-74.04 74.04-74.04 40.82 0 74.04 33.22 74.04 74.04 0 40.83-33.22 74.04-74.04 74.04zm39.32-51.33c-1.48 2.57-4.17 4-6.93 4-1.36 0-2.73-.34-3.99-1.07l-32.4-18.71c-2.39-1.38-4-3.97-4-6.93v-41.66c0-4.41 3.58-8 8-8s8 3.59 8 8v37.05l28.4 16.39c3.82 2.21 5.13 7.1 2.92 10.93zm-163.136-96.745h-74.165c-3.866 0-7-3.134-7-7s3.134-7 7-7h74.165c3.866 0 7 3.134 7 7s-3.134 7-7 7zm0 54.027h-74.165c-3.866 0-7-3.134-7-7s3.134-7 7-7h74.165c3.866 0 7 3.134 7 7s-3.134 7-7 7zm0 54.026h-74.165c-3.866 0-7-3.134-7-7s3.134-7 7-7h74.165c3.866 0 7 3.134 7 7s-3.134 7-7 7zm0 54.027h-74.165c-3.866 0-7-3.134-7-7s3.134-7 7-7h74.165c3.866 0 7 3.134 7 7s-3.134 7-7 7z"/></g></svg>