<svg height="512pt" viewBox="0 -71 512 511" width="512pt" xmlns="http://www.w3.org/2000/svg"><path d="m499.511719.5h-487.023438c-6.867187 0-12.488281 5.621094-12.488281 12.488281v343.425781c0 6.871094 5.621094 12.488282 12.488281 12.488282h487.023438c6.867187 0 12.488281-5.617188 12.488281-12.488282v-343.425781c0-6.867187-5.621094-12.488281-12.488281-12.488281zm0 0" fill="#edebed"/><path d="m30.90625 357.707031v-346.007812c0-4.875 2.8125-9.109375 6.886719-11.199219h-25.304688c-6.867187 0-12.488281 5.621094-12.488281 12.488281v343.425781c0 6.871094 5.621094 12.488282 12.488281 12.488282h25.308594c-4.078125-2.085938-6.890625-6.324219-6.890625-11.195313zm0 0" fill="#e0d9d5"/><path d="m499.511719.5h-487.023438c-6.871093 0-12.488281 5.621094-12.488281 12.488281v43.996094h512v-43.996094c0-6.867187-5.621094-12.488281-12.488281-12.488281zm0 0" fill="#71aae2"/><path d="m37.796875.5h-25.308594c-6.871093 0-12.488281 5.621094-12.488281 12.488281v43.996094h30.90625v-45.285156c0-4.875 2.8125-9.109375 6.890625-11.199219zm0 0" fill="#6397d6"/><path d="m219.386719 92.925781h-171.648438c-7.40625 0-13.414062 6.007813-13.414062 13.417969v210.5625c4.164062-17.664062 20.234375-24.277344 20.234375-24.277344l57.292968-22.210937 21.683594 26.761719 21.679688-26.761719 57.355468 22.210937s16.070313 6.613282 20.234376 24.277344v-210.5625c0-7.410156-6.007813-13.417969-13.417969-13.417969zm0 0" fill="#71aae2"/><path d="m65.234375 92.925781h-17.496094c-7.40625 0-13.414062 6.007813-13.414062 13.417969v210.5625c4.164062-17.664062 20.234375-24.277344 20.234375-24.277344l10.675781-4.136718zm0 0" fill="#6397d6"/><path d="m134.117188 254.550781c-8.609376 0-16.148438-2.765625-22.261719-7.363281v22.46875l21.679687 30.460938 21.679688-30.460938v-22.382812c-6.046875 4.589843-13.300782 7.277343-21.097656 7.277343zm0 0" fill="#f4bda4"/><path d="m138.214844 254.296875c-1.347656.164063-2.714844.253906-4.097656.253906-8.609376 0-16.148438-2.765625-22.261719-7.363281v22.46875l21.679687 30.460938 4.683594-6.578126v-39.242187zm0 0" fill="#efa78b"/><path d="m232.804688 320.25v-5.402344c-4.164063-17.664062-20.234376-24.277344-20.234376-24.277344l-57.355468-22.214843-21.679688 26.761719-21.683594-26.761719-57.292968 22.214843s-16.070313 6.613282-20.234375 24.273438v5.40625c0 7.410156 6.003906 13.414062 13.414062 13.414062h171.648438c7.410156 0 13.417969-6.003906 13.417969-13.414062zm0 0" fill="#fc5f61"/><path d="m65.234375 286.429688-10.675781 4.140624s-16.070313 6.613282-20.234375 24.273438v5.40625c0 7.410156 6.007812 13.414062 13.414062 13.414062h17.496094zm0 0" fill="#ef4d55"/><g fill="#cec8c6"><path d="m435.617188 114.183594h-124.878907c-4.265625 0-7.726562-3.460938-7.726562-7.730469 0-4.265625 3.460937-7.726563 7.726562-7.726563h124.878907c4.269531 0 7.726562 3.460938 7.726562 7.726563 0 4.269531-3.457031 7.730469-7.726562 7.730469zm0 0"/><path d="m435.617188 149.363281h-124.878907c-4.265625 0-7.726562-3.460937-7.726562-7.726562 0-4.269531 3.460937-7.726563 7.726562-7.726563h124.878907c4.269531 0 7.726562 3.457032 7.726562 7.726563 0 4.265625-3.457031 7.726562-7.726562 7.726562zm0 0"/><path d="m322.882812 184.542969h-38.730468c-4.269532 0-7.726563-3.457031-7.726563-7.726563 0-4.269531 3.457031-7.726562 7.726563-7.726562h38.730468c4.265626 0 7.726563 3.457031 7.726563 7.726562 0 4.269532-3.460937 7.726563-7.726563 7.726563zm0 0"/><path d="m322.882812 219.722656h-38.730468c-4.269532 0-7.726563-3.457031-7.726563-7.726562 0-4.269532 3.457031-7.726563 7.726563-7.726563h38.730468c4.265626 0 7.726563 3.457031 7.726563 7.726563 0 4.269531-3.460937 7.726562-7.726563 7.726562zm0 0"/><path d="m322.882812 254.902344h-38.730468c-4.269532 0-7.726563-3.457032-7.726563-7.726563 0-4.265625 3.457031-7.726562 7.726563-7.726562h38.730468c4.265626 0 7.726563 3.460937 7.726563 7.726562 0 4.269531-3.460937 7.726563-7.726563 7.726563zm0 0"/><path d="m322.882812 290.085938h-38.730468c-4.269532 0-7.726563-3.460938-7.726563-7.730469 0-4.265625 3.457031-7.726563 7.726563-7.726563h38.730468c4.265626 0 7.726563 3.460938 7.726563 7.726563 0 4.269531-3.460937 7.730469-7.726563 7.730469zm0 0"/><path d="m322.882812 325.265625h-38.730468c-4.269532 0-7.726563-3.460937-7.726563-7.730469 0-4.265625 3.457031-7.726562 7.726563-7.726562h38.730468c4.265626 0 7.726563 3.460937 7.726563 7.726562 0 4.269532-3.460937 7.730469-7.726563 7.730469zm0 0"/><path d="m466.492188 184.542969h-109.496094c-4.265625 0-7.726563-3.457031-7.726563-7.726563 0-4.269531 3.460938-7.726562 7.726563-7.726562h109.496094c4.265624 0 7.726562 3.457031 7.726562 7.726562 0 4.269532-3.460938 7.726563-7.726562 7.726563zm0 0"/><path d="m466.492188 219.722656h-109.496094c-4.265625 0-7.726563-3.457031-7.726563-7.726562 0-4.269532 3.460938-7.726563 7.726563-7.726563h109.496094c4.265624 0 7.726562 3.457031 7.726562 7.726563 0 4.269531-3.460938 7.726562-7.726562 7.726562zm0 0"/><path d="m466.492188 254.902344h-109.496094c-4.265625 0-7.726563-3.457032-7.726563-7.726563 0-4.265625 3.460938-7.726562 7.726563-7.726562h109.496094c4.265624 0 7.726562 3.460937 7.726562 7.726562 0 4.269531-3.460938 7.726563-7.726562 7.726563zm0 0"/><path d="m466.492188 290.085938h-109.496094c-4.265625 0-7.726563-3.460938-7.726563-7.730469 0-4.265625 3.460938-7.726563 7.726563-7.726563h109.496094c4.265624 0 7.726562 3.460938 7.726562 7.726563 0 4.269531-3.460938 7.730469-7.726562 7.730469zm0 0"/><path d="m466.492188 325.265625h-109.496094c-4.265625 0-7.726563-3.460937-7.726563-7.730469 0-4.265625 3.460938-7.726562 7.726563-7.726562h109.496094c4.265624 0 7.726562 3.460937 7.726562 7.726562 0 4.269532-3.460938 7.730469-7.726562 7.730469zm0 0"/></g><path d="m159.710938 308.867188 16.214843-32.488282-20.710937-8.023437-21.683594 26.761719 21.140625 15.011718c1.710937 1.21875 4.101563.617188 5.039063-1.261718zm0 0" fill="#ef4d55"/><path d="m107.386719 308.867188-16.210938-32.488282 20.707031-8.023437 21.683594 26.761719-21.140625 15.011718c-1.710937 1.21875-4.101562.617188-5.039062-1.261718zm0 0" fill="#ef4d55"/><path d="m155.117188 290.941406 13.953124-17.21875-13.855468-5.367187-21.679688 26.761719 21.136719 15.011718c1.710937 1.214844 4.101563.617188 5.039063-1.261718l2.980468-5.96875-6.574218-4.667969c-2.375-1.683594-2.832032-5.027344-1-7.289063zm0 0" fill="#e03f4f"/><path d="m114.539062 274.375 1.691407-.652344-4.347657-5.367187-20.710937 8.023437 16.214844 32.488282c.933593 1.878906 3.328125 2.480468 5.039062 1.261718l10.179688-7.230468-10.757813-21.5625c-1.328125-2.660157-.078125-5.886719 2.691406-6.960938zm0 0" fill="#e03f4f"/><path d="m177.640625 190.429688c-1.023437.550781-2.191406.863281-3.425781.863281-.984375 0-1.941406-.105469-2.867188-.300781v27.578124c0 .308594-.015625.613282-.023437.917969 10.035156 1.519531 17.898437-5.730469 17.898437-14.636719 0-6.941406-4.757812-12.84375-11.582031-14.421874zm0 0" fill="#f4bda4"/><path d="m95.78125 191.292969h-4.753906c-.875 0-1.722656-.109375-2.539063-.296875-5.882812 2.042968-10.582031 7.335937-10.582031 13.855468 0 8.894532 7.84375 16.160157 17.898438 14.636719-.007813-.304687-.023438-.609375-.023438-.917969zm0 0" fill="#f4bda4"/><path d="m182.300781 192.355469c-1.398437-.875-2.964843-1.535157-4.660156-1.925781-1.023437.550781-2.191406.863281-3.425781.863281-.984375 0-1.941406-.105469-2.867188-.300781v27.578124c0 .308594-.015625.613282-.023437.917969 4.171875.632813 7.964843-.253906 10.976562-2.144531zm0 0" fill="#efa78b"/><path d="m95.78125 217.347656c-4.238281-2.65625-6.921875-7.296875-6.921875-12.496094 0-5.085937 2.867187-9.417968 6.921875-12.050781v-1.503906h-4.753906c-.875 0-1.722656-.109375-2.539063-.300781-5.882812 2.042968-10.582031 7.335937-10.582031 13.855468 0 8.894532 7.84375 16.160157 17.898438 14.636719-.007813-.304687-.023438-.609375-.023438-.914062zm0 0" fill="#efa78b"/><path d="m161.144531 177.421875c0-.742187-.992187-.996094-1.34375-.34375-4.523437 8.460937-13.4375 14.21875-23.699219 14.21875h-41.125v27.277344c0 19.878906 15.578126 38.035156 39.136719 38.035156 20.976563 0 38.039063-17.0625 38.039063-38.035156v-27.582031c-6.265625-1.332032-11.007813-6.921876-11.007813-13.570313zm0 0" fill="#f9cbb4"/><path d="m119.105469 218.574219v-27.28125h-24.128907v27.28125c0 19.878906 15.578126 38.035156 39.136719 38.035156 4.074219 0 7.992188-.648437 11.671875-1.839844-16.433594-5.089843-26.679687-20.078125-26.679687-36.195312zm0 0" fill="#f4bda4"/><path d="m169.679688 141.226562c-3.632813.277344-6.96875-2.007812-7.667969-5.585937-1.179688-6.023437-4.160157-12-15.8125-12h-40.425781c-14.835938 0-26.863282 12.023437-26.863282 26.863281v30.285156c0 6.246094 5.066406 11.308594 11.3125 11.308594h45.878906c10.261719 0 19.175782-5.753906 23.699219-14.214844.351563-.65625 1.34375-.398437 1.34375.34375 0 7.628907 6.242188 13.871094 13.875 13.871094 3.996094 0 7.269531-3.269531 7.269531-7.269531v-31.570313c0-7.246093-6.324218-12.515624-12.609374-12.03125zm0 0" fill="#935d38"/><path d="m102.996094 181.769531v-31.582031c0-12.34375 7.988281-22.816406 19.074218-26.550781h-16.292968c-14.835938 0-26.863282 12.027343-26.863282 26.863281v30.285156c0 6.25 5.0625 11.3125 11.308594 11.3125h18.878906c-3.640624-2.007812-6.105468-5.878906-6.105468-10.328125zm0 0" fill="#7f4d2a"/></svg>