<svg width="28" height="28" viewBox="0 0 28 28" fill="none" xmlns="http://www.w3.org/2000/svg">
<path fill-rule="evenodd" clip-rule="evenodd" d="M7.37563 2.77295C6.49693 2.77295 5.65423 3.12201 5.03289 3.74334C4.41156 4.36468 4.0625 5.20738 4.0625 6.08608V21.5474C4.0625 22.4261 4.41156 23.2688 5.03289 23.8901C5.65423 24.5114 6.49693 24.8605 7.37563 24.8605H14.0019C14.8806 24.8605 15.7233 24.5114 16.3446 23.8901C16.966 23.2688 17.315 22.4261 17.315 21.5474V6.08608C17.315 5.20738 16.966 4.36468 16.3446 3.74334C15.7233 3.12201 14.8806 2.77295 14.0019 2.77295H7.37563ZM18.743 8.61842C18.9501 8.41138 19.2309 8.29507 19.5238 8.29507C19.8166 8.29507 20.0975 8.41138 20.3046 8.61842L24.7221 13.0359C24.9291 13.243 25.0454 13.5239 25.0454 13.8167C25.0454 14.1096 24.9291 14.3904 24.7221 14.5975L20.3046 19.015C20.0963 19.2162 19.8173 19.3275 19.5278 19.325C19.2382 19.3225 18.9612 19.2063 18.7564 19.0016C18.5517 18.7968 18.4355 18.5198 18.433 18.2303C18.4305 17.9407 18.5418 17.6617 18.743 17.4534L21.2753 14.9211H11.7931C11.5002 14.9211 11.2193 14.8047 11.0122 14.5976C10.8051 14.3905 10.6888 14.1096 10.6888 13.8167C10.6888 13.5238 10.8051 13.2429 11.0122 13.0358C11.2193 12.8287 11.5002 12.7123 11.7931 12.7123H21.2753L18.743 10.18C18.5359 9.9729 18.4196 9.69205 18.4196 9.39921C18.4196 9.10637 18.5359 8.82552 18.743 8.61842Z" fill="white"/>
</svg>
