<?xml version="1.0" encoding="UTF-8"?>
<svg xmlns="http://www.w3.org/2000/svg" width="512" height="512" viewBox="0 0 48 48"><title>sitting baby</title><path d="M26.024,14.3a1.577,1.577,0,0,1,2.953.005.5.5,0,0,1-.294.643.517.517,0,0,1-.175.031.5.5,0,0,1-.469-.326.576.576,0,0,0-1.079,0,.5.5,0,0,1-.936-.353Zm-6.709.644a.5.5,0,0,0,.644-.291.577.577,0,0,1,1.081,0,.5.5,0,0,0,.468.324.493.493,0,0,0,.176-.032.5.5,0,0,0,.293-.644,1.578,1.578,0,0,0-2.953,0A.5.5,0,0,0,19.315,14.946Zm-10.367,6.3a2.316,2.316,0,0,1,.238-2.2,2.45,2.45,0,0,1,4.284.484L14.625,22h2.658a7.294,7.294,0,0,1-1.949-3.1A2.977,2.977,0,0,1,13,16a3.007,3.007,0,0,1,2-2.821V12a9.011,9.011,0,0,1,9-9c.119,0,.234.013.351.018.063,0,.123-.018.188-.018a.49.49,0,0,1,.18.036A9.007,9.007,0,0,1,33,12v1.179A3.007,3.007,0,0,1,35,16a2.976,2.976,0,0,1-2.334,2.9A7.294,7.294,0,0,1,30.717,22h2.657l1.169-2.5a2.45,2.45,0,0,1,4.271-.452,2.3,2.3,0,0,1,.255,2.159l-1.939,4A5.024,5.024,0,0,1,32.616,28H30.977a57.709,57.709,0,0,1,.518,7H32a5,5,0,0,1,0,10H29.5a3.5,3.5,0,0,1-3.154-2.009c-.015,0-.028.009-.044.009H21.713a.373.373,0,0,1-.058-.012A3.494,3.494,0,0,1,18.5,45H16a5,5,0,0,1,0-10h.5a57.709,57.709,0,0,1,.518-7H15.384a5.023,5.023,0,0,1-4.513-2.787ZM32,36H16a4,4,0,0,0,0,8h2.5a2.5,2.5,0,0,0,0-5h-2a.5.5,0,0,1,0-1h2A3.5,3.5,0,0,1,22,41.5a3.443,3.443,0,0,1-.051.5h4.1A3.443,3.443,0,0,1,26,41.5,3.5,3.5,0,0,1,29.5,38h2a.5.5,0,0,1,0,1h-2a2.5,2.5,0,0,0,0,5H32a4,4,0,0,0,0-8ZM20,27.5A1.5,1.5,0,0,0,21.5,29h5A1.5,1.5,0,0,0,28,27.5V23.629A7.227,7.227,0,0,1,25.721,24H22.28A7.229,7.229,0,0,1,20,23.629ZM33,14.272V16.72a7.226,7.226,0,0,1-.084,1.047A1.982,1.982,0,0,0,34,16,2.006,2.006,0,0,0,33,14.272ZM15.084,17.767A7.226,7.226,0,0,1,15,16.72V14.272A2.006,2.006,0,0,0,14,16,1.982,1.982,0,0,0,15.084,17.767ZM22.28,23h3.441A6.286,6.286,0,0,0,32,16.72V12a8,8,0,0,0-7.652-7.982,2.079,2.079,0,0,0-2,1.982,2.106,2.106,0,0,0,2.193,2,1.064,1.064,0,0,0,1.115-1,1.064,1.064,0,0,0-1.115-1,.5.5,0,0,1,0-1,2.062,2.062,0,0,1,2.115,2,2.062,2.062,0,0,1-2.115,2,3.1,3.1,0,0,1-3.193-3,2.853,2.853,0,0,1,.583-1.718A8.006,8.006,0,0,0,16,12v4.72A6.287,6.287,0,0,0,22.28,23ZM9.864,20.851l1.906,3.925A4.02,4.02,0,0,0,15.384,27h1.783c.153-.992.273-1.585.276-1.6a.5.5,0,0,1,.98.2,55.126,55.126,0,0,0-.918,9.4H30.5a55.031,55.031,0,0,0-.918-9.4.5.5,0,1,1,.979-.2c0,.017.124.61.277,1.6h1.783a4.017,4.017,0,0,0,3.613-2.224l1.923-3.964a1.3,1.3,0,0,0-.162-1.2,1.45,1.45,0,0,0-2.527.279l-1.317,2.816a.5.5,0,0,1-.454.288H29.385c-.126.074-.254.144-.385.211V27.5A2.5,2.5,0,0,1,26.5,30h-5A2.5,2.5,0,0,1,19,27.5V23.211c-.131-.067-.259-.137-.385-.211H14.308a.5.5,0,0,1-.453-.288l-1.3-2.785A1.446,1.446,0,0,0,11.2,19a1.417,1.417,0,0,0-1.19.617A1.313,1.313,0,0,0,9.864,20.851ZM24,19a2,2,0,0,0,1.879-1.332.5.5,0,1,0-.942-.336.991.991,0,0,1-1.874,0,.5.5,0,1,0-.942.334A2,2,0,0,0,24,19Z"/></svg>
