<svg width="18" height="18" viewBox="0 0 18 18" fill="none" xmlns="http://www.w3.org/2000/svg">
<g clip-path="url(#clip0_788_4368)">
<path d="M11.0966 0.835373H10.2712C10.2232 0.835373 10.1798 0.806671 10.1609 0.762451C9.96992 0.314621 9.52512 0 9.00807 0C8.49103 0 8.04622 0.314758 7.85451 0.762589C7.83556 0.806808 7.7923 0.835373 7.74423 0.835373H6.91957C6.689 0.835373 6.50195 1.02242 6.50195 1.25313V2.92387C6.50195 3.15459 6.689 3.34149 6.91957 3.34149H11.0966C11.3273 3.34149 11.5142 3.15459 11.5142 2.92387V1.25313C11.5142 1.02242 11.3273 0.835373 11.0966 0.835373Z" fill="#E12C2C"/>
<path d="M14.0882 1.6709H12.569V2.70348C12.569 3.63855 11.8111 4.39661 10.8759 4.39661H7.14056C6.20549 4.39661 5.44743 3.63855 5.44743 2.70348V1.6709H3.93008C2.73024 1.6709 1.75781 2.64374 1.75781 3.84358V15.828C1.75781 17.0275 2.73024 18.0003 3.93008 18.0003H14.0882C15.288 18.0003 16.2605 17.0275 16.2605 15.828V3.84358C16.2605 2.6436 15.288 1.6709 14.0882 1.6709ZM4.09612 7.10117C4.30211 6.89517 4.63609 6.89517 4.84209 7.10117L5.00414 7.26363L5.89142 6.37621C6.09714 6.17021 6.43112 6.17021 6.63712 6.37621C6.84311 6.5822 6.84311 6.91618 6.63712 7.12218L5.39964 8.35979C5.2906 8.46869 5.14723 8.52321 5.00414 8.52321C4.86104 8.52321 4.71794 8.46869 4.60904 8.35979L4.09612 7.84686C3.88998 7.64073 3.88998 7.30675 4.09612 7.10117ZM4.08417 10.846C4.29016 10.64 4.62415 10.64 4.83014 10.846L4.99219 11.0085L5.87947 10.121C6.0856 9.91545 6.41917 9.91545 6.62517 10.121C6.83116 10.327 6.83116 10.661 6.62517 10.8671L5.3877 12.1046C5.28264 12.2101 5.14229 12.2684 4.99287 12.2684H4.99219C4.84319 12.2684 4.70256 12.2101 4.59709 12.1046L4.08417 11.5917C3.87845 11.386 3.87845 11.052 4.08417 10.846ZM6.70358 14.5746L5.46611 15.8125C5.35707 15.9215 5.2137 15.9761 5.0706 15.9761C4.92751 15.9761 4.78441 15.9215 4.67537 15.8125L4.16245 15.2996C3.95645 15.0936 3.95645 14.7599 4.16245 14.5539C4.36858 14.3479 4.70215 14.3479 4.90814 14.5539L5.0706 14.7163L5.95789 13.8291C6.1636 13.6229 6.49759 13.6229 6.70358 13.8291C6.90958 14.035 6.90958 14.369 6.70358 14.5746ZM7.91537 6.84518H13.4948C13.7862 6.84518 14.0221 7.08139 14.0221 7.37253C14.0221 7.66394 13.7862 7.89987 13.4948 7.89987H7.91537C7.62396 7.89987 7.38803 7.66394 7.38803 7.37253C7.38803 7.08139 7.62396 6.84518 7.91537 6.84518ZM7.90343 10.59H13.4828C13.7742 10.59 14.0102 10.8264 14.0102 11.1174C14.0102 11.4089 13.7742 11.6447 13.4828 11.6447H7.90343C7.61243 11.6447 7.37608 11.4089 7.37608 11.1174C7.37608 10.8262 7.61243 10.59 7.90343 10.59ZM13.5611 15.3526H7.98184C7.69043 15.3526 7.4545 15.1168 7.4545 14.8252C7.4545 14.5342 7.69043 14.2979 7.98184 14.2979H13.5611C13.8522 14.2979 14.0885 14.5342 14.0885 14.8252C14.0885 15.1168 13.8522 15.3526 13.5611 15.3526Z" fill="#E12C2C"/>
</g>
<defs>
<clipPath id="clip0_788_4368">
<rect width="18" height="18" fill="white"/>
</clipPath>
</defs>
</svg>
