<?xml version="1.0" encoding="UTF-8" standalone="no"?>
<!-- Created with Inkscape (http://www.inkscape.org/) -->

<svg
   version="1.1"
   id="svg3300"
   xml:space="preserve"
   width="682.66669"
   height="682.66669"
   viewBox="0 0 682.66669 682.66669"
   xmlns="http://www.w3.org/2000/svg"
   xmlns:svg="http://www.w3.org/2000/svg"><defs
     id="defs3304"><clipPath
       clipPathUnits="userSpaceOnUse"
       id="clipPath3314"><path
         d="M 0,512 H 512 V 0 H 0 Z"
         id="path3312" /></clipPath></defs><g
     id="g3306"
     transform="matrix(1.3333333,0,0,-1.3333333,0,682.66667)"><g
       id="g3308"><g
         id="g3310"
         clip-path="url(#clipPath3314)"><g
           id="g3316"
           transform="translate(245,501)"><path
             d="m 0,0 c -58.656,0 -112.489,-20.623 -154.668,-55 v -380 c 42.179,-34.377 96.012,-55 154.668,-55 135.31,0 245,109.69 245,245 C 245,-109.69 135.31,0 0,0"
             style="fill:#7255ce;fill-opacity:1;fill-rule:nonzero;stroke:none"
             id="path3318" /></g><g
           id="g3320"
           transform="translate(512,406)"><path
             d="m 0,0 v -300 c 0,-22.09 -17.91,-40 -40,-40 h -381.68 c -55.12,44.92 -90.32,113.35 -90.32,190 0,76.65 35.2,145.08 90.32,190 H -40 C -17.91,40 0,22.09 0,0"
             style="fill:#e9efff;fill-opacity:1;fill-rule:nonzero;stroke:none"
             id="path3322" /></g><g
           id="g3324"
           transform="translate(0,256)"><path
             d="M 0,0 C 0,-76.654 35.211,-145.075 90.332,-190 H 190 c -22.092,0 -40,17.909 -40,40 v 300 c 0,22.091 17.908,40 40,40 H 90.332 C 35.211,145.075 0,76.654 0,0"
             style="fill:#dae2fe;fill-opacity:1;fill-rule:nonzero;stroke:none"
             id="path3326" /></g><g
           id="g3328"
           transform="translate(472,386)"><path
             d="m 0,0 c 0,11.046 -8.954,20 -20,20 h -140 c -11.046,0 -20,-8.954 -20,-20 V -187.607 H 0 Z"
             style="fill:#ff4155;fill-opacity:1;fill-rule:nonzero;stroke:none"
             id="path3330" /></g><g
           id="g3332"
           transform="translate(332,386)"><path
             d="M 0,0 C 0,11.046 8.954,20 20,20 H -20 C -31.046,20 -40,11.046 -40,0 V -187.607 H 0 Z"
             style="fill:#e80054;fill-opacity:1;fill-rule:nonzero;stroke:none"
             id="path3334" /></g><g
           id="g3336"
           transform="translate(472,198.3945)"><path
             d="m 0,0 c -0.182,0.185 -0.363,0.365 -0.543,0.523 -12.068,10.656 -63.701,19.295 -65.033,19.516 h -48.848 c -1.332,-0.221 -52.965,-8.86 -65.033,-19.516 -0.18,-0.158 -0.361,-0.34 -0.543,-0.525 v -12.393 c 0,-11.045 8.954,-20 20,-20 h 140 c 11.046,0 20,8.955 20,20 z"
             style="fill:#ffdd40;fill-opacity:1;fill-rule:nonzero;stroke:none"
             id="path3338" /></g><g
           id="g3340"
           transform="translate(332,186)"><path
             d="M 0,0 V 27.279 C -15.316,23.714 -33.018,18.604 -39.457,12.918 -39.637,12.76 -39.818,12.578 -40,12.393 V 0 c 0,-11.046 8.954,-20 20,-20 H 20 C 8.954,-20 0,-11.046 0,0"
             style="fill:#ffc839;fill-opacity:1;fill-rule:nonzero;stroke:none"
             id="path3342" /></g><g
           id="g3344"
           transform="translate(406.4238,266.8018)"><path
             d="m 0,0 h -48.848 v -48.368 c 0,0 9.804,-10.357 24.313,-10.357 14.509,0 24.535,10.357 24.535,10.357 z"
             style="fill:#fcad6d;fill-opacity:1;fill-rule:nonzero;stroke:none"
             id="path3346" /></g><g
           id="g3348"
           transform="translate(357.5762,266.8018)"><path
             d="m 0,0 v -48.368 c 48.823,0 48.848,27.524 48.848,27.524 V 0 Z"
             style="fill:#fd995b;fill-opacity:1;fill-rule:nonzero;stroke:none"
             id="path3350" /></g><g
           id="g3352"
           transform="translate(424.1982,361.8013)"><path
             d="m 0,0 c -10.197,11.505 -24.545,18.773 -42.198,18.773 -17.654,0 -25.248,-2.906 -32.355,-6.185 -7.106,-3.279 -7.581,-17.562 -7.581,-17.562 -8.852,-9.646 -14.258,-22.507 -14.258,-36.631 V -57.107 H 11.995 v 15.502 C 11.995,-29.746 10.197,-11.505 0,0"
             style="fill:#5e5057;fill-opacity:1;fill-rule:nonzero;stroke:none"
             id="path3354" /></g><g
           id="g3356"
           transform="translate(327.8066,304.6938)"><path
             d="M 0,0 H 25.261 V 32.847 C 19.163,34.963 14.338,41.786 14.258,52.133 5.405,42.487 0,29.626 0,15.502 Z"
             style="fill:#4a3940;fill-opacity:1;fill-rule:nonzero;stroke:none"
             id="path3358" /></g><g
           id="g3360"
           transform="translate(420.6865,298.3291)"><path
             d="M 0,0 C 0,0 5.353,13.033 14.895,10.007 24.437,6.981 14.664,-21.261 -3.956,-23.04 Z"
             style="fill:#fcad6d;fill-opacity:1;fill-rule:nonzero;stroke:none"
             id="path3362" /></g><g
           id="g3364"
           transform="translate(343.3135,298.3291)"><path
             d="M 0,0 C 0,0 -5.353,13.033 -14.895,10.007 -24.437,6.981 -14.664,-21.261 3.956,-23.04 Z"
             style="fill:#fd995b;fill-opacity:1;fill-rule:nonzero;stroke:none"
             id="path3366" /></g><g
           id="g3368"
           transform="translate(350.4746,336.8125)"><path
             d="m 0,0 c -5.32,-1.772 -9.241,-6.329 -10.531,-11.786 -1.316,-5.568 -3.094,-14.184 -3.094,-20.093 0,-33.248 20.215,-72.241 45.15,-72.241 24.936,0 45.151,38.993 45.151,72.241 0,0.862 -0.018,1.074 -0.044,1.923 C 34.67,-29.955 18.809,6.266 0,0"
             style="fill:#f9ba8f;fill-opacity:1;fill-rule:nonzero;stroke:none"
             id="path3370" /></g><g
           id="g3372"
           transform="translate(392.3086,234.9331)"><path
             d="m 0,0 c -19.968,8.738 -34.842,41.481 -34.842,70 0,11.325 2.353,21.559 6.431,30.14 -4.571,2.298 -8.913,3.242 -13.423,1.739 -5.32,-1.772 -9.241,-6.329 -10.531,-11.786 -1.316,-5.567 -3.094,-14.184 -3.094,-20.093 0,-33.248 20.215,-72.24 45.15,-72.24 3.547,0 6.997,0.791 10.309,2.24"
             style="fill:#fcad6d;fill-opacity:1;fill-rule:nonzero;stroke:none"
             id="path3374" /></g><g
           id="g3376"
           transform="translate(75.4463,136)"><path
             d="m 0,0 h 381.554 c 8.284,0 15,-6.716 15,-15 0,-8.284 -6.716,-15 -15,-15 H 0 c -8.284,0 -15,6.716 -15,15 0,8.284 6.716,15 15,15"
             style="fill:#4b6496;fill-opacity:1;fill-rule:nonzero;stroke:none"
             id="path3378" /></g><g
           id="g3380"
           transform="translate(77,380.5747)"><path
             d="m 0,0 h 170 c 8.284,0 15,-6.716 15,-15 v 0 c 0,-8.285 -6.716,-15 -15,-15 H 0 c -8.284,0 -15,6.715 -15,15 v 0 c 0,8.284 6.716,15 15,15"
             style="fill:#bec8f7;fill-opacity:1;fill-rule:nonzero;stroke:none"
             id="path3382" /></g><g
           id="g3384"
           transform="translate(69.5,241)"><path
             d="m 0,0 h 185 c 4.143,0 7.5,-3.358 7.5,-7.5 0,-4.142 -3.357,-7.5 -7.5,-7.5 H 0 c -4.143,0 -7.5,3.358 -7.5,7.5 0,4.142 3.357,7.5 7.5,7.5"
             style="fill:#bec8f7;fill-opacity:1;fill-rule:nonzero;stroke:none"
             id="path3386" /></g><g
           id="g3388"
           transform="translate(69.5,211)"><path
             d="m 0,0 h 185 c 4.143,0 7.5,-3.358 7.5,-7.5 0,-4.142 -3.357,-7.5 -7.5,-7.5 H 0 c -4.143,0 -7.5,3.358 -7.5,7.5 0,4.142 3.357,7.5 7.5,7.5"
             style="fill:#bec8f7;fill-opacity:1;fill-rule:nonzero;stroke:none"
             id="path3390" /></g><g
           id="g3392"
           transform="translate(142.543,203.5)"><path
             d="m 0,0 c 0,4.142 3.357,7.5 7.5,7.5 h -80.543 c -4.143,0 -7.5,-3.358 -7.5,-7.5 0,-4.142 3.357,-7.5 7.5,-7.5 H 7.5 C 3.357,-7.5 0,-4.142 0,0"
             style="fill:#acbbef;fill-opacity:1;fill-rule:nonzero;stroke:none"
             id="path3394" /></g><g
           id="g3396"
           transform="translate(69.5,181)"><path
             d="m 0,0 h 185 c 4.143,0 7.5,-3.358 7.5,-7.5 0,-4.142 -3.357,-7.5 -7.5,-7.5 H 0 c -4.143,0 -7.5,3.358 -7.5,7.5 0,4.142 3.357,7.5 7.5,7.5"
             style="fill:#bec8f7;fill-opacity:1;fill-rule:nonzero;stroke:none"
             id="path3398" /></g><g
           id="g3400"
           transform="translate(142.543,173.5)"><path
             d="m 0,0 c 0,4.142 3.357,7.5 7.5,7.5 h -80.543 c -4.143,0 -7.5,-3.358 -7.5,-7.5 0,-4.142 3.357,-7.5 7.5,-7.5 H 7.5 C 3.357,-7.5 0,-4.142 0,0"
             style="fill:#acbbef;fill-opacity:1;fill-rule:nonzero;stroke:none"
             id="path3402" /></g><g
           id="g3404"
           transform="translate(142.543,233.5)"><path
             d="m 0,0 c 0,4.142 3.357,7.5 7.5,7.5 h -80.543 c -4.143,0 -7.5,-3.358 -7.5,-7.5 0,-4.142 3.357,-7.5 7.5,-7.5 H 7.5 C 3.357,-7.5 0,-4.142 0,0"
             style="fill:#acbbef;fill-opacity:1;fill-rule:nonzero;stroke:none"
             id="path3406" /></g><g
           id="g3408"
           transform="translate(135.2959,121)"><path
             d="m 0,0 c 0,8.284 6.716,15 15,15 h -74.85 c -8.284,0 -15,-6.716 -15,-15 0,-8.284 6.716,-15 15,-15 H 15 C 6.716,-15 0,-8.284 0,0"
             style="fill:#3c5082;fill-opacity:1;fill-rule:nonzero;stroke:none"
             id="path3410" /></g><g
           id="g3412"
           transform="translate(135.2959,365.5747)"><path
             d="m 0,0 c 0,8.284 6.716,15 15,15 h -74.85 c -8.284,0 -15,-6.716 -15,-15 0,-8.285 6.716,-15 15,-15 H 15 C 6.716,-15 0,-8.285 0,0"
             style="fill:#acbbef;fill-opacity:1;fill-rule:nonzero;stroke:none"
             id="path3414" /></g></g></g></g></svg>
