<svg width="20" height="20" viewBox="0 0 20 20" fill="none" xmlns="http://www.w3.org/2000/svg">
<path d="M11.2293 3.86328C10.7449 3.8639 10.2617 3.9122 9.78667 4.00749C10.0411 4.81105 10.0699 5.66904 9.87009 6.48788C9.67024 7.30671 9.24935 8.05494 8.65335 8.65094C8.05735 9.24694 7.30912 9.66783 6.49029 9.86768C5.67145 10.0675 4.81345 10.0387 4.0099 9.78426C3.71243 11.2732 3.88249 12.8177 4.4968 14.2062C5.11111 15.5947 6.13962 16.7594 7.44149 17.5407C8.74337 18.3221 10.2549 18.6819 11.7692 18.5708C13.2835 18.4598 14.7264 17.8834 15.9005 16.9206C17.0745 15.9577 17.9221 14.6555 18.3274 13.1922C18.7326 11.729 18.6756 10.1762 18.1642 8.74658C17.6527 7.31697 16.7119 6.0804 15.4704 5.20621C14.229 4.33203 12.7477 3.86297 11.2293 3.86328ZM14.9111 11.8406H11.2293C11.0666 11.8406 10.9105 11.7759 10.7954 11.6608C10.6803 11.5457 10.6157 11.3897 10.6157 11.2269V7.5451C10.6157 7.38235 10.6803 7.22627 10.7954 7.11119C10.9105 6.99611 11.0666 6.93146 11.2293 6.93146C11.3921 6.93146 11.5482 6.99611 11.6632 7.11119C11.7783 7.22627 11.843 7.38235 11.843 7.5451V10.6133H14.9111C15.0739 10.6133 15.23 10.6779 15.3451 10.793C15.4601 10.9081 15.5248 11.0642 15.5248 11.2269C15.5248 11.3897 15.4601 11.5457 15.3451 11.6608C15.23 11.7759 15.0739 11.8406 14.9111 11.8406Z" fill="#E12C2C"/>
<path d="M9.38743 5.39782C9.38743 4.60894 9.1535 3.83778 8.71522 3.18185C8.27695 2.52592 7.65401 2.01469 6.92518 1.7128C6.19635 1.41091 5.39437 1.33192 4.62065 1.48582C3.84693 1.63972 3.13622 2.01961 2.5784 2.57743C2.02058 3.13525 1.6407 3.84595 1.4868 4.61967C1.3329 5.39339 1.41188 6.19537 1.71377 6.9242C2.01567 7.65303 2.5269 8.27597 3.18283 8.71425C3.83875 9.15252 4.60992 9.38645 5.39879 9.38645C6.45625 9.38516 7.47002 8.96451 8.21775 8.21677C8.96548 7.46904 9.38613 6.45527 9.38743 5.39782ZM4.78516 3.86373C4.78516 3.70098 4.84981 3.5449 4.96489 3.42982C5.07997 3.31474 5.23605 3.25009 5.39879 3.25009C5.56154 3.25009 5.71762 3.31474 5.8327 3.42982C5.94778 3.5449 6.01243 3.70098 6.01243 3.86373V5.091C6.01243 5.25375 5.94778 5.40983 5.8327 5.52491C5.71762 5.63999 5.56154 5.70464 5.39879 5.70464C5.23605 5.70464 5.07997 5.63999 4.96489 5.52491C4.84981 5.40983 4.78516 5.25375 4.78516 5.091V3.86373ZM4.78516 6.93191C4.78516 6.81054 4.82115 6.6919 4.88857 6.59099C4.956 6.49008 5.05184 6.41143 5.16397 6.36498C5.27609 6.31854 5.39948 6.30639 5.51851 6.33006C5.63754 6.35374 5.74688 6.41218 5.8327 6.498C5.91852 6.58382 5.97696 6.69316 6.00064 6.81219C6.02432 6.93123 6.01217 7.05461 5.96572 7.16674C5.91928 7.27886 5.84062 7.3747 5.73971 7.44213C5.6388 7.50956 5.52016 7.54555 5.39879 7.54555C5.23605 7.54555 5.07997 7.48089 4.96489 7.36582C4.84981 7.25074 4.78516 7.09466 4.78516 6.93191Z" fill="#E12C2C"/>
</svg>
