<?xml version="1.0" encoding="UTF-8" standalone="no"?>
<!-- Created with Inkscape (http://www.inkscape.org/) -->

<svg
   version="1.1"
   id="svg5187"
   xml:space="preserve"
   width="682.66669"
   height="682.66669"
   viewBox="0 0 682.66669 682.66669"
   xmlns="http://www.w3.org/2000/svg"
   xmlns:svg="http://www.w3.org/2000/svg"><defs
     id="defs5191"><clipPath
       clipPathUnits="userSpaceOnUse"
       id="clipPath5201"><path
         d="M 0,512 H 512 V 0 H 0 Z"
         id="path5199" /></clipPath></defs><g
     id="g5193"
     transform="matrix(1.3333333,0,0,-1.3333333,0,682.66667)"><g
       id="g5195"><g
         id="g5197"
         clip-path="url(#clipPath5201)"><g
           id="g5203"
           transform="translate(47.2588,127.5117)"><path
             d="m 0,0 c -2.812,-3.874 -5.434,-7.885 -7.849,-12.017 -22.57,-38.93 -28.48,-86.31 -29.299,-93.89 -0.081,-0.56 -0.121,-0.909 -0.111,-1.02 0,-0.02 0,-0.04 0.02,-0.04 h 491.98 v 0.04 c 0.01,0.111 -0.03,0.46 -0.11,1.02 -0.819,7.58 -6.73,54.96 -29.3,93.89 -9.439,16.14 -21.939,30.09 -36.58,41.67 -36.38,29.821 -84.76,29.821 -84.76,29.821 -6.519,0.42 -13.07,0.54 -19.61,0.549 l -12.279,0.01 v -0.349 c -0.21,-34.821 -28.491,-62.981 -63.361,-62.981 -34.86,0 -63.15,28.16 -63.36,62.981 v 0.42 l -12.239,0.009 c -3.641,-0.12 -7.731,-0.29 -11.681,-0.49 -0.06,0 -0.12,-0.01 -0.18,-0.01 h -0.03 C 118.808,59.606 95.355,59.316 69.61,51.099"
             style="fill:none;stroke:#000000;stroke-width:20;stroke-linecap:round;stroke-linejoin:round;stroke-miterlimit:10;stroke-dasharray:none;stroke-opacity:1"
             id="path5205" /></g><g
           id="g5207"
           transform="translate(82.8936,50.6553)"><path
             d="M 0,0 V -29.395"
             style="fill:none;stroke:#000000;stroke-width:20;stroke-linecap:round;stroke-linejoin:round;stroke-miterlimit:10;stroke-dasharray:none;stroke-opacity:1"
             id="path5209" /></g><g
           id="g5211"
           transform="translate(435.5576,50.6553)"><path
             d="M 0,0 V -29.395"
             style="fill:none;stroke:#000000;stroke-width:20;stroke-linecap:round;stroke-linejoin:round;stroke-miterlimit:10;stroke-dasharray:none;stroke-opacity:1"
             id="path5213" /></g><g
           id="g5215"
           transform="translate(163.335,291.4805)"><path
             d="m 0,0 h -12.1 c -8.049,0 -15.339,3.26 -20.61,8.54 -5.29,5.27 -8.54,12.56 -8.54,20.61 v 0.34 c 0,8.05 3.25,15.34 8.54,20.61 5.271,5.28 12.561,8.54 20.61,8.54 h 9.55 C -2.64,51.04 -2.58,25.13 -2.399,20.51 -1.982,14.226 -1.574,8.021 -0.38,1.82 -0.26,1.21 -0.13,0.6 0,0 Z"
             style="fill:none;stroke:#000000;stroke-width:20;stroke-linecap:round;stroke-linejoin:round;stroke-miterlimit:10;stroke-dasharray:none;stroke-opacity:1"
             id="path5217" /></g><g
           id="g5219"
           transform="translate(390.2158,320.8008)"><path
             d="m 0,0 c 0,-0.061 0.01,-0.12 0.01,-0.17 0,-8.051 -3.26,-15.341 -8.54,-20.61 -5.271,-5.281 -12.561,-8.54 -20.611,-8.54 h -12.42 c 0.021,0.099 0.04,0.19 0.061,0.29 0.109,0.48 0.22,0.969 0.31,1.45 1.4,6.814 1.889,13.777 2.07,20.72 0.059,2.79 0.18,28.79 0.099,36.179 h 9.88 c 8.05,0 15.34,-3.259 20.611,-8.54 C -3.25,15.51 0.01,8.22 0.01,0.17 0.01,0.12 0,0.06 0,0 Z"
             style="fill:none;stroke:#000000;stroke-width:20;stroke-linecap:round;stroke-linejoin:round;stroke-miterlimit:10;stroke-dasharray:none;stroke-opacity:1"
             id="path5221" /></g><g
           id="g5223"
           transform="translate(319.3604,241.7451)"><path
             d="m 0,0 v -54.55 c -0.21,-34.82 -28.49,-62.98 -63.36,-62.98 -34.861,0 -63.151,28.16 -63.361,62.98 v 54.529 c 6.861,-6.149 14.62,-11.309 23.061,-15.259 12.229,-5.741 25.88,-8.95 40.29,-8.95 14.41,0 28.069,3.209 40.309,8.95 C -14.62,-11.311 -6.86,-6.15 0,0 Z"
             style="fill:none;stroke:#000000;stroke-width:20;stroke-linecap:round;stroke-linejoin:round;stroke-miterlimit:10;stroke-dasharray:none;stroke-opacity:1"
             id="path5225" /></g><g
           id="g5227"
           transform="translate(351.1396,322.3252)"><path
             d="m 0,0 c 0.07,-10.391 -0.199,-20.79 -2.5,-30.88 -9.58,-42.32 -47.42,-73.931 -92.649,-73.931 -45.221,0 -83.061,31.611 -92.651,73.931 -2.46,11.23 -2.649,22.859 -2.53,34.44 -0.05,4.39 -0.09,14.98 -0.06,24.24 h 0.04 c 19.09,0 32.401,5.639 41.651,13 13.599,10.849 28.79,19.32 44.92,25.09 16.139,5.759 33.219,8.82 50.609,8.82 6.08,-19.461 27.746,-23.431 41.512,-23.916 6.565,-0.231 11.786,-5.609 11.71,-12.178 0,-0.042 -0.001,-0.084 -0.001,-0.127 C 0.131,31.26 0.181,7.26 0,0 Z"
             style="fill:none;stroke:#000000;stroke-width:20;stroke-linecap:round;stroke-linejoin:round;stroke-miterlimit:10;stroke-dasharray:none;stroke-opacity:1"
             id="path5229" /></g><g
           id="g5231"
           transform="translate(160.9551,311.5303)"><path
             d="M 0,0 C 0.101,-2.35 0.24,-4.7 0.45,-7.029 0.24,-4.7 0.09,-2.35 0,0 Z"
             style="fill:none;stroke:#000000;stroke-width:20;stroke-linecap:round;stroke-linejoin:round;stroke-miterlimit:10;stroke-dasharray:none;stroke-opacity:1"
             id="path5233" /></g><g
           id="g5235"
           transform="translate(386.8096,334.6748)"><path
             d="m 0,0 c -1.359,2.561 -3.09,4.89 -5.119,6.91 -5.271,5.28 -12.561,8.54 -20.61,8.54 h -9.81 v 10.915 c 0,6.54 -5.205,11.851 -11.742,12.077 -13.764,0.478 -35.471,4.435 -41.559,23.918 -17.389,0 -34.47,-3.06 -50.609,-8.82 -16.13,-5.769 -31.321,-14.24 -44.92,-25.09 -9.25,-7.36 -22.561,-13 -41.651,-13 h -9.549 c -8.05,0 -15.34,-3.26 -20.611,-8.54 v 23.05 c 0,69.73 51.55,126.52 121.271,126.811 1.139,0.009 7.04,0.009 8.199,0.009 64.95,0 88.561,-44.66 88.561,-44.66 0,0 38.139,-10.98 38.149,-112.12 z"
             style="fill:none;stroke:#000000;stroke-width:20;stroke-linecap:round;stroke-linejoin:round;stroke-miterlimit:10;stroke-dasharray:none;stroke-opacity:1"
             id="path5237" /></g><g
           id="g5239"
           transform="translate(297.9697,397.0352)"><path
             d="M 0,0 C 0,0 39.117,5.1 50.69,49.76"
             style="fill:none;stroke:#000000;stroke-width:20;stroke-linecap:round;stroke-linejoin:round;stroke-miterlimit:10;stroke-dasharray:none;stroke-opacity:1"
             id="path5241" /></g><g
           id="g5243"
           transform="translate(233.4561,327.8564)"><path
             d="M 0,0 C 0,13.97 11.806,25.183 25.985,24.205 37.949,23.38 47.644,13.686 48.469,1.721 49.246,-9.553 42.316,-19.327 32.422,-22.858 27.521,-24.607 24.264,-29.27 24.264,-34.474 v -6.322"
             style="fill:none;stroke:#000000;stroke-width:20;stroke-linecap:round;stroke-linejoin:round;stroke-miterlimit:10;stroke-dasharray:none;stroke-opacity:1"
             id="path5245" /></g><g
           id="g5247"
           transform="translate(257.7334,255.4434)"><path
             d="M 0,0 V 0"
             style="fill:none;stroke:#000000;stroke-width:20;stroke-linecap:round;stroke-linejoin:round;stroke-miterlimit:10;stroke-dasharray:none;stroke-opacity:1"
             id="path5249" /></g><g
           id="g5251"
           transform="translate(76.75,157.6953)"><path
             d="M 0,0 V 0"
             style="fill:none;stroke:#000000;stroke-width:20;stroke-linecap:round;stroke-linejoin:round;stroke-miterlimit:10;stroke-dasharray:none;stroke-opacity:1"
             id="path5253" /></g></g></g></g></svg>
