<?xml version="1.0" encoding="UTF-8"?>
<svg xmlns="http://www.w3.org/2000/svg" xmlns:xlink="http://www.w3.org/1999/xlink" version="1.1" id="color" x="0px" y="0px" viewBox="0 0 256 256" style="enable-background:new 0 0 256 256;" xml:space="preserve" width="512" height="512">
<style type="text/css">
	.st0{fill:#B5B5B5;}
	.st1{fill:#7A7A7A;}
	.st2{fill:#B52F28;}
	.st3{fill:#F2F2F2;}
	.st4{fill:#E24A47;}
</style>
<g>
	<g>
		<rect x="38.0282" y="124.3493" class="st0" width="180.9435" height="109.4806"/>
	</g>
	<g>
		<g>
			<rect x="121.0585" y="159.2182" class="st1" width="35.9345" height="54.3513"/>
		</g>
		<g>
			<rect x="136.2759" y="162.1883" class="st0" width="5.5" height="51.7013"/>
		</g>
		<g>
			<rect x="120.8834" y="184.9158" class="st0" width="36.285" height="5.5"/>
		</g>
		<g>
			<polygon class="st2" points="151.493,143.5872 126.5585,143.5872 121.0585,149.0872 121.0585,162.1882 156.993,162.1882      156.993,149.0872    "/>
		</g>
		<g>
			<g>
				<rect x="169.0283" y="159.2182" class="st1" width="35.9345" height="54.3513"/>
			</g>
			<g>
				<path class="st2" d="M204.9628,149.0872c-2.1479-2.1479-3.3521-3.3521-5.5-5.5h-24.9345c-2.1479,2.1479-3.3521,3.3521-5.5,5.5      v13.101h35.9345V149.0872z"/>
			</g>
			<g>
				<rect x="184.2454" y="162.1883" class="st0" width="5.5" height="51.7013"/>
			</g>
			<g>
				<rect x="168.8529" y="184.9158" class="st0" width="36.285" height="5.5"/>
			</g>
		</g>
	</g>
	<g>
		<polygon class="st2" points="195.2408,67.0567 61.7592,67.0567 38.0282,81.591 38.0282,95.013 56.8251,95.013 200.1748,95.013     218.9718,95.013 218.9718,81.591   "/>
	</g>
	<g>
		<g>
			<rect x="51.6867" y="143.5872" class="st2" width="56.2718" height="90.2428"/>
		</g>
		<g>
			<rect x="61.9374" y="154.9509" class="st1" width="35.7706" height="35.0007"/>
		</g>
		<g>
			<rect x="85.4656" y="197.4017" class="st3" width="13.7559" height="5.5"/>
		</g>
	</g>
	<g>
		<polygon class="st4" points="22.9446,89.2695 28.7099,127.4832 228.2901,127.4832 234.0554,89.2695   "/>
	</g>
	<g>
		<path class="st3" d="M53.6626,99.3376h-7.1301v18.0657h5.2707v-5.8596h1.4811c2.3716,0,4.3052-0.5704,5.7465-1.6951    c1.4813-1.1564,2.2322-2.6915,2.2322-4.5622C61.2629,101.3391,58.7058,99.3376,53.6626,99.3376z M51.8031,103.3353h1.1293    c2.5438,0,2.8381,1.1948,2.8381,2.0934c0,0.9241-0.2943,2.1527-2.8381,2.1527h-1.1293V103.3353z"/>
		<path class="st3" d="M71.949,99.0527c-2.9557,0-5.3708,0.8881-7.1785,2.6399c-1.8119,1.7555-2.7307,4.0783-2.7307,6.9032    c0,2.6861,0.9074,4.9009,2.6974,6.5826c1.7816,1.6734,4.1073,2.5217,6.9118,2.5217c2.877,0,5.25-0.8755,7.0522-2.6023    c1.8095-1.7333,2.7272-4.0367,2.7272-6.846c0-2.7382-0.8865-4.9811-2.6345-6.6669C77.0515,99.9045,74.7487,99.0527,71.949,99.0527    z M68.7089,104.7355c0.7718-0.8943,1.7934-1.3291,3.123-1.3291c1.2834,0,2.261,0.4197,2.9885,1.2831    c0.7401,0.8779,1.1156,2.1484,1.1156,3.7756c0,1.5504-0.3851,2.7669-1.1449,3.6158l-0.0003,0.0003    c-0.7536,0.8433-1.7558,1.2531-3.0637,1.2531c-1.2619,0-2.251-0.423-3.0231-1.2931c-0.7775-0.8768-1.1717-2.1039-1.1717-3.6472    C67.5323,106.8711,67.9282,105.6403,68.7089,104.7355z"/>
		<path class="st3" d="M95.2176,108.5208v-0.0003c-0.459-0.4342-1.013-0.8269-1.6465-1.1669    c-0.615-0.3303-1.3143-0.6451-2.08-0.9364c-0.5358-0.2011-1.0221-0.3988-1.4454-0.5873    c-0.4061-0.1805-0.7533-0.3658-1.0321-0.5511c-0.2508-0.1657-0.4428-0.3381-0.5704-0.5124    c-0.0994-0.1356-0.1456-0.2796-0.1456-0.4528c0-0.1533,0.0397-0.2809,0.126-0.4023c0.0999-0.1423,0.2519-0.2707,0.4506-0.3819    c0.2232-0.1238,0.5073-0.2229,0.8446-0.2943c0.6233-0.1329,1.3965-0.1485,2.2336-0.0462c0.3601,0.0443,0.7315,0.1139,1.103,0.2073    c0.365,0.0921,0.7259,0.2103,1.0715,0.3505c0.3424,0.1396,0.6588,0.301,0.9413,0.4796l0.8102,0.5113v-4.8802l-0.3542-0.1227    c-0.6639-0.2315-1.3976-0.4052-2.1809-0.5167c-0.7756-0.1098-1.6718-0.1654-2.6641-0.1654c-1.0245,0-2.0107,0.1021-2.9307,0.3029    c-0.9413,0.2052-1.7837,0.5323-2.5043,0.9724c-0.7423,0.4522-1.339,1.0396-1.7733,1.7459    c-0.4418,0.7178-0.6657,1.5791-0.6657,2.5601c0,1.2601,0.4077,2.3525,1.2117,3.2468c0.7716,0.8588,1.9411,1.5888,3.4772,2.1707    c0.5675,0.2113,1.0962,0.4179,1.5866,0.6217c0.467,0.1936,0.875,0.3964,1.2114,0.6024c0.307,0.1883,0.5487,0.3916,0.7187,0.6037    c0.1343,0.1676,0.1969,0.3454,0.1969,0.5597c0,0.1482-0.0368,0.2761-0.1163,0.4031c-0.0838,0.1351-0.2218,0.2589-0.4101,0.3679    c-0.2167,0.126-0.4992,0.2277-0.8395,0.3027c-0.3566,0.0784-0.7861,0.1182-1.2764,0.1182c-0.8454,0-1.6948-0.137-2.5247-0.4071    c-0.8274-0.2694-1.6041-0.6786-2.3088-1.2163l-0.8486-0.6475v5.1995l0.3051,0.1421c0.7176,0.3346,1.5727,0.5881,2.5419,0.7536    c0.951,0.1625,1.9664,0.2449,3.018,0.2449c1.0291,0,2.0219-0.091,2.9506-0.2707c0.9563-0.1848,1.8095-0.4955,2.5362-0.9233    c0.7498-0.441,1.353-1.028,1.7931-1.7445c0.4458-0.7254,0.6719-1.6226,0.6719-2.6665c0-0.7587-0.1289-1.4384-0.3832-2.0203    C96.0639,109.4946,95.6938,108.9717,95.2176,108.5208z"/>
		<polygon class="st3" points="97.2554,103.5134 102.5656,103.5134 102.5656,117.4033 107.8494,117.4033 107.8494,103.5134     113.1864,103.5134 113.1864,99.3376 97.2554,99.3376   "/>
		<path class="st3" d="M131.2902,99.0527c-2.9563,0-5.3714,0.8881-7.1785,2.6399c-1.8122,1.7558-2.7309,4.0785-2.7309,6.9032    c0,2.6858,0.9074,4.9006,2.6974,6.5826c1.7811,1.6734,4.1067,2.5217,6.9121,2.5217c2.877,0,5.2497-0.8755,7.052-2.6023    c1.8095-1.7333,2.7272-4.0367,2.7272-6.846c0-2.7379-0.8862-4.9811-2.6342-6.6669    C136.3919,99.9045,134.0891,99.0527,131.2902,99.0527z M134.1323,112.0811c-0.7546,0.8433-1.7569,1.2533-3.0642,1.2533    c-1.2625,0-2.2513-0.423-3.0231-1.2934c-0.7775-0.876-1.1717-2.1031-1.1717-3.647c0-1.5235,0.3959-2.7543,1.1765-3.6585    c0.7715-0.8943,1.7931-1.3291,3.1233-1.3291c1.2829,0,2.2604,0.4197,2.9885,1.2831c0.7401,0.8787,1.1153,2.149,1.1153,3.7756    C135.2769,110.0153,134.8918,111.2319,134.1323,112.0811z"/>
		<polygon class="st3" points="143.0859,117.4033 148.3566,117.4033 148.3566,110.7963 154.4238,110.7963 154.4238,106.6326     148.3566,106.6326 148.3566,103.5134 154.9584,103.5134 154.9584,99.3376 143.0859,99.3376   "/>
		<polygon class="st3" points="157.2495,117.4033 162.5199,117.4033 162.5199,110.7963 168.5871,110.7963 168.5871,106.6326     162.5199,106.6326 162.5199,103.5134 169.122,103.5134 169.122,99.3376 157.2495,99.3376   "/>
		<polygon class="st3" points="170.9466,103.3589 172.5123,103.3589 172.5123,113.3819 170.9466,113.3819 170.9466,117.4033     179.3486,117.4033 179.3486,113.3819 177.7829,113.3819 177.7829,103.3589 179.3486,103.3589 179.3486,99.3376 170.9466,99.3376       "/>
		<path class="st3" d="M190.5696,99.0527c-3.0712,0-5.6123,0.9007-7.5523,2.677c-1.9537,1.7878-2.9442,4.146-2.9442,7.0085    c0,2.6947,0.8862,4.8877,2.6337,6.5186c1.7378,1.6213,4.1374,2.4433,7.1323,2.4433c2.2639,0,4.1355-0.3182,5.5626-0.9461    l0.315-0.1394v-4.7231l-0.7761,0.4136c-1.2829,0.6829-2.7186,1.0294-4.2668,1.0294c-1.5729,0-2.8327-0.4434-3.7442-1.3178    c-0.905-0.8688-1.364-2.0638-1.364-3.5514c0-1.5557,0.4877-2.7986,1.4497-3.694c0.9722-0.9056,2.2822-1.3648,3.8938-1.3648    c1.5034,0,2.8585,0.3217,4.028,0.9561l0.7796,0.4232v-4.9564l-0.3607-0.1208C194.0541,99.2734,192.4438,99.0527,190.5696,99.0527z    "/>
		<polygon class="st3" points="203.4605,113.2396 203.4605,110.405 209.5798,110.405 209.5798,106.2411 203.4605,106.2411     203.4605,103.5134 210.0366,103.5134 210.0366,99.3376 198.1901,99.3376 198.1901,117.4033 210.4673,117.4033 210.4673,113.2396       "/>
	</g>
	<g>
		
			<rect x="89.6574" y="32.5826" transform="matrix(0.9694 0.2456 -0.2456 0.9694 17.5173 -29.8506)" class="st1" width="77.5368" height="45.433"/>
	</g>
	<g>
		<polygon class="st0" points="130.9815,48.1361 85.2653,67.7972 160.4268,86.8422   "/>
	</g>
	<g>
		<polyline class="st3" points="171.7347,42.215 133.2443,59.5948 123.4441,57.205 96.5733,23.1701   "/>
	</g>
</g>
</svg>
