<svg width="27" height="28" viewBox="0 0 27 28" fill="none" xmlns="http://www.w3.org/2000/svg">
<path fill-rule="evenodd" clip-rule="evenodd" d="M9.11173 8.36184C9.11173 7.19025 9.57714 6.06664 10.4056 5.23819C11.234 4.40975 12.3576 3.94434 13.5292 3.94434C14.7008 3.94434 15.8244 4.40975 16.6529 5.23819C17.4813 6.06664 17.9467 7.19025 17.9467 8.36184C17.9467 9.53344 17.4813 10.6571 16.6529 11.4855C15.8244 12.3139 14.7008 12.7794 13.5292 12.7794C12.3576 12.7794 11.234 12.3139 10.4056 11.4855C9.57714 10.6571 9.11173 9.53344 9.11173 8.36184ZM9.11173 14.9881C7.64723 14.9881 6.24272 15.5699 5.20717 16.6054C4.17161 17.641 3.58984 19.0455 3.58984 20.51C3.58984 21.3887 3.9389 22.2314 4.56024 22.8527C5.18157 23.4741 6.02428 23.8231 6.90298 23.8231H20.1555C21.0342 23.8231 21.8769 23.4741 22.4982 22.8527C23.1196 22.2314 23.4686 21.3887 23.4686 20.51C23.4686 19.0455 22.8869 17.641 21.8513 16.6054C20.8158 15.5699 19.4112 14.9881 17.9467 14.9881H9.11173Z" fill="white"/>
</svg>
