<svg id="Capa_1" enable-background="new 0 0 512 512" viewBox="0 0 512 512" xmlns="http://www.w3.org/2000/svg"><g><path d="m122.541 400.881-7.552-63.427-82.989 1.748v59.164c0 1.97.323 3.865.919 5.634l82.473 4.502c4.233.231 7.65-3.412 7.149-7.621z" fill="#537983"/><path d="m119.028 341.698-3.028 2.682v54.62c0 2.761-2.239 5-5 5h-78.081c2.351 6.976 8.946 12 16.715 12h60.732c9.739 0 17.634-7.895 17.634-17.634v-46.366z" fill="#3e5959"/><path d="m66.06 413.462c-4.268 0-7.726-3.459-7.726-7.726v-61.462c0-4.267 3.459-7.726 7.726-7.726 4.268 0 7.726 3.459 7.726 7.726v61.462c.001 4.267-3.458 7.726-7.726 7.726zm35.606-7.726v-61.462c0-4.267-3.459-7.726-7.726-7.726s-7.726 3.459-7.726 7.726v61.462c0 4.267 3.459 7.726 7.726 7.726s7.726-3.459 7.726-7.726z" fill="#3e5959"/><path d="m474.541 400.881-7.552-63.427-82.989 1.748v59.164c0 1.97.323 3.865.919 5.634l82.473 4.502c4.233.231 7.65-3.412 7.149-7.621z" fill="#537983"/><path d="m471.028 341.698-3.028 2.682v54.62c0 2.761-2.239 5-5 5h-78.081c2.351 6.976 8.946 12 16.715 12h60.732c9.739 0 17.634-7.895 17.634-17.634v-46.366z" fill="#3e5959"/><path d="m418.06 413.462c-4.268 0-7.726-3.459-7.726-7.726v-61.462c0-4.267 3.459-7.726 7.726-7.726s7.726 3.459 7.726 7.726v61.462c.001 4.267-3.458 7.726-7.726 7.726zm35.606-7.726v-61.462c0-4.267-3.459-7.726-7.726-7.726s-7.726 3.459-7.726 7.726v61.462c0 4.267 3.459 7.726 7.726 7.726s7.726-3.459 7.726-7.726z" fill="#3e5959"/><g><g><path d="m80 144h-56c-13.255 0-24-10.745-24-24 0-13.255 10.745-24 24-24h28.862c6.651 0 12.556 4.256 14.66 10.566z" fill="#d83131"/></g></g><g><g><path d="m432 144h56c13.255 0 24-10.745 24-24 0-13.255-10.745-24-24-24h-28.862c-6.651 0-12.556 4.256-14.66 10.566z" fill="#ca2c2c"/></g></g><g><g><path d="m474.913 164.185-39.619-12.575-18.858-102.301c-9.815-29.447-37.372-49.309-68.412-49.309h-184.048c-31.039 0-58.597 19.862-68.412 49.309l-31.564 94.691-26.913 20.185c-23.347 17.51-37.087 44.99-37.087 74.173v77.586c0 5.53 1.245 10.769 3.47 15.453 5.787 12.181 499.641 11.93 505.313-.545 2.066-4.544 3.217-9.591 3.217-14.908v-77.586c0-29.183-13.74-56.663-37.087-74.173z" fill="#e94444"/></g></g><g><g><path d="m474.913 164.185-26.913-20.185-31.564-94.691c-6.109-18.327-19.09-32.94-35.506-41.364l48.032 144.098c.994 2.982 2.874 5.59 5.388 7.476l28.201 21.15c18.158 13.618 28.845 34.992 28.845 57.689v77.586c0 8.534-6.918 15.453-15.453 15.453h-472.472c5.786 12.181 18.202 20.603 32.585 20.603h439.887c19.914 0 36.057-16.143 36.057-36.056v-77.586c0-29.183-13.74-56.663-37.087-74.173z" fill="#d83131"/></g></g><g><g><path d="m163.976 32c-17.293 0-32.586 11.023-38.054 27.428l-25.93 77.792c-1.112 3.335 1.371 6.78 4.887 6.78h23.121l44.872-41.838 19.128-70.162z" fill="#537983"/></g></g><g><g><path d="m386.078 59.428c-5.468-16.405-20.761-27.428-38.054-27.428h-34.538l-17.235 12.145-.564-12.145h-55.687l-48 50.014-16 61.986h231.122c3.516 0 5.998-3.444 4.887-6.78z" fill="#537983"/></g></g><path d="m313.486 32h-17.799l-61.226 107.133c-.877 1.534-1.169 3.242-.949 4.867h15.966z" fill="#7ca1b1"/><g><g><path d="m192 32-64 112h48l64-112z" fill="#7ca1b1"/></g></g><g><g><path d="m57.755 208c-14.224 0-25.755 11.531-25.755 25.755v11.944c0 5.689 4.612 10.301 10.302 10.301h37.698l24.821-27.604-24.821-20.396z" fill="#fe9738"/></g></g><g><g><path d="m80 208h74.302v48h-74.302z" fill="#fff"/></g></g><g><g><path d="m85.698 320h-43.396c-5.69 0-10.302-4.612-10.302-10.302v-11.396c0-5.69 4.612-10.302 10.302-10.302h43.396c5.69 0 10.302 4.612 10.302 10.302v11.396c0 5.69-4.612 10.302-10.302 10.302z" fill="#fe9738"/></g></g><g><g><path d="m454.245 208c14.224 0 25.755 11.531 25.755 25.755v11.944c0 5.689-4.612 10.302-10.302 10.302h-37.698l-32-24 32-24h22.245z" fill="#fe9738"/></g></g><g><g><path d="m357.698 208h74.302v48h-74.302z" fill="#fff"/></g></g><g><g><path d="m426.302 320h43.396c5.69 0 10.302-4.612 10.302-10.302v-11.396c0-5.69-4.612-10.302-10.302-10.302h-43.396c-5.69 0-10.302 4.612-10.302 10.302v11.396c0 5.69 4.612 10.302 10.302 10.302z" fill="#fe9738"/></g></g><g><g><path d="m283.399 328.23c25.756-6.314 49.993-28.897 63.157-51.913 8.551-14.951 14.001-42.795 13.953-58.979-.122-41.072-26.015-67.048-53.39-93.497-54.775-26.847-121.823-6.75-152.391 47.226-30.679 54.173-12.87 123.668 40.123 156.344 10.671 6.58 21.96 11.228 33.471 14.051 2.595.637 4.333 3.068 4.068 5.726l-4.46 44.596 31.335 30.465 6.374-7.826 2.338-60.364c-1.277-12.78 2.929-22.768 15.422-25.829z" fill="#cbe5e8"/></g></g><g><g><path d="m315.073 128.124c-2.618-1.542-5.271-2.969-7.954-4.284 27.375 26.449 44.444 63.51 44.566 104.581.048 16.185-3.988 32.563-12.539 47.514-13.164 23.016-34.599 39.169-60.355 45.483-12.493 3.06-20.953 15.008-19.677 27.79l6.525 65.216 18.439-22.639-4.462-44.624c-.266-2.663 1.481-5.094 4.081-5.732 29.885-7.326 56.835-26.419 73.334-55.265 31.47-55.024 12.665-125.877-41.958-158.04z" fill="#a8d3d8"/></g></g><g><g><circle cx="256.012" cy="228.396" fill="#fff" r="83.126"/></g></g><g><g><path d="m293.165 482.576-29.791-90.791h-35.437l-9.079 90.791c-1.575 15.754 10.796 29.424 26.629 29.424h21.05c15.832 0 28.204-13.67 26.628-29.424z" fill="#a2e62e"/></g></g><g><g><path d="m271.102 489.37c-.685.757-2.188 2.026-4.565 2.026h-47.104c2.764 11.709 13.282 20.604 26.054 20.604h21.05c15.832 0 28.203-13.67 26.628-29.424l-9.079-90.791h-20.711l9.289 92.842c.236 2.365-.877 3.987-1.562 4.743z" fill="#8bc727"/></g></g><g><g><path d="m253.085 182.06c-11.287 17.304-26.106 32.105-43.415 43.407-2.111 1.379-2.112 4.453-.002 5.833 17.309 11.323 32.13 26.125 43.417 43.431 1.378 2.113 4.453 2.115 5.834.004 11.324-17.308 26.129-32.112 43.437-43.436 2.11-1.38 2.108-4.454-.002-5.833-17.307-11.303-32.111-26.105-43.434-43.412-1.382-2.109-4.457-2.106-5.835.006z" fill="#fe9738"/></g></g></g><g/><g/><g/><g/><g/><g/><g/><g/><g/><g/><g/><g/><g/><g/><g/></svg>