<svg width="20" height="20" viewBox="0 0 20 20" fill="none" xmlns="http://www.w3.org/2000/svg">
<path fill-rule="evenodd" clip-rule="evenodd" d="M12.0547 18.796H3.66016C3.0637 18.796 2.49097 18.5587 2.06879 18.1374C1.64743 17.7152 1.41016 17.1424 1.41016 16.546V3.45508C1.41016 2.85862 1.64743 2.2859 2.06879 1.86371C2.49097 1.44235 3.0637 1.20508 3.66016 1.20508H11.4803C11.8837 1.20508 12.2682 1.37526 12.5399 1.6739L16.1742 5.67153C16.414 5.93581 16.5465 6.27862 16.5465 6.63535V10.5798C15.9812 10.3384 15.3585 10.2051 14.7056 10.2051C12.1087 10.2051 10.0011 12.3127 10.0011 14.9096C10.0011 16.5231 10.8152 17.9483 12.0547 18.796ZM4.47834 8.15962H8.56925C8.90797 8.15962 9.18288 7.88471 9.18288 7.54599C9.18288 7.20726 8.90797 6.93235 8.56925 6.93235H4.47834C4.13961 6.93235 3.8647 7.20726 3.8647 7.54599C3.8647 7.88471 4.13961 8.15962 4.47834 8.15962ZM4.47834 11.4324H10.2056C10.5443 11.4324 10.8192 11.1574 10.8192 10.8187C10.8192 10.48 10.5443 10.2051 10.2056 10.2051H4.47834C4.13961 10.2051 3.8647 10.48 3.8647 10.8187C3.8647 11.1574 4.13961 11.4324 4.47834 11.4324ZM11.4329 2.31208V5.90962C11.4329 6.12644 11.5188 6.33508 11.6726 6.48808C11.8256 6.6419 12.0342 6.72781 12.2511 6.72781H15.46C15.4248 6.64271 15.3741 6.56335 15.3111 6.4938L11.6767 2.49535C11.6063 2.41926 11.5237 2.35708 11.4329 2.31208ZM4.47834 14.7051H8.56925C8.90797 14.7051 9.18288 14.4302 9.18288 14.0914C9.18288 13.7527 8.90797 13.4778 8.56925 13.4778H4.47834C4.13961 13.4778 3.8647 13.7527 3.8647 14.0914C3.8647 14.4302 4.13961 14.7051 4.47834 14.7051Z" fill="#E12C2C"/>
<path fill-rule="evenodd" clip-rule="evenodd" d="M14.7047 11.0234C16.85 11.0234 18.5911 12.7645 18.5911 14.9098C18.5911 17.0551 16.85 18.7962 14.7047 18.7962C12.5595 18.7962 10.8184 17.0551 10.8184 14.9098C10.8184 12.7645 12.5595 11.0234 14.7047 11.0234ZM13.8366 14.9098L13.2484 15.4989C13.0086 15.7378 13.0086 16.1273 13.2484 16.3662C13.4873 16.6059 13.8767 16.6059 14.1156 16.3662L14.7047 15.7779L15.2938 16.3662C15.5327 16.6059 15.9222 16.6059 16.1611 16.3662C16.4008 16.1273 16.4008 15.7378 16.1611 15.4989L15.5728 14.9098L16.1611 14.3207C16.4008 14.0818 16.4008 13.6923 16.1611 13.4534C15.9222 13.2137 15.5327 13.2137 15.2938 13.4534L14.7047 14.0417L14.1156 13.4534C13.8767 13.2137 13.4873 13.2137 13.2484 13.4534C13.0086 13.6923 13.0086 14.0818 13.2484 14.3207L13.8366 14.9098Z" fill="#E12C2C"/>
</svg>
