<svg width="33" height="32" viewBox="0 0 33 32" fill="none" xmlns="http://www.w3.org/2000/svg">
<path d="M4.14013 22.665C3.79223 22.6963 3.46872 22.857 3.23357 23.1153C2.99842 23.3736 2.86872 23.7107 2.87013 24.06V24.87C2.86872 25.2193 2.99842 25.5564 3.23357 25.8147C3.46872 26.073 3.79223 26.2337 4.14013 26.265C4.21189 26.2723 4.28033 26.2989 4.33822 26.3419C4.3961 26.385 4.44127 26.4429 4.46894 26.5095C4.49661 26.5761 4.50575 26.649 4.4954 26.7203C4.48505 26.7917 4.45558 26.859 4.41013 26.915C4.18739 27.1838 4.07314 27.5262 4.08979 27.8749C4.10644 28.2237 4.25279 28.5536 4.50013 28.8L5.07013 29.37C5.31595 29.6184 5.64604 29.7654 5.9951 29.7821C6.34416 29.7988 6.68676 29.6838 6.95513 29.46C7.01109 29.4132 7.07879 29.3825 7.15091 29.3714C7.22302 29.3603 7.2968 29.3691 7.36426 29.397C7.43172 29.4248 7.49029 29.4705 7.53363 29.5292C7.57697 29.5879 7.60342 29.6573 7.61013 29.73C7.64024 30.0775 7.79987 30.4009 8.05736 30.6362C8.31484 30.8714 8.65136 31.0013 9.00013 31H9.80513C10.1544 31.0014 10.4916 30.8717 10.7499 30.6366C11.0082 30.4014 11.1688 30.0779 11.2001 29.73C11.2043 29.6799 11.2184 29.6311 11.2416 29.5865C11.2647 29.5418 11.2965 29.5022 11.3351 29.47H11.8701C12.1173 29.6714 12.4263 29.7814 12.7451 29.7814C13.0639 29.7814 13.373 29.6714 13.6201 29.47H27.3701C28.1017 29.4687 28.803 29.1775 29.3203 28.6602C29.8376 28.1428 30.1288 27.4416 30.1301 26.71V3.76C30.1288 3.02841 29.8376 2.32716 29.3203 1.80985C28.803 1.29253 28.1017 1.00132 27.3701 1H9.68513C8.95354 1.00132 8.25229 1.29253 7.73497 1.80985C7.21766 2.32716 6.92645 3.02841 6.92513 3.76V19.45C6.65701 19.2366 6.31973 19.1294 5.9776 19.1487C5.63548 19.1681 5.31246 19.3127 5.07013 19.555L4.50013 20.13C4.25592 20.375 4.11148 20.7021 4.09484 21.0477C4.07821 21.3932 4.19058 21.7326 4.41013 22C4.45695 22.056 4.48758 22.1237 4.49869 22.1958C4.5098 22.2679 4.50098 22.3417 4.47317 22.4091C4.44536 22.4766 4.39963 22.5352 4.34093 22.5785C4.28223 22.6218 4.21279 22.6483 4.14013 22.655V22.665ZM7.92513 3.76C7.92645 3.29362 8.1123 2.84673 8.44208 2.51695C8.77186 2.18717 9.21875 2.00132 9.68513 2H22.1851L29.1301 10.145V26.71C29.1288 27.1764 28.943 27.6233 28.6132 27.9531C28.2834 28.2828 27.8365 28.4687 27.3701 28.47H14.5551C14.6875 28.2252 14.7439 27.9466 14.7172 27.6696C14.6905 27.3927 14.5818 27.1299 14.4051 26.915C14.3579 26.8596 14.3269 26.7921 14.3156 26.7202C14.3043 26.6482 14.3131 26.5745 14.341 26.5073C14.3689 26.44 14.4149 26.3818 14.4739 26.339C14.5329 26.2963 14.6025 26.2707 14.6751 26.265C14.8964 26.2443 15.1095 26.1709 15.2966 26.0508C15.4836 25.9307 15.6392 25.7676 15.7501 25.575H25.7051C25.8377 25.575 25.9649 25.5223 26.0587 25.4286C26.1524 25.3348 26.2051 25.2076 26.2051 25.075C26.2051 24.9424 26.1524 24.8152 26.0587 24.7214C25.9649 24.6277 25.8377 24.575 25.7051 24.575H15.9451V24.075C15.9454 23.7183 15.8095 23.3749 15.5651 23.115H22.3601C22.4927 23.115 22.6199 23.0623 22.7137 22.9686C22.8074 22.8748 22.8601 22.7476 22.8601 22.615C22.8601 22.4824 22.8074 22.3552 22.7137 22.2614C22.6199 22.1677 22.4927 22.115 22.3601 22.115H14.6901C14.618 22.1169 14.5471 22.1345 14.4824 22.1664C14.4176 22.1984 14.3606 22.2439 14.3151 22.3C14.3082 22.2001 14.3405 22.1015 14.4051 22.025C14.5626 21.8351 14.6664 21.6066 14.706 21.3631C14.7456 21.1196 14.7194 20.87 14.6301 20.64H25.7051C25.8377 20.64 25.9649 20.5873 26.0587 20.4936C26.1524 20.3998 26.2051 20.2726 26.2051 20.14C26.2051 20.0074 26.1524 19.8802 26.0587 19.7864C25.9649 19.6927 25.8377 19.64 25.7051 19.64H13.8151L13.7401 19.57C13.4945 19.3227 13.1649 19.1767 12.8167 19.161C12.4685 19.1452 12.1271 19.2609 11.8601 19.485C11.8038 19.532 11.7357 19.5626 11.6632 19.5735C11.5907 19.5843 11.5166 19.5751 11.449 19.5467C11.3814 19.5183 11.3229 19.4719 11.2799 19.4125C11.2369 19.3531 11.211 19.2831 11.2051 19.21C11.1727 18.863 11.0115 18.5407 10.7533 18.3066C10.4951 18.0725 10.1586 17.9435 9.81013 17.945H9.00013C8.79443 17.9439 8.59102 17.9881 8.40435 18.0745C8.21769 18.1609 8.05236 18.2874 7.92013 18.445L7.92513 3.76ZM5.39513 22.805C5.49394 22.5699 5.52615 22.3121 5.48823 22.0598C5.4503 21.8076 5.34372 21.5707 5.18013 21.375C5.11706 21.2977 5.08474 21.1999 5.08935 21.1002C5.09396 21.0006 5.13519 20.9061 5.20513 20.835L5.78013 20.265C5.84925 20.1933 5.94318 20.1508 6.04266 20.1461C6.14213 20.1415 6.23962 20.1751 6.31513 20.24C6.48015 20.3701 6.67252 20.4611 6.87777 20.5061C7.08301 20.5511 7.2958 20.5491 7.50013 20.5C7.54144 20.4934 7.58175 20.4816 7.62013 20.465C7.6573 20.4591 7.69404 20.4507 7.73013 20.44C7.96574 20.3422 8.17026 20.1821 8.32177 19.9768C8.47328 19.7716 8.56605 19.529 8.59013 19.275C8.60008 19.176 8.64657 19.0842 8.72054 19.0177C8.7945 18.9511 8.89062 18.9145 8.99013 18.915H9.79513C9.89464 18.9145 9.99076 18.9511 10.0647 19.0177C10.1387 19.0842 10.1852 19.176 10.1951 19.275C10.2136 19.5333 10.3034 19.7814 10.4545 19.9917C10.6056 20.202 10.812 20.3663 11.0509 20.4663C11.2898 20.5663 11.5517 20.5981 11.8075 20.5581C12.0634 20.5182 12.3031 20.4081 12.5001 20.24C12.5765 20.1747 12.6748 20.141 12.7751 20.1457C12.8754 20.1503 12.9702 20.193 13.0401 20.265L13.6101 20.835C13.6818 20.9049 13.7247 20.9992 13.7302 21.0992C13.7358 21.1991 13.7036 21.2976 13.6401 21.375C13.4783 21.5709 13.3729 21.8072 13.3351 22.0585C13.2974 22.3098 13.3288 22.5667 13.4259 22.8015C13.523 23.0363 13.6822 23.2403 13.8864 23.3916C14.0906 23.5428 14.3322 23.6356 14.5851 23.66C14.685 23.6688 14.778 23.7148 14.8456 23.7888C14.9132 23.8629 14.9505 23.9597 14.9501 24.06V24.87C14.9504 24.9698 14.9129 25.0659 14.8452 25.1392C14.7775 25.2125 14.6846 25.2574 14.5851 25.265C14.3321 25.2904 14.0908 25.384 13.8868 25.5358C13.6828 25.6876 13.5239 25.892 13.4269 26.127C13.3299 26.3621 13.2985 26.619 13.336 26.8705C13.3736 27.122 13.4787 27.3586 13.6401 27.555C13.7036 27.6324 13.7358 27.7309 13.7302 27.8308C13.7247 27.9308 13.6818 28.0251 13.6101 28.095L13.2351 28.47H12.1101C11.7766 28.3349 11.4036 28.3349 11.0701 28.47L11.0001 28.5C10.956 28.5153 10.9152 28.5391 10.8801 28.57C10.6892 28.6792 10.5271 28.8323 10.4071 29.0166C10.2871 29.201 10.2127 29.4112 10.1901 29.63C10.1814 29.7299 10.1354 29.8229 10.0613 29.8905C9.9872 29.9581 9.89042 29.9954 9.79013 29.995H9.00013C8.89984 29.9954 8.80306 29.9581 8.72897 29.8905C8.65489 29.8229 8.6089 29.7299 8.60013 29.63C8.57052 29.3828 8.47575 29.1479 8.32552 28.9493C8.17528 28.7508 7.97499 28.5957 7.74513 28.5C7.50947 28.4039 7.25225 28.3732 7.00059 28.411C6.74893 28.4489 6.51212 28.5539 6.31513 28.715C6.23912 28.7788 6.14187 28.8117 6.04274 28.807C5.94361 28.8024 5.84986 28.7606 5.78013 28.69L5.20513 28.09C5.13555 28.0197 5.09449 27.9261 5.08987 27.8273C5.08526 27.7285 5.11741 27.6315 5.18013 27.555C5.34157 27.3586 5.44667 27.122 5.48423 26.8705C5.52179 26.619 5.49039 26.3621 5.3934 26.127C5.29641 25.892 5.13744 25.6876 4.93346 25.5358C4.72948 25.384 4.48813 25.2904 4.23513 25.265C4.13565 25.2574 4.04273 25.2125 3.97502 25.1392C3.90731 25.0659 3.86984 24.9698 3.87013 24.87V24.06C3.86974 23.9597 3.90705 23.8629 3.97465 23.7888C4.04225 23.7148 4.13522 23.6688 4.23513 23.66C4.48783 23.636 4.72926 23.5438 4.93358 23.3932C5.13791 23.2426 5.29745 23.0393 5.39513 22.805Z" fill="url(#paint0_linear_1123_5504)"/>
<path d="M22.6196 15.2349C22.5564 14.1924 22.0978 13.2132 21.3372 12.4973C20.5766 11.7814 19.5715 11.3828 18.5271 11.3828C17.4826 11.3828 16.4775 11.7814 15.7169 12.4973C14.9564 13.2132 14.4977 14.1924 14.4346 15.2349C17.0819 16.175 19.9722 16.175 22.6196 15.2349Z" fill="url(#paint1_linear_1123_5504)"/>
<path d="M18.5245 10.4096C18.9717 10.4106 19.4092 10.2789 19.7815 10.0312C20.1538 9.78347 20.4442 9.43085 20.6161 9.01798C20.7879 8.60511 20.8334 8.15054 20.7467 7.71181C20.6601 7.27309 20.4452 6.86993 20.1294 6.55336C19.8135 6.23679 19.4108 6.02105 18.9723 5.93344C18.5337 5.84583 18.0791 5.8903 17.6658 6.0612C17.2526 6.23211 16.8993 6.52177 16.6508 6.89354C16.4022 7.2653 16.2695 7.70245 16.2695 8.14964C16.2708 8.74776 16.5087 9.32108 16.9312 9.74449C17.3536 10.1679 17.9264 10.407 18.5245 10.4096Z" fill="url(#paint2_linear_1123_5504)"/>
<path d="M9.40465 27.7302C10.0504 27.7302 10.6817 27.5387 11.2186 27.1799C11.7555 26.8212 12.174 26.3113 12.4211 25.7147C12.6682 25.1181 12.7329 24.4616 12.6069 23.8282C12.4809 23.1949 12.17 22.6131 11.7134 22.1565C11.2567 21.6999 10.675 21.3889 10.0416 21.2629C9.40827 21.137 8.75179 21.2016 8.15519 21.4487C7.55859 21.6959 7.04866 22.1143 6.6899 22.6513C6.33114 23.1882 6.13965 23.8194 6.13965 24.4652C6.14097 25.3307 6.48539 26.1604 7.09741 26.7724C7.70943 27.3845 8.53912 27.7289 9.40465 27.7302ZM9.40465 22.2002C9.85262 22.2002 10.2905 22.333 10.663 22.5819C11.0355 22.8308 11.3258 23.1845 11.4972 23.5984C11.6687 24.0123 11.7135 24.4677 11.6261 24.9071C11.5387 25.3464 11.323 25.75 11.0062 26.0668C10.6895 26.3836 10.2859 26.5993 9.84653 26.6867C9.40716 26.7741 8.95175 26.7292 8.53787 26.5578C8.124 26.3864 7.77025 26.096 7.52137 25.7236C7.27249 25.3511 7.13965 24.9132 7.13965 24.4652C7.14097 23.8649 7.38003 23.2895 7.80451 22.8651C8.22899 22.4406 8.80434 22.2015 9.40465 22.2002Z" fill="url(#paint3_linear_1123_5504)"/>
<defs>
<linearGradient id="paint0_linear_1123_5504" x1="2.87746" y1="0.999999" x2="32.7258" y2="28.1368" gradientUnits="userSpaceOnUse">
<stop stop-color="#0E2D50"/>
<stop offset="1" stop-color="#2066B6"/>
</linearGradient>
<linearGradient id="paint1_linear_1123_5504" x1="14.4368" y1="11.3828" x2="18.3074" y2="18.3384" gradientUnits="userSpaceOnUse">
<stop stop-color="#0E2D50"/>
<stop offset="1" stop-color="#2066B6"/>
</linearGradient>
<linearGradient id="paint2_linear_1123_5504" x1="16.2707" y1="5.88965" x2="20.7883" y2="10.4096" gradientUnits="userSpaceOnUse">
<stop stop-color="#0E2D50"/>
<stop offset="1" stop-color="#2066B6"/>
</linearGradient>
<linearGradient id="paint3_linear_1123_5504" x1="6.14141" y1="21.2002" x2="12.6679" y2="27.7302" gradientUnits="userSpaceOnUse">
<stop stop-color="#0E2D50"/>
<stop offset="1" stop-color="#2066B6"/>
</linearGradient>
</defs>
</svg>
