<svg width="33" height="32" viewBox="0 0 33 32" fill="none" xmlns="http://www.w3.org/2000/svg">
<path fill-rule="evenodd" clip-rule="evenodd" d="M9.50033 5.33366C9.50033 4.41318 10.2465 3.66699 11.167 3.66699H27.167C28.0875 3.66699 28.8337 4.41318 28.8337 5.33366V13.3337C28.8337 14.2542 28.0875 15.0003 27.167 15.0003H25.8337C25.2814 15.0003 24.8337 15.4481 24.8337 16.0003C24.8337 16.5526 25.2814 17.0003 25.8337 17.0003H27.167C29.1921 17.0003 30.8337 15.3587 30.8337 13.3337V5.33366C30.8337 3.30862 29.1921 1.66699 27.167 1.66699H11.167C9.14195 1.66699 7.50033 3.30862 7.50033 5.33366V7.33366C7.50033 7.88594 7.94805 8.33366 8.50033 8.33366C9.05261 8.33366 9.50033 7.88594 9.50033 7.33366V5.33366ZM9.83366 13.3337C9.83366 14.8065 8.63975 16.0003 7.16699 16.0003C5.69423 16.0003 4.50033 14.8065 4.50033 13.3337C4.50033 11.8609 5.69423 10.667 7.16699 10.667C8.63975 10.667 9.83366 11.8609 9.83366 13.3337ZM24.0082 12.5412C24.3069 12.0766 24.1723 11.4579 23.7078 11.1593C23.2433 10.8606 22.6245 10.9951 22.3258 11.4597L17.1382 19.5293C16.6062 19.3534 16.0018 19.4085 15.4907 19.7337L11.167 22.0003V21.3337C11.167 19.1245 9.37613 17.3337 7.16699 17.3337C4.95786 17.3337 3.16699 19.1245 3.16699 21.3337V29.3337H11.167V26.2403C11.5182 26.1879 11.8649 26.0641 12.186 25.8634L17.5554 23.0075C18.1987 22.6055 18.5253 21.8863 18.4562 21.1777L24.0082 12.5412ZM12.8337 8.00033C12.8337 7.44805 13.2814 7.00033 13.8337 7.00033H24.5003C25.0526 7.00033 25.5003 7.44805 25.5003 8.00033C25.5003 8.55261 25.0526 9.00033 24.5003 9.00033H13.8337C13.2814 9.00033 12.8337 8.55261 12.8337 8.00033ZM13.8337 11.0003C13.2814 11.0003 12.8337 11.448 12.8337 12.0003C12.8337 12.5526 13.2814 13.0003 13.8337 13.0003H19.167C19.7193 13.0003 20.167 12.5526 20.167 12.0003C20.167 11.448 19.7193 11.0003 19.167 11.0003H13.8337Z" fill="url(#paint0_linear_1123_5511)"/>
<defs>
<linearGradient id="paint0_linear_1123_5511" x1="3.17445" y1="1.66699" x2="31" y2="41.5" gradientUnits="userSpaceOnUse">
<stop stop-color="#0E2D50"/>
<stop offset="0.726875" stop-color="#2066B6"/>
</linearGradient>
</defs>
</svg>
