<svg width="33" height="32" viewBox="0 0 33 32" fill="none" xmlns="http://www.w3.org/2000/svg">
<path fill-rule="evenodd" clip-rule="evenodd" d="M13.7585 4.33301H19.2412C21.6918 4.33301 23.6332 4.33301 25.1518 4.53701C26.7145 4.74767 27.9798 5.19034 28.9785 6.18767C29.9758 7.18634 30.4185 8.45167 30.6292 10.0143C30.7492 10.9117 30.7985 11.9557 30.8185 13.165C30.835 13.2664 30.8368 13.3697 30.8238 13.4717C30.8318 14.2255 30.8349 15.0432 30.8332 15.925V17.333C30.8332 17.5982 30.7278 17.8526 30.5403 18.0401C30.3527 18.2276 30.0984 18.333 29.8332 18.333C29.5679 18.333 29.3136 18.2276 29.1261 18.0401C28.9385 17.8526 28.8332 17.5982 28.8332 17.333V15.9997C28.8332 15.4059 28.8323 14.8503 28.8305 14.333H4.16917C4.1665 14.8503 4.16561 15.4059 4.1665 15.9997C4.1665 18.5423 4.16917 20.349 4.35317 21.7197C4.53317 23.0597 4.87183 23.833 5.43583 24.397C5.99983 24.961 6.77317 25.2997 8.1145 25.4797C9.48517 25.6637 11.2905 25.6663 13.8332 25.6663H17.8332C18.0984 25.6663 18.3527 25.7717 18.5403 25.9592C18.7278 26.1468 18.8332 26.4011 18.8332 26.6663C18.8332 26.9316 18.7278 27.1859 18.5403 27.3734C18.3527 27.561 18.0984 27.6663 17.8332 27.6663H13.7585C11.3078 27.6663 9.3665 27.6663 7.84783 27.4623C6.28517 27.2517 5.01983 26.809 4.02117 25.8117C3.02383 24.813 2.58117 23.5477 2.3705 21.985C2.1665 20.465 2.1665 18.525 2.1665 16.0743V15.925C2.16472 15.0432 2.16783 14.2255 2.17583 13.4717C2.16239 13.3698 2.16374 13.2665 2.17983 13.165C2.20117 11.9557 2.2505 10.9117 2.3705 10.0143C2.58117 8.45167 3.02383 7.18634 4.02117 6.18767C5.01983 5.19034 6.28517 4.74767 7.84783 4.53701C9.36783 4.33301 11.3078 4.33301 13.7585 4.33301ZM4.20117 12.333H28.7985C28.7809 11.6465 28.7302 10.9613 28.6465 10.2797C28.4665 8.93967 28.1278 8.16634 27.5638 7.60234C26.9998 7.03834 26.2265 6.69967 24.8852 6.51967C23.5158 6.33567 21.7092 6.33301 19.1665 6.33301H13.8332C11.2905 6.33301 9.48517 6.33567 8.11317 6.51967C6.77317 6.69967 5.99983 7.03834 5.43583 7.60234C4.87183 8.16634 4.53317 8.93967 4.35317 10.2797C4.27317 10.873 4.22783 11.549 4.20117 12.3317M24.4998 19.6663C23.7042 19.6663 22.9411 19.9824 22.3785 20.545C21.8159 21.1076 21.4998 21.8707 21.4998 22.6663C21.4998 23.462 21.8159 24.2251 22.3785 24.7877C22.9411 25.3503 23.7042 25.6663 24.4998 25.6663C25.2955 25.6663 26.0585 25.3503 26.6212 24.7877C27.1838 24.2251 27.4998 23.462 27.4998 22.6663C27.4998 21.8707 27.1838 21.1076 26.6212 20.545C26.0585 19.9824 25.2955 19.6663 24.4998 19.6663ZM19.4998 22.6663C19.5001 21.8868 19.6826 21.118 20.0328 20.4216C20.3831 19.7251 20.8913 19.1202 21.5169 18.6551C22.1426 18.19 22.8683 17.8777 23.6362 17.743C24.404 17.6084 25.1928 17.6551 25.9393 17.8796C26.6859 18.104 27.3696 18.4999 27.9359 19.0356C28.5023 19.5714 28.9355 20.2321 29.201 20.9651C29.4664 21.6981 29.5569 22.483 29.465 23.2571C29.3731 24.0313 29.1015 24.7732 28.6718 25.4237L29.8732 26.6263C29.9714 26.7179 30.0502 26.8283 30.1049 26.951C30.1595 27.0736 30.1889 27.206 30.1913 27.3403C30.1937 27.4746 30.169 27.608 30.1187 27.7325C30.0684 27.857 29.9935 27.9701 29.8986 28.0651C29.8036 28.16 29.6905 28.2349 29.566 28.2852C29.4414 28.3355 29.3081 28.3602 29.1738 28.3578C29.0395 28.3554 28.9071 28.326 28.7844 28.2714C28.6618 28.2167 28.5514 28.1379 28.4598 28.0397L27.2572 26.8383C26.5035 27.3366 25.629 27.6213 24.7265 27.6622C23.824 27.7032 22.9272 27.4988 22.1315 27.0709C21.3359 26.643 20.671 26.0075 20.2076 25.2319C19.7442 24.4564 19.4996 23.5698 19.4998 22.6663ZM7.49983 21.333C7.49983 21.0678 7.60519 20.8134 7.79273 20.6259C7.98026 20.4384 8.23462 20.333 8.49983 20.333H13.8332C14.0984 20.333 14.3527 20.4384 14.5403 20.6259C14.7278 20.8134 14.8332 21.0678 14.8332 21.333C14.8332 21.5982 14.7278 21.8526 14.5403 22.0401C14.3527 22.2277 14.0984 22.333 13.8332 22.333H8.49983C8.23462 22.333 7.98026 22.2277 7.79273 22.0401C7.60519 21.8526 7.49983 21.5982 7.49983 21.333Z" fill="url(#paint0_linear_1123_5500)"/>
<defs>
<linearGradient id="paint0_linear_1123_5500" x1="2.17374" y1="4.33301" x2="25.8136" y2="32.5563" gradientUnits="userSpaceOnUse">
<stop stop-color="#0E2D50"/>
<stop offset="1" stop-color="#2066B6"/>
</linearGradient>
</defs>
</svg>
