<svg clip-rule="evenodd" fill-rule="evenodd" height="1.707in" image-rendering="optimizeQuality" shape-rendering="geometricPrecision" text-rendering="geometricPrecision" viewBox="0 0 1.70666 1.70666" width="1.707in" xmlns="http://www.w3.org/2000/svg"><g id="Layer_x0020_1"><g id="_345931152"><path id="_345931992" d="m1.0781 1.70665h-1.02783c-.0110394 0-.02-.0089685-.02-.0199961v-1.5723c0-.0110394.00896063-.02.02-.02l.0943307-.00000394c.0110394 0 .02.00896063.02.02v1.45797h.913496c.0110394 0 .02.0089685.02.02v.0943346c0 .0110394-.00895669.0199961-.02.0199961z" fill="#d6dee4"/><path id="_345932352" d="m1.17244 1.61232h-1.02783c-.0110354 0-.0199961-.00897244-.0199961-.02v-1.5723c0-.0110394.00896063-.0199961.0199961-.0199961h.979882c.00530709 0 .0103898.0021063.0141535.0058622l.26876.26876c.00374803.00374803.00586614.00883465.00586614.0141378v.61339c0 .0110394-.00897244.02-.02.02h-.0629882c-.00670866 0-.0123858.00566929-.0123858.0123858v.226343c0 .00683465.00554331.0123898.0123858.0123898h.0211417c.0110394 0 .0199961.0089685.0199961.02v.0728858c0 .0110394-.0089685.02-.0199961.02h-.087374c-.0188189 0-.0341378.015315-.0341378.0341339v.0541339c0 .0110394-.0089685.02-.02.02l-.0403346.00000787c-.0107087 0-.0194331.00872441-.0194331.0194331v.0839567l.0223189-.0002126c.0110394 0 .02.00897244.02.02v.0746654c-.00002362.0110709-.00898425.0200276-.0200236.0200276z" fill="#e8f1f8"/><path id="_345932592" d="m1.39351.308783c-.00006693 0-.00017717.00001575-.00027559 0h-.268756c-.0110394 0-.02-.00896063-.02-.02v-.268764c0-.00809843.00488583-.015374.0123622-.0184882.00744094-.00307874.0160669-.00138976.0217874.00434646l.266909.266917c.00484646.00364961.00797244.00945669.00797244.0159803 0 .0110472-.00896063.0200079-.02.0200079z" fill="#d6dee4"/><g fill="#35a872"><path id="_345932160" d="m.768925.890535c-.148984 0-.270189-.12122-.270189-.270205 0-.148984.121205-.270189.270189-.270189s.270189.121205.270189.270189-.12122.270205-.270189.270205zm0-.500394c-.126925 0-.230189.10326-.230189.230189 0 .126925.103264.230189.230189.230189.126929 0 .230177-.103264.230177-.230189 0-.126929-.103244-.230189-.230177-.230189z"/><path id="_345932232" d="m.744929.692894c-.00023622 0-.00047244 0-.00069291-.00001575-.00554331-.00019291-.0107677-.0026811-.0144055-.00687402l-.0571535-.0657795c-.00723228-.00833465-.0063622-.0209685.00198425-.0282087.00833465-.00723228.0209606-.00634646.0282087.00198425l.0430827.0495827.128787-.128787c.00782283-.00782283.0204882-.00782283.0282953 0 .0078189.00780315.0078189.0204724 0 .0282756l-.143969.143965c-.00375197.00376378-.00883465.00585827-.0141378.00585827z"/><path id="_345932472" d="m.371547.486677c-.0110394 0-.02-.00896063-.02-.0199961v-.119154c0-.0110394.00896063-.02.02-.02h.11915c.0110394 0 .02.00896063.02.02 0 .0110394-.00896063.02-.02.02h-.0991496v.0991535c0 .0110354-.00896063.0199961-.02.0199961z"/><path id="_345932136" d="m1.1663.486677c-.0110394 0-.02-.00896063-.02-.0199961v-.0991535h-.0991496c-.0110394 0-.02-.00896063-.02-.02 0-.0110394.00897244-.02.02-.02h.11915c.0110394 0 .02.00896063.02.02v.119154c.00001575.0110354-.00895669.0199961-.02.0199961z"/><path id="_345932088" d="m.490697.913142h-.11915c-.0110394 0-.02-.0089685-.02-.02v-.11915c0-.0110394.00896063-.02.02-.02.0110394 0 .02.00896063.02.02v.0991378h.0991496c.0110394 0 .02.0089685.02.0199961 0 .0110315-.00894488.0200157-.02.0200157z"/><path id="_345931536" d="m1.1663.913142h-.11915c-.0110394 0-.02-.0089685-.02-.02 0-.0110276.00897244-.0199961.02-.0199961h.0991496v-.0991378c0-.0110394.00897244-.02.02-.02.0110276 0 .02.00896063.02.02v.11915c.00001575.0110157-.00895669.0199843-.02.0199843z"/></g><path id="_345931440" d="m1.43508 1.28618h-.0836772c-.0110394 0-.02-.00897244-.02-.02v-.0728858c0-.0110394.0089685-.02.02-.02h.0836772c.0110394 0 .02.0089685.02.02v.0728858c0 .0110433-.00896063.02-.02.02z" fill="#fea832"/><path id="_345931392" d="m1.57661 1.39447h-.366728c-.0110394 0-.02-.00897244-.02-.02v-.0541378c0-.040874.0332756-.0741496.0741535-.0741496l.258937-.00000394c.0406102 0 .0736693.0330551.0736693.0736654v.0546417c-.00001575.0110118-.00898819.0199843-.0200315.0199843z" fill="#994c0f"/><path id="_345931920" d="m1.61404 1.61231h-.441618c-.0110394 0-.02-.00897244-.02-.02v-.0746654c0-.0110394.0089685-.02.02-.02h.441618c.0110394 0 .02.00897244.02.02v.0746654c.00001181.0110394-.00896063.02-.02.02z" fill="#fd3018"/><path id="_345931776" d="m1.14838 1.01491h-.57522c-.0110394 0-.02-.00897244-.02-.02 0-.0110276.00896063-.02.02-.02h.57522c.0110394 0 .02.00897244.02.02 0 .0110276-.00895669.02-.02.02zm-.683098 0h-.196299c-.0110394 0-.02-.00897244-.02-.02 0-.0110276.00896063-.02.02-.02h.196299c.0110394 0 .02.00897244.02.02 0 .0110276-.00895669.02-.02.02z" fill="#474747"/><path id="_345931728" d="m1.14839 1.11644h-.196299c-.0110394 0-.02-.0089685-.02-.02 0-.0110276.00897244-.0199961.02-.0199961h.196299c.0110394 0 .02.0089685.02.0199961 0 .0110315-.00896063.02-.02.02zm-.304177 0h-.57522c-.0110394 0-.02-.0089685-.02-.02 0-.0110276.00896063-.0199961.02-.0199961h.57522c.0110394 0 .02.0089685.02.0199961 0 .0110315-.00894488.02-.02.02z" fill="#474747"/><path id="_345931824" d="m1.14838 1.218h-.575213c-.0110394 0-.02-.00897244-.02-.02 0-.0110315.00896063-.02.02-.02h.575228c.0110394 0 .02.0089685.02.02 0 .0110276-.00897244.02-.0200157.02zm-.683098 0h-.196283c-.0110394 0-.02-.00897244-.02-.02 0-.0110315.00896063-.02.02-.02h.196283c.0110394 0 .02.0089685.02.02 0 .0110276-.00895669.02-.02.02z" fill="#474747"/><path id="_345931608" d="m.962996.254547h-.694c-.0110394 0-.02-.00896063-.02-.02v-.101551c0-.0110394.00896063-.02.02-.02l.694-.00000394c.0110394 0 .02.00896063.02.02v.101551c.00001181.0110591-.00896063.0200039-.02.0200039z" fill="#474747"/><path id="_345931848" d="m.857583 1.54081h-.508465c-.0110394 0-.02-.00897244-.02-.02 0-.0110276.00896063-.02.02-.02h.508465c.0110394 0 .02.00897244.02.02 0 .0110276-.00896063.02-.02.02z" fill="#fd452f"/><path id="_345931320" d="m.522114 1.49629c-.00108268 0-.0022126-.00008268-.0033937-.00023622-.015874-.00202756-.0195118-.0160984-.0241339-.0339016-.00188976-.00723228-.00432283-.0166378-.00780709-.0281929-.0194685.00016929-.0397362-.0001378-.0604882-.00127559-.00541732.0142362-.010622.0296102-.0151535.045122-.00309449.0106102-.0141654.0167677-.0248031.0135984-.0106063-.00309843-.0166929-.0141811-.0135945-.0247953.00357087-.0122205.00754331-.0248858.0119173-.0373976-.0221693-.00255906-.0445-.00630709-.0665394-.0117087-.0490394-.0119843-.0722087-.0322087-.0688465-.0600984.00762992-.063248.172012-.109035.279118-.109035.0390118 0 .0654016.0118622.0784134.0352323.0139331.0250118.0100591.060748-.0114685.106539.0464016-.00140157.0711969.0011811.0807913.0211811.004.00834646.0100157.0137638.017874.016126.0129449.00388976.031248-.00068504.0515118-.0128346.00980315-.00587402.0186811-.0120276.0272638-.018.0238622-.0165669.0444724-.030878.0685118-.0262126.0153071.00298819.028626.0134016.0407244.031874.00606693.00923622.0034685.0216378-.00576378.0276811-.00922441.00606693-.0216378.00348425-.0276969-.00576378-.00562598-.00859843-.0109291-.013748-.0149016-.0145315-.00757087-.00158268-.0230276.0093622-.0380669.0198071-.00869291.00603937-.0185551.012874-.0295.0194331-.0385157.0230787-.0667244.0219134-.0835945.0168346-.0174173-.00522441-.0317638-.0171575-.040752-.0338071-.00995669-.00312205-.0406496-.00213386-.0687047-.00090158-.00054331.00088583-.00109843.00177953-.00165354.00266535-.00880315.0142205-.0151811.0257047-.0198504.0340669-.00937402.0169291-.0158465.0285157-.0294134.0285315zm-.0789134-.10289c.0103031.00036221.0205.00055512.0304882.00058268-.00197244-.00570866-.00405906-.0116693-.00626378-.0178504-.00217717-.00613386-.00412598-.00992913-.00552756-.0121772-.00512598.00475197-.0117008.0152913-.0186969.0294449zm.020122-.0714606c.0181063 0 .0321654.0137087.0417874.0407953.00388976.0109252.00743307.0211535.0106102.030622.0117205-.00034646.023-.0008189.0337047-.00129134.0225827-.0412047.0309606-.0737047.0224291-.0890118-.00676772-.0121339-.027374-.0146929-.0434685-.0146929-.119913 0-.236276.0530709-.239398.0737795.00009843.00015354.00523228.00833465.0386417.0164961.0237362.00580709.0480827.00957087.0722323.0119173.0170551-.0380551.0381378-.0678976.0624055-.0685984.00034646-.00001575.00070866-.00001575.00105512-.00001575z" fill="#fd452f"/><path id="_345931344" d="m1.63659 1.53766h-.486701c-.0219409 0-.0397874-.0178661-.0397874-.0398071v-.0839567c0-.0327756.0266654-.0594409.0594409-.0594409h.467047c.0219409 0 .0397874.0178465.0397874.0397874v.10361c.00000787.0219488-.0178425.0398071-.0397874.0398071z" fill="#fea832"/><path id="_345930456" d="m1.45622 1.21329h-.125972c-.0288858 0-.0523858-.0235039-.0523858-.0523898v-.226331c0-.0288858.0235-.0524016.0523858-.0524016l.125972.00000394c.0288858 0 .0524016.0235118.0524016.0524016v.226331c.00001181.0288819-.0235157.0523858-.0524016.0523858z" fill="#bf6015"/><path id="_345930552" d="m1.27786 1.08493v-.119233h.23076v.119233z" fill="#cb7e41"/></g></g></svg>