<svg width="20" height="20" viewBox="0 0 20 20" fill="none" xmlns="http://www.w3.org/2000/svg">
<g clip-path="url(#clip0_788_4362)">
<path d="M15.9 16.9003L14.0209 15.0213L14.8345 14.2077L15.9 15.2732L18.7067 12.4665C18.048 11.827 17.1501 11.4326 16.1617 11.4326C14.3414 11.4326 12.8276 12.7699 12.5509 14.5136H11.0369C10.7789 13.4772 9.84066 12.7068 8.72553 12.7068C7.6104 12.7068 6.67223 13.4772 6.41415 14.5136H4.87496C4.61693 13.4772 3.67872 12.7068 2.56359 12.7068C1.25021 12.7069 0.181641 13.7754 0.181641 15.0889C0.181641 16.4023 1.25021 17.4709 2.56366 17.4709C3.67879 17.4709 4.61697 16.7006 4.87504 15.6642H6.41423C6.67226 16.7005 7.61048 17.4709 8.72561 17.4709C9.84074 17.4709 10.7789 16.7006 11.037 15.6642H12.5509C12.8277 17.4079 14.3415 18.7451 16.1618 18.7451C18.1779 18.7451 19.818 17.1049 19.818 15.0889C19.818 14.4791 19.6678 13.9038 19.4026 13.3977L15.9 16.9003Z" fill="#E12C2C"/>
<path d="M12.759 9.85424C12.759 8.42815 12.0152 7.17257 10.8951 6.45508C10.2948 6.92056 9.54186 7.19808 8.72522 7.19808C7.90859 7.19808 7.15562 6.92056 6.55537 6.45508C5.43529 7.17261 4.69141 8.42819 4.69141 9.85424V11.4576H12.759V9.85424Z" fill="#E12C2C"/>
<path d="M9.27477 5.97949C10.5629 5.67501 11.3602 4.38397 11.0558 3.09588C10.7513 1.80779 9.46023 1.01041 8.17214 1.3149C6.88405 1.61938 6.08668 2.91042 6.39116 4.19851C6.69564 5.4866 7.98668 6.28397 9.27477 5.97949Z" fill="#E12C2C"/>
</g>
<defs>
<clipPath id="clip0_788_4362">
<rect width="19.6364" height="19.6364" fill="white" transform="translate(0.181641 0.181641)"/>
</clipPath>
</defs>
</svg>
