<svg width="20" height="20" viewBox="0 0 20 20" fill="none" xmlns="http://www.w3.org/2000/svg">
<g clip-path="url(#clip0_788_4359)">
<path d="M15.1799 6.9986C14.6751 6.05672 13.9417 5.25612 13.0413 4.66795C12.0055 3.99139 10.8016 3.63379 9.55952 3.63379C6.47171 3.63379 3.85492 5.8347 3.29507 8.82363C1.51573 9.15352 0.181641 10.7171 0.181641 12.5712C0.181641 14.6733 1.89176 16.3834 3.9938 16.3834H9.42454V11.5577L8.20566 12.7766C7.98094 13.0012 7.61674 13.0012 7.39202 12.7766C7.1673 12.5519 7.1673 12.1877 7.39202 11.963L9.59308 9.76206C9.81765 9.53734 10.1818 9.53734 10.4066 9.76206L12.6076 11.963C12.8323 12.1877 12.8323 12.5519 12.6076 12.7766C12.4953 12.889 12.348 12.9452 12.2009 12.9452C12.0536 12.9452 11.9064 12.889 11.794 12.7766L10.5751 11.5577V16.3834H15.1254C17.713 16.3834 19.818 14.2783 19.818 11.6908C19.818 9.12146 17.7425 7.02782 15.1799 6.9986Z" fill="#E12C2C"/>
</g>
<defs>
<clipPath id="clip0_788_4359">
<rect width="19.6364" height="19.6364" fill="white" transform="translate(0.181641 0.181641)"/>
</clipPath>
</defs>
</svg>
