<svg id="Capa_1" enable-background="new 0 0 512 512" height="512" viewBox="0 0 512 512" width="512" xmlns="http://www.w3.org/2000/svg"><g><g><path d="m370.562 240.966h-199.742v171.281c0 17.443-3.226 34.701-9.165 51.102-4.29 11.847-7.852 27.115-4.798 40.555 1.072 4.719 5.23 8.093 10.069 8.093h232.64c4.326 0 8.192-2.703 9.676-6.767l54.085-148.043c7.01-19.188 1.023-40.709-14.889-53.52z" fill="#ffcec0"/></g><path d="m366.65 240.971v192.439c0 5.653-4.588 10.241-10.241 10.241h-189.049c2.273-10.302 3.461-20.82 3.461-31.409v-171.271z" fill="#fdb0a0"/><path d="m318.019 443.647-27.289-31.163v-8.489c0-4.267-3.459-7.726-7.726-7.726-4.267 0-7.726 3.459-7.726 7.726v85.812c0 4.228 3.256 7.914 7.482 8.044 4.377.135 7.971-3.366 7.971-7.723v-54.188l15.669 17.884c1.525 1.741 3.668 2.637 5.81 2.637 1.813 0 3.626-.628 5.089-1.916 3.213-2.811 3.532-7.694.72-10.898z" fill="#fdb0a0"/><path d="m318.019 443.647h-20.542l-6.748-7.706v7.706h-15.453v-39.652c0-2.132.865-4.059 2.266-5.46 1.391-1.401 3.328-2.266 5.46-2.266 4.265 0 7.726 3.461 7.726 7.726v8.489z" fill="#f29e8f"/><g><path d="m463.326 357.186-54.079 148.046c-1.484 4.064-5.35 6.767-9.676 6.767h-42.014l56.561-154.814c7.005-19.192 1.014-40.708-14.891-53.52l-77.883-62.696h49.218l77.873 62.696c15.915 12.813 21.906 34.33 14.891 53.521z" fill="#fdb0a0"/></g><g><g><path d="m366.654 95.24v301.091c0 5.656-4.584 10.24-10.24 10.24h-300.401c-5.656 0-10.24-4.584-10.24-10.24v-301.091z" fill="#f5f7f8"/><g><g><g><g><g><path d="m175.033 223.167h-56.906c-2.845 0-5.151-2.306-5.151-5.151v-18.135c0-11.19 9.071-20.261 20.261-20.261h26.685c11.19 0 20.261 9.071 20.261 20.261v18.135c.001 2.845-2.305 5.151-5.15 5.151z" fill="#31a7fb"/><path d="m180.18 199.884v18.128c0 2.845-2.306 5.151-5.151 5.151h-20.255v-23.28c0-11.194-9.078-20.261-20.272-20.261h25.418c11.189.001 20.26 9.072 20.26 20.262z" fill="#1c96f9"/><circle cx="147.324" cy="158.785" fill="#ffcec0" r="23.603"/><path d="m170.93 158.79c0 13.035-10.576 23.6-23.611 23.6-5.123 0-9.868-1.635-13.732-4.414 10.622-2.31 18.557-11.766 18.557-23.062 0-7.912-3.888-14.91-9.868-19.186 1.624-.366 3.316-.549 5.042-.549 13.036 0 23.612 10.565 23.612 23.611z" fill="#fdb0a0"/></g></g><g><g><path d="m175.779 354.638h-56.906c-2.845 0-5.151-2.306-5.151-5.151v-18.135c0-11.19 9.071-20.261 20.261-20.261h26.685c11.19 0 20.261 9.071 20.261 20.261v18.135c.001 2.844-2.305 5.151-5.15 5.151z" fill="#fb4a59"/><path d="m180.927 331.354v18.128c0 2.845-2.306 5.151-5.151 5.151h-20.256v-23.28c0-11.194-9.078-20.261-20.272-20.261h25.418c11.189.001 20.261 9.073 20.261 20.262z" fill="#f82f40"/><circle cx="148.07" cy="290.256" fill="#ffcec0" r="23.603"/><path d="m171.676 290.261c0 13.035-10.576 23.6-23.611 23.6-5.123 0-9.868-1.635-13.732-4.414 10.622-2.31 18.557-11.766 18.557-23.062 0-7.912-3.888-14.91-9.868-19.186 1.624-.366 3.316-.549 5.042-.549 13.036 0 23.612 10.565 23.612 23.611z" fill="#fdb0a0"/></g></g></g></g></g><path d="m366.654 95.24v301.091c0 5.645-4.595 10.24-10.24 10.24h-44.205c5.656 0 10.24-4.595 10.24-10.24v-301.091z" fill="#d9e7eb"/><g><g><g><path d="m294.567 228.465h-50.434c-8.721 0-15.817-7.095-15.817-15.816v-50.435c0-8.721 7.096-15.817 15.817-15.817h50.434c8.721 0 15.817 7.096 15.817 15.817v50.435c0 8.721-7.095 15.816-15.817 15.816zm-50.433-66.615c-.201 0-.364.163-.364.364v50.435c0 .2.163.363.364.363h50.434c.201 0 .364-.163.364-.363v-50.435c0-.201-.163-.364-.364-.364z" fill="#c1d3d6"/></g><g><path d="m271.772 200.553c-2.049 0-4.014-.814-5.464-2.263l-11.14-11.14c-3.017-3.018-3.017-7.909 0-10.928 3.018-3.016 7.909-3.016 10.928 0l5.676 5.677 33.238-33.239c3.018-3.018 7.91-3.017 10.927-.001 3.018 3.018 3.018 7.909.001 10.928l-38.702 38.703c-1.45 1.449-3.415 2.263-5.464 2.263z" fill="#c1d3d6"/></g></g><g><g><path d="m294.567 363.772h-50.434c-8.721 0-15.817-7.096-15.817-15.817v-50.434c0-8.721 7.096-15.817 15.817-15.817h50.434c8.721 0 15.817 7.096 15.817 15.817v50.434c0 8.721-7.095 15.817-15.817 15.817zm-50.433-66.615c-.201 0-.364.163-.364.364v50.434c0 .201.163.364.364.364h50.434c.201 0 .364-.163.364-.364v-50.434c0-.201-.163-.364-.364-.364z" fill="#c1d3d6"/></g></g></g><path d="m366.652 105.539v-95.298c0-5.656-4.585-10.241-10.241-10.241h-300.393c-5.656 0-10.241 4.585-10.241 10.241v95.298z" fill="#31a7fb"/><path d="m322.45 10.241v95.298h44.2v-95.298c0-5.653-4.588-10.241-10.241-10.241h-44.2c5.653 0 10.241 4.588 10.241 10.241z" fill="#1c96f9"/><path d="m223.046 251.207c-28.844 0-52.226 23.382-52.226 52.226v108.814c0 17.443-3.226 34.701-9.165 51.102-4.29 11.847-7.852 27.115-4.798 40.554 1.072 4.719 5.23 8.093 10.069 8.093h108.345v-208.563c.001-28.843-23.381-52.226-52.225-52.226z" fill="#ffcec0"/></g><g fill="#f5f7f8"><path d="m143.162 26.026c-3.996-1.49-8.448.548-9.935 4.548l-7.141 19.197-7.141-19.197c-1.487-3.999-5.937-6.036-9.935-4.548-4 1.488-6.036 5.936-4.548 9.935l14.382 38.666c1.126 3.026 4.013 5.033 7.241 5.033s6.116-2.007 7.241-5.033l14.382-38.666c1.49-3.999-.546-8.447-4.546-9.935z"/><path d="m178.07 24.306h-5.847c-9.349 0-16.956 7.606-16.956 16.955v21.445c0 9.349 7.607 16.955 16.956 16.955h5.847c9.349 0 16.955-7.606 16.955-16.955v-21.445c0-9.35-7.606-16.955-16.955-16.955zm1.502 38.399c0 .828-.674 1.502-1.502 1.502h-5.847c-.829 0-1.503-.674-1.503-1.502v-21.444c0-.828.674-1.502 1.503-1.502h5.847c.828 0 1.502.674 1.502 1.502z"/><path d="m273.247 39.759c4.268 0 7.726-3.459 7.726-7.726s-3.459-7.726-7.726-7.726h-17.681c-6.227 0-11.294 5.066-11.294 11.295v32.765c0 6.228 5.066 11.295 11.294 11.295h17.681c4.268 0 7.726-3.459 7.726-7.726s-3.459-7.726-7.726-7.726h-13.522v-4.498h8.604c4.268 0 7.726-3.459 7.726-7.726s-3.459-7.726-7.726-7.726h-8.604v-4.498h13.522z"/><path d="m232.105 24.306h-24.304c-4.268 0-7.726 3.459-7.726 7.726s3.459 7.726 7.726 7.726h4.426v32.175c0 4.268 3.459 7.726 7.726 7.726s7.726-3.459 7.726-7.726v-32.174h4.426c4.268 0 7.726-3.459 7.726-7.726s-3.459-7.727-7.726-7.727z"/><path d="m300.672 60.862c4.268 0 7.726-3.459 7.726-7.726v-21.104c0-4.268-3.459-7.726-7.726-7.726s-7.726 3.459-7.726 7.726v21.104c0 4.267 3.458 7.726 7.726 7.726z"/><path d="m300.724 68.345h-.106c-4.268 0-7.726 3.459-7.726 7.726 0 4.268 3.459 7.726 7.726 7.726h.106c4.268 0 7.726-3.459 7.726-7.726.001-4.267-3.458-7.726-7.726-7.726z"/></g></g><g><g><path d="m238.506 417.537h-30.92c-4.268 0-7.726-3.459-7.726-7.726 0-4.268 3.459-7.726 7.726-7.726h30.92c4.268 0 7.726 3.459 7.726 7.726s-3.458 7.726-7.726 7.726z" fill="#fdb0a0"/></g><g><path d="m238.506 393.041h-30.92c-4.268 0-7.726-3.459-7.726-7.726s3.459-7.726 7.726-7.726h30.92c4.268 0 7.726 3.459 7.726 7.726s-3.458 7.726-7.726 7.726z" fill="#fdb0a0"/></g></g><path d="m244.289 314.396h-42.485c-4.9 0-8.873-3.972-8.873-8.873v-22.328c0-16.632 13.483-30.115 30.115-30.115 16.632 0 30.115 13.483 30.115 30.115v22.328c.001 4.9-3.972 8.873-8.872 8.873z" fill="#ffeee7"/><path d="m253.16 283.195v22.325c0 4.905-3.974 8.879-8.869 8.879h-24.998c4.905 0 8.879-3.974 8.879-8.879v-22.325c0-8.316-3.369-15.843-8.828-21.291-2.53-2.53-5.5-4.608-8.787-6.114 3.81-1.751 8.039-2.714 12.494-2.714 8.316 0 15.843 3.369 21.291 8.828 5.448 5.448 8.818 12.975 8.818 21.291z" fill="#ffdfd0"/></g></svg>