<svg height="512" viewBox="0 0 64 64" width="512" xmlns="http://www.w3.org/2000/svg"><g id="Icons"><g><g><path d="m32 26c-.512 0-1.024-.195-1.414-.586l-11-11c-.781-.781-.781-2.047 0-2.828.78-.781 2.048-.781 2.828 0l9.586 9.586 9.586-9.586c.78-.781 2.048-.781 2.828 0 .781.781.781 2.047 0 2.828l-11 11c-.39.391-.902.586-1.414.586z" fill="#fab400"/></g><g><path d="m30 8h4v4h-4z" fill="#0a5078"/></g><g><g><circle cx="32" cy="26" fill="#0a5078" r="16"/></g><g><path d="m18.141 34h27.719c.189-.326.366-.66.532-1h-28.783c.166.34.343.674.532 1z" fill="#00325a"/></g><g><circle cx="32" cy="26" fill="#f0f0f0" r="12"/></g><g><path d="m32 20c-.552 0-1-.448-1-1v-2c0-.552.448-1 1-1 .552 0 1 .448 1 1v2c0 .552-.448 1-1 1z" fill="#d2d2d2"/></g><g><path d="m32 36c-.552 0-1-.448-1-1v-2c0-.552.448-1 1-1 .552 0 1 .448 1 1v2c0 .552-.448 1-1 1z" fill="#d2d2d2"/></g><g><path d="m26 26c0 .552-.448 1-1 1h-2c-.552 0-1-.448-1-1 0-.552.448-1 1-1h2c.552 0 1 .448 1 1z" fill="#d2d2d2"/></g><g><path d="m42 26c0 .552-.448 1-1 1h-2c-.552 0-1-.448-1-1 0-.552.448-1 1-1h2c.552 0 1 .448 1 1z" fill="#d2d2d2"/></g><g><path d="m32 27c-.256 0-.512-.098-.707-.293-.391-.391-.391-1.023 0-1.414l6.364-6.364c.391-.391 1.023-.391 1.414 0s.391 1.023 0 1.414l-6.364 6.364c-.195.195-.451.293-.707.293z" fill="#c80a50"/></g><g><circle cx="32" cy="26" fill="#0a5078" r="2"/></g></g><path d="m56.281 40 3.5-4.375c.24-.301.287-.712.121-1.059-.167-.345-.518-.566-.902-.566h-54c-.384 0-.735.221-.901.566-.167.347-.12.758.121 1.059l3.499 4.375-3.5 4.375c-.24.301-.287.712-.121 1.059.167.345.518.566.902.566h54c.384 0 .735-.221.901-.566.167-.347.12-.758-.121-1.059z" fill="#00a0c8"/><path d="m52.281 54 3.5-4.375c.24-.301.287-.712.121-1.059-.167-.345-.518-.566-.902-.566h-46c-.384 0-.735.221-.901.566-.167.347-.12.758.121 1.059l3.5 4.375-3.5 4.375c-.24.301-.287.712-.121 1.059.166.345.517.566.901.566h46c.384 0 .735-.221.901-.566.167-.347.12-.758-.121-1.059z" fill="#0a5078"/><g><g><path d="m20.5 59h-2.5c-.552 0-1-.447-1-1s.448-1 1-1h2.5c.276 0 .5-.225.5-.5s-.224-.5-.5-.5h-1c-1.378 0-2.5-1.121-2.5-2.5s1.122-2.5 2.5-2.5h2.5c.552 0 1 .447 1 1s-.448 1-1 1h-2.5c-.276 0-.5.225-.5.5s.224.5.5.5h1c1.378 0 2.5 1.121 2.5 2.5s-1.122 2.5-2.5 2.5z" fill="#00325a"/></g><g><path d="m28.5 59h-1c-1.378 0-2.5-1.121-2.5-2.5v-3c0-1.379 1.122-2.5 2.5-2.5h1c1.378 0 2.5 1.121 2.5 2.5v3c0 1.379-1.122 2.5-2.5 2.5zm-1-6c-.276 0-.5.225-.5.5v3c0 .275.224.5.5.5h1c.276 0 .5-.225.5-.5v-3c0-.275-.224-.5-.5-.5z" fill="#00325a"/></g><g><path d="m36.5 59h-1c-1.378 0-2.5-1.121-2.5-2.5v-3c0-1.379 1.122-2.5 2.5-2.5h1c1.378 0 2.5 1.121 2.5 2.5v3c0 1.379-1.122 2.5-2.5 2.5zm-1-6c-.276 0-.5.225-.5.5v3c0 .275.224.5.5.5h1c.276 0 .5-.225.5-.5v-3c0-.275-.224-.5-.5-.5z" fill="#00325a"/></g><g><path d="m46 59c-.328 0-.643-.162-.832-.445l-2.168-3.252v2.697c0 .553-.448 1-1 1s-1-.447-1-1v-6c0-.44.289-.829.71-.957.419-.128.877.036 1.122.402l2.168 3.252v-2.697c0-.553.448-1 1-1s1 .447 1 1v6c0 .44-.289.829-.71.957-.096.029-.193.043-.29.043z" fill="#00325a"/></g></g><g fill="#0082aa"><path d="m13 39h2c.552 0 1-.447 1-1s-.448-1-1-1h-2c-1.654 0-3 1.346-3 3v2c0 1.654 1.346 3 3 3h2c.552 0 1-.447 1-1s-.448-1-1-1h-2c-.551 0-1-.448-1-1v-2c0-.552.449-1 1-1z"/><path d="m20 37c-1.654 0-3 1.346-3 3v2c0 1.654 1.346 3 3 3s3-1.346 3-3v-2c0-1.654-1.346-3-3-3zm1 5c0 .552-.449 1-1 1s-1-.448-1-1v-2c0-.552.449-1 1-1s1 .448 1 1z"/><path d="m32 37c-.771 0-1.468.301-2 .78-.532-.48-1.229-.78-2-.78-1.654 0-3 1.346-3 3v4c0 .553.448 1 1 1s1-.447 1-1v-4c0-.552.449-1 1-1s1 .448 1 1v4c0 .553.448 1 1 1s1-.447 1-1v-4c0-.552.449-1 1-1s1 .448 1 1v4c0 .553.448 1 1 1s1-.447 1-1v-4c0-1.654-1.346-3-3-3z"/><path d="m38 37c-.552 0-1 .447-1 1v6c0 .553.448 1 1 1s1-.447 1-1v-6c0-.553-.448-1-1-1z"/><path d="m46 37c-.552 0-1 .447-1 1v2.697l-2.168-3.252c-.245-.367-.702-.531-1.122-.402-.421.128-.71.517-.71.957v6c0 .553.448 1 1 1s1-.447 1-1v-2.697l2.168 3.252c.189.283.504.445.832.445.097 0 .194-.014.29-.043.421-.128.71-.517.71-.957v-6c0-.553-.448-1-1-1z"/><path d="m54 40h-1c-.552 0-1 .447-1 1s.448 1 1 1v1h-1c-.551 0-1-.448-1-1v-2c0-.552.449-1 1-1h2c.552 0 1-.447 1-1s-.448-1-1-1h-2c-1.654 0-3 1.346-3 3v2c0 1.654 1.346 3 3 3h2c.552 0 1-.447 1-1v-3c0-.553-.448-1-1-1z"/></g><g fill="#f0f0f0"><path d="m13 38h2c.552 0 1-.447 1-1s-.448-1-1-1h-2c-1.654 0-3 1.346-3 3v2c0 1.654 1.346 3 3 3h2c.552 0 1-.447 1-1s-.448-1-1-1h-2c-.551 0-1-.448-1-1v-2c0-.552.449-1 1-1z"/><path d="m20 36c-1.654 0-3 1.346-3 3v2c0 1.654 1.346 3 3 3s3-1.346 3-3v-2c0-1.654-1.346-3-3-3zm1 5c0 .552-.449 1-1 1s-1-.448-1-1v-2c0-.552.449-1 1-1s1 .448 1 1z"/><path d="m32 36c-.771 0-1.468.301-2 .78-.532-.48-1.229-.78-2-.78-1.654 0-3 1.346-3 3v4c0 .553.448 1 1 1s1-.447 1-1v-4c0-.552.449-1 1-1s1 .448 1 1v4c0 .553.448 1 1 1s1-.447 1-1v-4c0-.552.449-1 1-1s1 .448 1 1v4c0 .553.448 1 1 1s1-.447 1-1v-4c0-1.654-1.346-3-3-3z"/><path d="m38 36c-.552 0-1 .447-1 1v6c0 .553.448 1 1 1s1-.447 1-1v-6c0-.553-.448-1-1-1z"/><path d="m46 36c-.552 0-1 .447-1 1v2.697l-2.168-3.252c-.245-.367-.702-.531-1.122-.402-.421.128-.71.517-.71.957v6c0 .553.448 1 1 1s1-.447 1-1v-2.697l2.168 3.252c.189.283.504.445.832.445.097 0 .194-.014.29-.043.421-.128.71-.517.71-.957v-6c0-.553-.448-1-1-1z"/><path d="m54 39h-1c-.552 0-1 .447-1 1s.448 1 1 1v1h-1c-.551 0-1-.448-1-1v-2c0-.552.449-1 1-1h2c.552 0 1-.447 1-1s-.448-1-1-1h-2c-1.654 0-3 1.346-3 3v2c0 1.654 1.346 3 3 3h2c.552 0 1-.447 1-1v-3c0-.553-.448-1-1-1z"/></g><g><g><path d="m20.5 58h-2.5c-.552 0-1-.447-1-1s.448-1 1-1h2.5c.276 0 .5-.225.5-.5s-.224-.5-.5-.5h-1c-1.378 0-2.5-1.121-2.5-2.5s1.122-2.5 2.5-2.5h2.5c.552 0 1 .447 1 1s-.448 1-1 1h-2.5c-.276 0-.5.225-.5.5s.224.5.5.5h1c1.378 0 2.5 1.121 2.5 2.5s-1.122 2.5-2.5 2.5z" fill="#fab400"/></g><g><path d="m28.5 58h-1c-1.378 0-2.5-1.121-2.5-2.5v-3c0-1.379 1.122-2.5 2.5-2.5h1c1.378 0 2.5 1.121 2.5 2.5v3c0 1.379-1.122 2.5-2.5 2.5zm-1-6c-.276 0-.5.225-.5.5v3c0 .275.224.5.5.5h1c.276 0 .5-.225.5-.5v-3c0-.275-.224-.5-.5-.5z" fill="#fab400"/></g><g><path d="m36.5 58h-1c-1.378 0-2.5-1.121-2.5-2.5v-3c0-1.379 1.122-2.5 2.5-2.5h1c1.378 0 2.5 1.121 2.5 2.5v3c0 1.379-1.122 2.5-2.5 2.5zm-1-6c-.276 0-.5.225-.5.5v3c0 .275.224.5.5.5h1c.276 0 .5-.225.5-.5v-3c0-.275-.224-.5-.5-.5z" fill="#fab400"/></g><g><path d="m46 58c-.328 0-.643-.162-.832-.445l-2.168-3.252v2.697c0 .553-.448 1-1 1s-1-.447-1-1v-6c0-.44.289-.829.71-.957.419-.13.877.036 1.122.402l2.168 3.252v-2.697c0-.553.448-1 1-1s1 .447 1 1v6c0 .44-.289.829-.71.957-.096.029-.193.043-.29.043z" fill="#fab400"/></g></g><g><path d="m35 8h-6c-.552 0-1-.448-1-1v-2c0-.552.448-1 1-1h6c.552 0 1 .448 1 1v2c0 .552-.448 1-1 1z" fill="#c80a50"/></g><g><path d="m30 8h4v1h-4z" fill="#00325a"/></g></g></g></svg>