<svg id="Layer_1" enable-background="new 0 0 64 64" viewBox="0 0 64 64" xmlns="http://www.w3.org/2000/svg"><g><g><path d="m44.3 62.99c0 .28-.23.5-.5.5h-39.24c-1.34 0-2.43-1.09-2.43-2.43v-58.63c0-1.34 1.09-2.43 2.43-2.43h33.28.02c.06 0 .12.01.18.04.06.02.11.06.16.11.08.08.14.21.14.35 0 .28-.22.5-.5.5h-33.28c-.79 0-1.43.64-1.43 1.43v58.63c0 .79.64 1.43 1.43 1.43h39.24c.09 0 .18.03.26.08.03.04.06.06.1.09.09.09.14.2.14.33z"/></g><g><path d="m50.09 12.21v24.72c0 .18-.09.33-.22.42l-.18.07c-.03.01-.07.01-.1.01-.28 0-.5-.22-.5-.5v-24.72c0-.28.22-.5.5-.5.1 0 .2.03.28.08l.07.06c.09.1.15.23.15.36z"/></g><g><path d="m49.94 11.85-.07-.06-11.67-11.64c-.05-.05-.1-.09-.16-.11-.06-.03-.12-.04-.18-.04-.01 0-.02 0-.02 0-.07 0-.13.01-.19.04-.19.08-.31.26-.31.46v10.77c0 .79.65 1.44 1.45 1.44h10.8c.2 0 .38-.12.46-.31.03-.06.04-.13.04-.19 0-.13-.06-.26-.15-.36zm-11.15-.14c-.25 0-.45-.2-.45-.44v-9.57l10.04 10.01z"/><path d="m48.38 11.71h-1.38l-8.66-8.63v-1.38z" fill="#aeadb2"/><path d="m47 11.71h-8.21c-.25 0-.45-.2-.45-.44v-8.19z" fill="#c1c0c7"/></g><g><path d="m15.58 23.19h-7.31c-.27 0-.5.22-.5.5v7.29c0 .27.23.5.5.5h7.31c.28 0 .5-.23.5-.5v-7.29c0-.28-.22-.5-.5-.5zm-.5 7.29h-6.31v-6.29h6.31z"/><path d="m8.77 24.19h6.31v6.29h-6.31z" fill="#f6de99"/></g><g><path d="m15.58 36.44h-7.31c-.27 0-.5.22-.5.5v7.29c0 .27.23.5.5.5h7.31c.28 0 .5-.23.5-.5v-7.29c0-.28-.22-.5-.5-.5zm-.5 7.29h-6.31v-6.29h6.31z"/><path d="m8.77 37.44h6.31v6.29h-6.31z" fill="#f6de99"/></g><g><path d="m15.58 49.8h-7.31c-.27 0-.5.22-.5.5v7.29c0 .27.23.5.5.5h7.31c.28 0 .5-.23.5-.5v-7.29c0-.28-.22-.5-.5-.5zm-.5 7.29h-6.31v-6.29h6.31z"/><path d="m8.77 50.8h6.31v6.29h-6.31z" fill="#f6de99"/></g><g><path d="m43.88 25.13c0 .27-.22.5-.5.5h-24.81c-.27 0-.5-.23-.5-.5 0-.28.23-.5.5-.5h24.81c.28 0 .5.22.5.5z"/></g><g><path d="m36.35 29.39c0 .28-.22.5-.5.5h-17.28c-.27 0-.5-.22-.5-.5 0-.27.23-.5.5-.5h17.28c.28 0 .5.23.5.5z"/></g><g><path d="m36.35 39.11c0 .28-.22.5-.5.5h-17.28c-.27 0-.5-.22-.5-.5 0-.27.23-.5.5-.5h17.28c.28 0 .5.23.5.5z"/></g><g><path d="m30.74 42.72c0 .27-.22.5-.5.5h-11.67c-.27 0-.5-.23-.5-.5 0-.28.23-.5.5-.5h11.67c.28 0 .5.22.5.5z"/></g><g><path d="m31.48 52.29c0 .27-.22.5-.5.5h-12.41c-.27 0-.5-.23-.5-.5 0-.28.23-.5.5-.5h12.41c.28 0 .5.22.5.5z"/></g><g><path d="m31.48 56.19c0 .28-.22.5-.5.5h-12.41c-.27 0-.5-.22-.5-.5s.23-.5.5-.5h12.41c.28 0 .5.22.5.5z"/></g><g><path d="m12.31 10.99v-.78c0-.55-.45-1-1-1h-1.86c-.56 0-1.01.45-1.01 1v6.21c0 .46.38.84.85.84h2.23c.44 0 .79-.35.79-.79v-2.64c0-.05-.04-.09-.09-.09h-1.84c-.28 0-.5-.23-.5-.5 0-.28.22-.5.5-.5h1.84c.61 0 1.09.48 1.09 1.09v2.64c0 .99-.8 1.79-1.79 1.79h-2.23c-1.02 0-1.85-.82-1.85-1.84v-6.21c0-1.1.9-2 2.01-2h1.86c1.11 0 2 .9 2 2v.78c0 .28-.22.5-.5.5-.27 0-.5-.22-.5-.5z"/></g><g><g><path d="m21.9 10.96c0 .28-.22.5-.5.5-.27 0-.5-.22-.5-.5 0-.99-.88-1.79-1.97-1.79-1.08 0-1.96.8-1.96 1.79 0 .95.72 1.62 1.94 1.79.02 0 .04.01.07.01h.02c.27.04.46.28.43.55-.03.25-.24.44-.49.44h-.06c-.02 0-.05-.01-.07-.01-1.76-.23-2.84-1.29-2.84-2.78 0-1.54 1.33-2.79 2.96-2.79 1.64 0 2.97 1.25 2.97 2.79z"/></g><g><path d="m21.87 15.54c0 1.54-1.33 2.8-2.96 2.8-1.64 0-2.97-1.26-2.97-2.8 0-.27.22-.5.5-.5.27 0 .5.23.5.5 0 .99.88 1.8 1.97 1.8 1.08 0 1.96-.81 1.96-1.8 0-.64-.21-1.54-2.03-1.79-.01 0-.02 0-.03-.01-.26-.05-.44-.29-.4-.56.04-.25.25-.43.5-.43.02 0 .04.01.07.01h.02c2.37.34 2.87 1.7 2.87 2.78z"/></g></g><g><path d="m30.78 8.67c0 .27-.23.5-.5.5h-6.54c-.27 0-.5-.23-.5-.5 0-.28.23-.5.5-.5h6.54c.27 0 .5.22.5.5z"/></g><g><path d="m27.51 8.67v9.17c0 .27-.22.5-.5.5s-.5-.23-.5-.5v-9.17c0-.28.22-.5.5-.5s.5.22.5.5z"/></g><g><path d="m61.74 51.99-.58-1.76c-.12-.37-.11-.77.04-1.14l.42-1.05c.42-1.02.17-2.17-.63-2.93l-1.57-1.48c-.29-.27-.47-.63-.51-1.02l-.16-1.42c-.14-1.24-1.11-2.21-2.35-2.35l-1.2-.14c-.36-.04-.71-.21-.98-.47l-1.41-1.39c-.71-.71-1.77-.94-2.72-.63-.03.01-.07.02-.1.03l-.9.33-.23.09c-.33.13-.7.14-1.04.04l-2.19-.62c-.88-.26-1.86-.03-2.54.59l-.46.42-1.41 1.29c-.2.18-.44.32-.69.39l-1.44.38c-.08.02-.16.05-.24.08-.28.1-.53.25-.75.43-.46.37-.78.88-.92 1.48l-.4 1.8c-.07.32-.23.6-.46.83l-1.26 1.22c-.67.66-.95 1.64-.72 2.55l.51 2.01c.06.27.06.56-.01.83l-.49 1.87c-.24.9.02 1.87.67 2.53l1.02 1.04c.2.21.34.46.42.73l.59 2.22c.16.61.53 1.12 1.02 1.48.23.16.49.29.77.38l.44.14 1.84.56c.26.08.49.22.68.41l.76.75.73.73c.1.1.2.19.32.27.77.56 1.81.67 2.69.26l1.03-.48c.45-.21.96-.21 1.41 0l1.03.48c.36.17.74.25 1.12.25.7 0 1.38-.27 1.9-.78l1.62-1.62c.2-.2.46-.35.73-.42l1.91-.53c1.02-.28 1.78-1.13 1.93-2.18l.23-1.57c.06-.39.25-.75.55-1.01l1.22-1.07c.79-.7 1.1-1.81.76-2.83zm-1.43 2.08-1.21 1.07c-.47.42-.78.99-.88 1.61l-.23 1.58c-.09.65-.57 1.18-1.21 1.36l-1.9.52c-.45.12-.85.36-1.18.68l-1.62 1.62c-.5.5-1.25.63-1.89.33l-.92-.43-.11-.05c-.36-.16-.74-.25-1.12-.25-.39 0-.77.09-1.13.25l-.33.15-.7.33c-.57.27-1.24.19-1.72-.18-.04-.03-.07-.05-.1-.09-.03-.02-.05-.04-.07-.06l-.1-.1-1.38-1.38c-.3-.3-.68-.53-1.1-.65l-2.27-.71c-.55-.17-.97-.6-1.12-1.16l-.6-2.22c-.11-.44-.35-.84-.67-1.17l-1.01-1.04c-.41-.41-.57-1.02-.42-1.58l.49-1.87c.11-.43.11-.89 0-1.32l-.5-2.01c-.14-.57.03-1.18.45-1.59l1.26-1.23c.37-.36.62-.82.73-1.32l.41-1.8c.13-.6.59-1.08 1.19-1.24l1.44-.39c.41-.11.79-.32 1.11-.61l1.87-1.71c.42-.39 1.03-.53 1.59-.37l1.38.39.8.23c.55.16 1.14.14 1.67-.06l.03-.01.45-.17.18-.07.47-.17c.61-.23 1.3-.08 1.77.37l1.41 1.39c.42.42.98.69 1.57.75l1.2.14c.77.09 1.38.69 1.46 1.47l.17 1.43c.07.62.36 1.2.81 1.63l1.57 1.48c.5.47.66 1.19.4 1.83l-.43 1.05c-.23.58-.25 1.23-.06 1.83l.58 1.76c.21.63.02 1.32-.48 1.76z"/><path d="m38.79 12.71c-.8 0-1.45-.65-1.45-1.44v-10.27h-32.78c-.79 0-1.43.64-1.43 1.43v58.63c0 .79.64 1.43 1.43 1.43h38l-.76-.75c-.19-.19-.42-.33-.68-.41l-2.28-.7c-.88-.27-1.55-.97-1.79-1.86l-.59-2.22c-.08-.27-.22-.52-.42-.73l-1.02-1.04c-.65-.66-.91-1.63-.67-2.53l.49-1.87c.07-.27.07-.56.01-.83l-.51-2.01c-.23-.91.05-1.89.72-2.55l1.26-1.22c.23-.23.39-.51.46-.83l.4-1.8c.22-.97.95-1.73 1.91-1.99l1.44-.38c.25-.07.49-.21.69-.39l1.87-1.71c.68-.62 1.66-.85 2.54-.59l2.19.62c.34.1.71.09 1.04-.04l.23-.09v-23.86zm-15.05-4.54h6.54c.27 0 .5.22.5.5 0 .27-.23.5-.5.5h-2.77v8.67c0 .27-.22.5-.5.5s-.5-.23-.5-.5v-8.67h-2.77c-.27 0-.5-.23-.5-.5 0-.28.23-.5.5-.5zm-16.3 2.04c0-1.1.9-2 2.01-2h1.86c1.11 0 2 .9 2 2v.78c0 .28-.22.5-.5.5-.27 0-.5-.22-.5-.5v-.78c0-.55-.45-1-1-1h-1.86c-.56 0-1.01.45-1.01 1v6.21c0 .46.38.84.85.84h2.23c.44 0 .79-.35.79-.79v-2.64c0-.05-.04-.09-.09-.09h-1.84c-.28 0-.5-.23-.5-.5 0-.28.22-.5.5-.5h1.84c.61 0 1.09.48 1.09 1.09v2.64c0 .99-.8 1.79-1.79 1.79h-2.23c-1.02 0-1.85-.82-1.85-1.84zm8.64 47.38c0 .27-.22.5-.5.5h-7.31c-.27 0-.5-.23-.5-.5v-7.29c0-.28.23-.5.5-.5h7.31c.28 0 .5.22.5.5zm0-13.36c0 .27-.22.5-.5.5h-7.31c-.27 0-.5-.23-.5-.5v-7.29c0-.28.23-.5.5-.5h7.31c.28 0 .5.22.5.5zm0-13.25c0 .27-.22.5-.5.5h-7.31c-.27 0-.5-.23-.5-.5v-7.29c0-.28.23-.5.5-.5h7.31c.28 0 .5.22.5.5zm-.14-15.44c0-.27.22-.5.5-.5.27 0 .5.23.5.5 0 .99.88 1.8 1.97 1.8 1.08 0 1.96-.81 1.96-1.8 0-.64-.21-1.54-2.03-1.79-.01 0-.02 0-.03-.01-1.76-.23-2.84-1.29-2.84-2.78 0-1.54 1.33-2.79 2.96-2.79 1.64 0 2.97 1.25 2.97 2.79 0 .28-.22.5-.5.5-.27 0-.5-.22-.5-.5 0-.99-.88-1.79-1.97-1.79-1.08 0-1.96.8-1.96 1.79 0 .95.72 1.62 1.94 1.79.02 0 .04.01.07.01h.02c2.37.34 2.87 1.7 2.87 2.78 0 1.54-1.33 2.8-2.96 2.8-1.64 0-2.97-1.26-2.97-2.8zm15.04 41.15h-12.41c-.27 0-.5-.22-.5-.5s.23-.5.5-.5h12.41c.28 0 .5.22.5.5s-.22.5-.5.5zm0-3.9h-12.41c-.27 0-.5-.23-.5-.5 0-.28.23-.5.5-.5h12.41c.28 0 .5.22.5.5 0 .27-.22.5-.5.5zm-12.91-10.07c0-.28.23-.5.5-.5h11.67c.28 0 .5.22.5.5 0 .27-.22.5-.5.5h-11.67c-.27 0-.5-.23-.5-.5zm17.78-3.11h-17.28c-.27 0-.5-.22-.5-.5 0-.27.23-.5.5-.5h17.28c.28 0 .5.23.5.5 0 .28-.22.5-.5.5zm0-9.72h-17.28c-.27 0-.5-.22-.5-.5 0-.27.23-.5.5-.5h17.28c.28 0 .5.23.5.5 0 .28-.22.5-.5.5zm7.53-4.26h-24.81c-.27 0-.5-.23-.5-.5 0-.28.23-.5.5-.5h24.81c.28 0 .5.22.5.5 0 .27-.22.5-.5.5z" fill="#e8e8e8"/><path d="m57.88 52.31-.58-1.76c-.19-.6-.17-1.25.06-1.83l.43-1.05c.26-.64.1-1.36-.4-1.83l-1.57-1.48c-.45-.43-.74-1.01-.81-1.63l-.17-1.43c-.08-.78-.69-1.38-1.46-1.47l-1.2-.14c-.59-.06-1.15-.33-1.57-.75l-1.37-1.35-.03.01c-.53.2-1.12.22-1.67.06l-.8-.23-1.38-.39c-.56-.16-1.17-.02-1.59.37l-1.87 1.71c-.32.29-.7.5-1.11.61l-1.44.39c-.6.16-1.06.64-1.19 1.24l-.41 1.8c-.11.5-.36.96-.73 1.32l-1.26 1.23c-.42.41-.59 1.02-.45 1.59l.5 2.01c.11.43.11.89 0 1.32l-.49 1.87c-.15.56.01 1.17.42 1.58l1.01 1.04c.32.33.56.73.67 1.17l.6 2.22c.15.56.57.99 1.12 1.16l2.27.71c.42.12.8.35 1.1.65l1.38 1.38.1.1c.02.02.04.04.07.06.03.04.06.06.1.09.48.37 1.15.45 1.72.18l.7-.33.33-.15c.36-.16.74-.25 1.13-.25.38 0 .76.09 1.12.25l.11.05 1.52-1.52c.33-.32.73-.56 1.18-.68l1.9-.52c.64-.18 1.12-.71 1.21-1.36l.23-1.58c.1-.62.41-1.19.88-1.61l1.21-1.07c.5-.44.69-1.13.48-1.76zm-7.57-4.41h1.81c.28 0 .5.22.5.5 0 .27-.22.5-.5.5h-1.84c-.29 2.03-2.05 3.6-4.17 3.6h-.92l4.74 4.91c.19.2.18.51-.02.7-.09.1-.22.15-.34.15-.14 0-.27-.06-.36-.16l-5.56-5.75c-.13-.14-.17-.36-.1-.54.08-.19.26-.31.46-.31h2.1c1.56 0 2.87-1.12 3.15-2.6h-5.25c-.27 0-.5-.23-.5-.5 0-.28.23-.5.5-.5h5.29c-.19-1.6-1.55-2.83-3.19-2.83h-2.1c-.27 0-.5-.22-.5-.5 0-.27.23-.5.5-.5h8.11c.28 0 .5.23.5.5 0 .28-.22.5-.5.5h-3.28c.82.7 1.37 1.7 1.47 2.83z" fill="#e82f45"/><path d="m60.31 54.07-1.21 1.07c-.47.42-.78.99-.88 1.61l-.23 1.58c-.09.65-.57 1.18-1.21 1.36l-1.9.52c-.45.12-.85.36-1.18.68l-1.62 1.62c-.5.5-1.25.63-1.89.33l-.92-.43 1.52-1.52c.33-.32.73-.56 1.18-.68l1.9-.52c.64-.18 1.12-.71 1.21-1.36l.23-1.58c.1-.62.41-1.19.88-1.61l1.21-1.07c.5-.44.69-1.13.48-1.76l-.58-1.76c-.19-.6-.17-1.25.06-1.83l.43-1.05c.26-.64.1-1.36-.4-1.83l-1.57-1.48c-.45-.43-.74-1.01-.81-1.63l-.17-1.43c-.08-.78-.69-1.38-1.46-1.47l-1.2-.14c-.59-.06-1.15-.33-1.57-.75l-1.37-1.35.45-.17.18-.07.47-.17c.61-.23 1.3-.08 1.77.37l1.41 1.39c.42.42.98.69 1.57.75l1.2.14c.77.09 1.38.69 1.46 1.47l.17 1.43c.07.62.36 1.2.81 1.63l1.57 1.48c.5.47.66 1.19.4 1.83l-.43 1.05c-.23.58-.25 1.23-.06 1.83l.58 1.76c.21.63.02 1.32-.48 1.76z" fill="#c63051"/></g><g><g><path d="m52.62 48.4c0 .27-.22.5-.5.5h-8.11c-.27 0-.5-.23-.5-.5 0-.28.23-.5.5-.5h8.11c.28 0 .5.22.5.5z"/></g><g><path d="m52.62 44.57c0 .28-.22.5-.5.5h-3.28c.82.7 1.37 1.7 1.47 2.83.01.13.02.26.02.39 0 .21-.01.41-.05.61-.29 2.03-2.05 3.6-4.17 3.6h-.92l4.74 4.91c.19.2.18.51-.02.7-.09.1-.22.15-.34.15-.14 0-.27-.06-.36-.16l-5.56-5.75c-.13-.14-.17-.36-.1-.54.08-.19.26-.31.46-.31h2.1c1.56 0 2.87-1.12 3.15-2.6.05-.2.07-.4.07-.61 0-.13-.01-.26-.03-.39-.19-1.6-1.55-2.83-3.19-2.83h-2.1c-.27 0-.5-.22-.5-.5 0-.27.23-.5.5-.5h8.11c.28 0 .5.23.5.5z"/></g></g></g></svg>