<svg id="Layer_1" viewBox="0 0 512 512" xmlns="http://www.w3.org/2000/svg" data-name="Layer 1"><path d="m365.418 492.098h-314.646c-15.591 0-28.318-12.756-28.318-28.347v-379.956c0-15.591 12.728-28.346 28.318-28.346h302.684c15.59 0 28.347 12.756 28.347 28.346v391.89c0 9.042-7.37 16.413-16.384 16.413z" fill="#d6853a" fill-rule="evenodd"/><path d="m55.251 88.246h293.754v371.055h-293.754z" fill="#e2e5e7"/><g fill-rule="evenodd"><path d="m296.337 88.387h-188.447v-32.938c0-12.274 10.063-22.309 22.337-22.309h28.602c9.354-13.947 25.257-23.131 43.285-23.131s33.959 9.184 43.313 23.131h28.602c12.274 0 22.309 10.034 22.309 22.309v32.938z" fill="#f2992c"/><path d="m296.337 88.387h-165.742v-32.938c0-12.274 10.035-22.309 22.309-22.309h28.602c7.342-10.942 18.708-18.964 31.946-21.912 13.267 2.948 24.633 10.97 31.975 21.912h28.602c12.274 0 22.309 10.034 22.309 22.309v32.938z" fill="#faa845"/><path d="m202.113 260.365c39.118 0 71.008-31.89 71.008-71.008s-31.89-71.008-71.008-71.008-70.979 31.918-70.979 71.008 31.89 71.008 70.979 71.008z" fill="#1b6fab"/><path d="m211.355 118.973c34.866 4.507 61.767 34.299 61.767 70.384s-26.901 65.877-61.767 70.413c-34.838-4.536-61.739-34.328-61.739-70.413s26.901-65.877 61.739-70.384z" fill="#3589c9"/><path d="m257.899 233.323c-8.192-42.633-101.905-43.455-113.414-2.495 12.898 17.887 33.902 29.537 57.628 29.537 22.621 0 42.775-10.573 55.786-27.042z" fill="#00ade6"/><path d="m257.899 233.295c-6.973-36.284-75.94-42.265-103.379-17.943 9.298 23.613 30.869 41.046 56.835 44.419 3.288-.425 6.463-1.077 9.581-1.928 1.049-.283 2.069-.595 3.061-.907l.028-.028c1.531-.482 3.005-1.021 4.479-1.616l.057-.028c.964-.368 1.899-.765 2.863-1.19l.085-.057c.453-.198.907-.425 1.389-.652.482-.227.936-.454 1.389-.68l.028-.029c.454-.227.907-.453 1.332-.708l.142-.057c.878-.482 1.729-.964 2.58-1.474l.17-.085c.425-.255.822-.51 1.247-.765l.085-.057c.369-.227.766-.482 1.163-.737l.142-.113c.397-.255.793-.51 1.19-.794l.17-.113c.397-.283.794-.539 1.163-.822l.028-.028c.368-.255.765-.539 1.134-.822l.227-.198c.369-.255.737-.539 1.105-.85l.114-.085c.34-.284.68-.539.992-.822l.199-.142c.34-.312.708-.595 1.049-.879l.227-.227c.312-.284.624-.539.936-.822l.113-.113c.34-.283.68-.595.992-.907l.284-.255c.312-.312.624-.595.935-.907l.17-.198c.283-.255.539-.539.822-.794l.255-.283c.283-.312.595-.595.878-.907l.255-.312c.255-.255.51-.539.737-.822l.199-.198c.283-.34.567-.652.85-.964l.284-.34c.255-.34.539-.652.793-.992l.227-.255c.142-.17.255-.34.396-.51z" fill="#11bef7"/><path d="m200.895 144.031c-16.81 0-30.444 13.635-30.444 30.416s13.635 30.444 30.444 30.444 30.416-13.635 30.416-30.444-13.606-30.416-30.416-30.416z" fill="#e2b698"/><path d="m207.839 204.098c13.464-3.146 23.471-15.222 23.471-29.651s-10.006-26.476-23.471-29.622c-13.465 3.146-23.5 15.222-23.5 29.622s10.035 26.504 23.5 29.651z" fill="#efc9ae"/></g><path d="m90.598 329.899c-3.316 0-6.009-2.693-6.009-6.009s2.693-5.981 6.009-5.981h184.337c3.316 0 5.981 2.665 5.981 5.981s-2.665 6.009-5.981 6.009zm0 100.262c-3.316 0-6.009-2.693-6.009-6.01s2.693-5.981 6.009-5.981h170.051c3.316 0 6.009 2.665 6.009 5.981s-2.693 6.01-6.009 6.01zm0-33.421c-3.316 0-6.009-2.693-6.009-6.01s2.693-5.981 6.009-5.981h165.374c3.316 0 5.981 2.665 5.981 5.981s-2.665 6.01-5.981 6.01zm0-100.261c-3.316 0-6.009-2.693-6.009-6.009 0-3.288 2.693-5.981 6.009-5.981h223.059c3.316 0 5.981 2.693 5.981 5.981 0 3.316-2.665 6.009-5.981 6.009zm0 66.841c-3.316 0-6.009-2.693-6.009-6.01s2.693-5.981 6.009-5.981h165.374c3.316 0 5.981 2.665 5.981 5.981s-2.665 6.01-5.981 6.01z" fill="#889299"/><path d="m370.633 302.12c4.649-3.231 10.29-5.159 16.384-5.159s11.764 1.928 16.413 5.159c5.471 3.855 11.396 5.442 18.085 4.847 5.641-.482 11.48.68 16.781 3.742 5.272 3.033 9.213 7.512 11.594 12.643 2.834 6.094 7.172 10.432 13.266 13.266 5.131 2.381 9.609 6.321 12.671 11.594 3.033 5.301 4.195 11.14 3.713 16.781-.595 6.69.992 12.614 4.847 18.114 3.26 4.62 5.159 10.29 5.159 16.384s-1.899 11.735-5.159 16.384c-3.855 5.499-5.442 11.423-4.847 18.085.482 5.641-.68 11.509-3.713 16.781-3.062 5.272-7.54 9.213-12.671 11.622-6.094 2.806-10.432 7.172-13.266 13.238-2.381 5.131-6.321 9.61-11.594 12.671-5.301 3.033-11.14 4.224-16.781 3.713-6.69-.595-12.614.992-18.085 4.847-4.648 3.26-10.29 5.159-16.413 5.159s-11.735-1.899-16.384-5.159c-5.471-3.855-11.395-5.443-18.085-4.847-5.641.51-11.508-.68-16.781-3.713-5.272-3.061-9.213-7.54-11.594-12.671-2.835-6.066-7.172-10.431-13.266-13.238-5.131-2.409-9.61-6.35-12.671-11.622-3.033-5.272-4.195-11.14-3.713-16.781.595-6.662-.992-12.586-4.848-18.085-3.26-4.649-5.159-10.29-5.159-16.384s1.899-11.764 5.159-16.384c3.855-5.499 5.443-11.424 4.848-18.114-.482-5.641.68-11.48 3.713-16.781 3.061-5.272 7.54-9.213 12.671-11.594 6.094-2.834 10.431-7.172 13.266-13.266 2.381-5.131 6.321-9.609 11.594-12.643 5.272-3.062 11.14-4.224 16.781-3.742 6.69.595 12.614-.992 18.085-4.847z" fill="#3cb54b" fill-rule="evenodd"/><path d="m387.017 460.463c33.591 0 61.002-27.411 61.002-60.973s-27.411-60.973-61.002-60.973-60.973 27.383-60.973 60.973 27.411 60.973 60.973 60.973z" fill="#f7b84e" fill-rule="evenodd"/><path d="m398.101 339.509c28.375 5.216 49.918 30.075 49.918 59.981s-21.543 54.765-49.918 59.953c-28.403-5.188-49.918-30.076-49.918-59.953s21.515-54.766 49.918-59.981z" fill="#ffcb5b" fill-rule="evenodd"/><path d="m352.18 394.387c-1.673-2.863-.681-6.52 2.183-8.164 2.863-1.673 6.52-.68 8.164 2.183l13.011 22.535 36.935-36.907c2.325-2.353 6.123-2.353 8.476 0 2.353 2.324 2.353 6.123 0 8.476l-42.435 42.435v-.028c-.368.368-.765.68-1.247.964-2.863 1.644-6.52.68-8.164-2.183l-16.923-29.31z" fill="#3cb54b"/><path d="m55.251 88.246h24.236v371.055h-24.236z" fill="#cad1d8"/></svg>