<svg id="Capa_1" enable-background="new 0 0 512 512" height="512" viewBox="0 0 512 512" width="512" xmlns="http://www.w3.org/2000/svg"><g><g><path d="m467.392 438.77h-422.784c-20.494 0-37.108-16.614-37.108-37.108v-291.322c0-20.494 16.614-37.108 37.108-37.108h422.784c20.494 0 37.108 16.614 37.108 37.108v291.322c0 20.494-16.614 37.108-37.108 37.108z" fill="#e8edf2"/><path d="m73.61 438.77h-29c-20.5 0-37.11-16.62-37.11-37.11v-291.32c0-20.5 16.61-37.11 37.11-37.11h29c-20.5 0-37.11 16.61-37.11 37.11v291.32c0 20.49 16.61 37.11 37.11 37.11z" fill="#d9e7ec"/><path d="m260.782 119.873h-185.052c-15.122 0-27.38 12.259-27.38 27.38v219.734c0 15.122 12.259 27.38 27.38 27.38h185.052c15.122 0 27.38-12.259 27.38-27.38v-219.734c0-15.122-12.258-27.38-27.38-27.38z" fill="#ffe177"/><path d="m102.57 394.367h-26.84c-15.12 0-27.38-12.26-27.38-27.39v-219.73c0-15.12 12.26-27.38 27.38-27.38h26.84c-15.13 0-27.38 12.26-27.38 27.38v219.73c0 15.13 12.25 27.39 27.38 27.39z" fill="#ffd15b"/><g><path d="m165.351 328.644c-31.921 0-57.798 25.877-57.798 57.798v7.925h115.595v-7.925c.001-31.921-25.876-57.798-57.797-57.798z" fill="#2ed1e2"/><path d="m182.473 331.217c-23.55 7.3-40.66 29.26-40.66 55.22v7.93h-34.26v-7.93c0-31.92 25.87-57.8 57.79-57.8 5.97 0 11.72.9 17.13 2.58z" fill="#02c7dd"/><path d="m219.258 154.585c-9.39 0-18.018 4.866-24.818 12.997-12.015-14.994-30.546-24.608-51.341-24.608-36.22 0-65.582 29.161-65.582 65.132s29.362 65.132 65.582 65.132c18.298 0 34.842-7.445 46.738-19.448 7.269 11.947 17.758 19.448 29.421 19.448 21.946 0 39.737-26.562 39.737-59.327s-17.791-59.326-39.737-59.326z" fill="#7a8c98"/><path d="m166.525 268.945c-7.272 2.772-15.168 4.287-23.43 4.287-36.219 0-65.578-29.16-65.578-65.126 0-35.973 29.359-65.133 65.578-65.133 8.262 0 16.165 1.516 23.443 4.287-24.646 9.359-42.154 33.068-42.154 60.845 0 27.765 17.501 51.475 42.141 60.84z" fill="#596c76"/><path d="m235.155 278.575h-139.611c-9.956 0-18.027-8.071-18.027-18.027 0-9.956 8.071-18.027 18.027-18.027h139.611c9.956 0 18.027 8.071 18.027 18.027-.001 9.956-8.071 18.027-18.027 18.027z" fill="#ffcebf"/><path d="m165.348 341.266c-36.604 0-65.385-31.3-62.308-67.778l2.606-30.968s58.479.578 89.261-37.296c0 0 6.893 31.592 30.144 37.296h.007l2.606 30.968c3.069 36.478-25.712 67.778-62.316 67.778z" fill="#ffeee6"/><path d="m183.926 338.461c-5.856 1.821-12.097 2.805-18.578 2.805-36.604 0-65.385-31.3-62.308-67.778l2.606-30.968s14.051.14 31.998-4.174l-2.419 28.801c-2.799 33.148 18.464 62.387 48.701 71.314z" fill="#ffdfcf"/></g><g><path d="m425.018 330.905-49.525 12.08-49.525-12.08c.09-.44.18-.87.28-1.3 2.14-9.58 5.34-18.92 9.54-27.85 2.36-5.01 6.06-9.12 10.56-11.98 4.5-2.85 9.8-4.45 15.34-4.45h43.56c4.4 0 8.26 2.96 9.41 7.21z" fill="#c8effe"/><path d="m465.908 352.065v6.79c0 8.84-7.17 16-16.01 16h-110.88c-8.84 0-16.01-7.16-16.01-16 0-9.42.99-18.79 2.96-27.95h99.05l27.94 5.45c7.52 1.46 12.95 8.05 12.95 15.71z" fill="#fe646f"/><g fill="#7a8c98"><circle cx="358.122" cy="374.856" r="17.605"/><circle cx="429.499" cy="374.856" r="17.605"/></g></g></g><g><path d="m467.39 65.73h-38c-4.143 0-7.5 3.358-7.5 7.5s3.357 7.5 7.5 7.5h38c16.327 0 29.61 13.283 29.61 29.61v291.32c0 16.327-13.283 29.61-29.61 29.61h-422.78c-16.327 0-29.61-13.283-29.61-29.61v-291.32c0-16.327 13.283-29.61 29.61-29.61h349.78c4.143 0 7.5-3.358 7.5-7.5s-3.357-7.5-7.5-7.5h-349.78c-24.598 0-44.61 20.012-44.61 44.61v291.32c0 24.598 20.012 44.61 44.61 44.61h422.78c24.599 0 44.61-20.012 44.61-44.61v-291.32c0-24.598-20.012-44.61-44.61-44.61z"/><path d="m149.211 273.192c4.142 0 7.5-3.358 7.5-7.5v-10.702c0-4.142-3.358-7.5-7.5-7.5s-7.5 3.358-7.5 7.5v10.702c0 4.142 3.358 7.5 7.5 7.5z"/><path d="m181.491 273.192c4.142 0 7.5-3.358 7.5-7.5v-10.702c0-4.142-3.358-7.5-7.5-7.5s-7.5 3.358-7.5 7.5v10.702c0 4.142 3.358 7.5 7.5 7.5z"/><path d="m142.587 287.707c-1.938 3.661-.542 8.199 3.119 10.138 6.151 3.257 12.898 4.885 19.646 4.885s13.495-1.628 19.646-4.885c3.661-1.938 5.057-6.477 3.119-10.138s-6.477-5.056-10.138-3.119c-7.905 4.186-17.347 4.186-25.252 0-3.664-1.938-8.202-.541-10.14 3.119z"/><path d="m288.16 317.79c4.143 0 7.5-3.358 7.5-7.5v-163.04c0-19.233-15.647-34.88-34.88-34.88h-185.05c-19.233 0-34.88 15.647-34.88 34.88v219.74c0 19.233 15.647 34.88 34.88 34.88h185.05c19.232 0 34.88-15.647 34.88-34.88v-21.7c0-4.142-3.357-7.5-7.5-7.5s-7.5 3.358-7.5 7.5v21.7c0 10.962-8.918 19.88-19.88 19.88h-30.13v-.428c0-20.069-9.105-38.642-24.379-50.896 3.83-2.753 7.401-5.898 10.635-9.416 10.217-11.113 16.485-25.233 18.061-40.057h.185c6.811 0 13.22-2.652 18.057-7.479 4.817-4.826 7.469-11.235 7.469-18.047 0-3.449-.691-6.738-1.936-9.742 5.079-10.922 7.756-23.583 7.756-36.895 0-17.318-4.585-33.7-12.912-46.128-8.943-13.35-21.135-20.702-34.329-20.702-8.735 0-17.232 3.358-24.556 9.592-13.653-13.565-32.043-21.202-51.604-21.202-14.73 0-28.932 4.339-41.071 12.547-3.431 2.32-4.332 6.983-2.012 10.414 2.321 3.431 6.982 4.332 10.414 2.012 9.648-6.524 20.945-9.973 32.669-9.973 17.798 0 34.378 7.947 45.489 21.802 1.406 1.754 3.525 2.784 5.773 2.808 2.278.041 4.388-.963 5.831-2.688 3.935-4.704 10.437-10.312 19.067-10.312 17.476 0 32.24 23.735 32.24 51.83 0 8.519-1.358 16.889-3.889 24.369-3.688-2.071-7.935-3.258-12.457-3.258h-9.069c-17.772-5.045-23.794-31.143-23.85-31.394-.614-2.815-2.787-5.03-5.59-5.697-2.804-.667-5.741.33-7.558 2.566-27.597 33.957-80.956 34.521-83.288 34.526h-10.253c-1.235 0-2.457.09-3.658.262-4.499-8.316-6.865-17.611-6.865-27.182 0-8.804 1.951-17.258 5.798-25.126 1.819-3.721.278-8.213-3.443-10.032-3.723-1.819-8.212-.278-10.032 3.443-4.859 9.937-7.322 20.607-7.322 31.715 0 11.81 2.853 23.292 8.292 33.614-.28.256-.557.516-.827.786-4.816 4.826-7.468 11.235-7.468 18.047 0 14.075 11.451 25.526 25.526 25.526h.19c1.574 14.823 7.84 28.942 18.054 40.054 3.236 3.521 6.81 6.668 10.642 9.423-15.274 12.254-24.38 30.826-24.38 50.892v.428h-24.32c-10.962 0-19.88-8.918-19.88-19.88v-219.742c0-10.962 8.918-19.88 19.88-19.88h185.05c10.962 0 19.88 8.918 19.88 19.88v163.04c0 4.142 3.358 7.5 7.5 7.5zm-42.48-57.243c0 2.811-1.096 5.457-3.076 7.44-1.994 1.99-4.641 3.086-7.451 3.086h-.167l-1.771-21.053h1.939c5.804 0 10.526 4.722 10.526 10.527zm-160.663 0c0-2.811 1.096-5.457 3.075-7.44 1.995-1.99 4.641-3.086 7.451-3.086h1.945l-1.771 21.053h-.174c-5.804-.001-10.526-4.723-10.526-10.527zm25.497 13.57 2.048-24.343c15.374-.999 52.589-5.965 79.25-30.374 4.299 9.931 12.338 23.008 26.188 28.69l2.19 26.027c1.307 15.525-3.78 30.392-14.325 41.861-10.545 11.471-24.934 17.788-40.516 17.788-15.583 0-29.972-6.318-40.517-17.79-10.543-11.469-15.628-26.334-14.318-41.859zm4.536 112.325c0-17.609 9.1-33.73 23.965-42.858 8.293 3.369 17.228 5.182 26.334 5.182 9.109 0 18.046-1.814 26.341-5.185 14.863 9.127 23.961 25.249 23.961 42.861v.428h-100.6v-.428z"/><path d="m421.501 138.914h-100.319c-4.143 0-7.5 3.358-7.5 7.5s3.357 7.5 7.5 7.5h100.319c4.143 0 7.5-3.358 7.5-7.5s-3.357-7.5-7.5-7.5z"/><path d="m472.324 174.135h-151.142c-4.143 0-7.5 3.358-7.5 7.5s3.357 7.5 7.5 7.5h151.143c4.143 0 7.5-3.358 7.5-7.5s-3.358-7.5-7.501-7.5z"/><path d="m321.182 224.356h26.907c4.143 0 7.5-3.358 7.5-7.5s-3.357-7.5-7.5-7.5h-26.907c-4.143 0-7.5 3.358-7.5 7.5s3.357 7.5 7.5 7.5z"/><path d="m321.182 259.578h40.461c4.143 0 7.5-3.358 7.5-7.5s-3.357-7.5-7.5-7.5h-40.461c-4.143 0-7.5 3.358-7.5 7.5s3.357 7.5 7.5 7.5z"/><path d="m479.824 252.078c0-4.142-3.357-7.5-7.5-7.5h-66.336c-4.143 0-7.5 3.358-7.5 7.5s3.357 7.5 7.5 7.5h66.336c4.143 0 7.5-3.358 7.5-7.5z"/><path d="m334.004 381.806c3.022 10.472 12.687 18.155 24.118 18.155 11.231 0 20.763-7.414 23.96-17.604h23.457c3.197 10.19 12.729 17.604 23.96 17.604 11.337 0 20.938-7.556 24.044-17.894 11.234-1.756 19.857-11.497 19.857-23.216v-6.79c0-11.216-7.991-20.918-19.005-23.071l-23.354-4.555-9.143-33.863c-2.032-7.507-8.883-12.75-16.659-12.75h-43.559c-6.865 0-13.558 1.947-19.353 5.63-5.811 3.692-10.421 8.921-13.332 15.115-4.428 9.404-7.817 19.295-10.074 29.398-2.264 10.12-3.411 20.511-3.411 30.887 0 11.235 7.933 20.65 18.494 22.954zm24.118 3.155c-5.571 0-10.104-4.533-10.104-10.105s4.533-10.105 10.104-10.105c5.572 0 10.105 4.533 10.105 10.105s-4.533 10.105-10.105 10.105zm71.377 0c-5.572 0-10.105-4.533-10.105-10.105s4.533-10.105 10.105-10.105c5.571 0 10.104 4.533 10.104 10.105s-4.533 10.105-10.104 10.105zm28.901-32.901v6.79c0 3.507-2.136 6.524-5.174 7.821-3.402-9.835-12.75-16.92-23.727-16.92-11.232 0-20.764 7.414-23.961 17.606h-23.456c-3.197-10.191-12.729-17.606-23.961-17.606-10.763 0-19.964 6.81-23.525 16.347-2.446-1.495-4.087-4.18-4.087-7.248 0-6.843.563-13.692 1.668-20.448h92.128l27.215 5.309c3.987.779 6.88 4.29 6.88 8.349zm-90.215-59.24h13.066v30.582h-13.066zm39.234 1.665 7.807 28.917h-18.975v-30.582h8.989c1.018 0 1.914.687 2.179 1.665zm-64.851 10.465c1.701-3.62 4.399-6.677 7.805-8.84.902-.573 1.843-1.069 2.812-1.496v28.788h-17.597c1.843-6.308 4.172-12.489 6.98-18.452z"/></g></g></svg>