<svg height="512pt" viewBox="0 -54 512.001 512" width="512pt" xmlns="http://www.w3.org/2000/svg"><path d="m164.742188 140.585938c0-4.351563 2.925781-8.160157 7.132812-9.277344l67.601562-17.996094c10.816407-2.878906 22.199219-2.878906 33.019532 0l67.601562 17.996094c4.203125 1.117187 7.132813 4.925781 7.132813 9.277344v.386718h80.140625l-23.1875-81.832031c-5.878906-20.742187-24.8125-35.058594-46.371094-35.058594h-203.65625c-21.554688 0-40.492188 14.316407-46.367188 35.058594l-23.1875 81.832031h80.140626zm0 0" fill="#355f7e"/><path d="m90.269531 120.972656-5.667969 20h80.140626v-.386718c0-4.351563 2.925781-8.160157 7.132812-9.277344l38.816406-10.332032h-120.421875zm0 0" fill="#2b4d66"/><path d="m427.371094 140.972656-23.1875-81.832031c-5.878906-20.742187-24.8125-35.058594-46.371094-35.058594h-.921875c3.222656 4.46875 5.722656 9.53125 7.289063 15.058594l8.714843 30.75c7.261719 25.621094-11.988281 51.082031-38.617187 51.082031h-32.996094l38.816406 10.332032c4.203125 1.121093 7.132813 4.925781 7.132813 9.28125v.386718zm0 0" fill="#2b4d66"/><path d="m164.742188 140.585938c0-4.351563 2.925781-8.160157 7.132812-9.277344l67.601562-17.996094c10.816407-2.878906 22.199219-2.878906 33.019532 0l67.601562 17.996094c4.203125 1.117187 7.132813 4.925781 7.132813 9.277344v.386718h46.441406l-21.15625-74.667968c-1.644531-5.796876-6.9375-9.800782-12.960937-9.800782h-207.136719c-6.027344 0-11.316407 4.003906-12.960938 9.800782l-21.160156 74.667968h46.445313zm0 0" fill="#e1ebf0"/><path d="m123.964844 120.972656-5.667969 20h46.445313v-.386718c0-4.351563 2.925781-8.160157 7.132812-9.277344l38.816406-10.332032h-86.726562zm0 0" fill="#b4d2d7"/><path d="m393.671875 140.972656-21.15625-74.667968c-1.644531-5.796876-6.9375-9.800782-12.960937-9.800782h-24.148438l7.972656 28.144532c5.164063 18.222656-8.523437 36.324218-27.460937 36.324218h-14.636719l38.820312 10.335938c4.203126 1.117187 7.128907 4.925781 7.128907 9.277344v.386718zm0 0" fill="#b4d2d7"/><g fill="#fff263"><path d="m477.363281 41.144531h-13.011719c-4.140624 0-7.5-3.359375-7.5-7.5s3.359376-7.5 7.5-7.5h13.011719c4.140625 0 7.5 3.359375 7.5 7.5s-3.359375 7.5-7.5 7.5zm0 0"/><path d="m438.085938 41.144531h-13.007813c-4.144531 0-7.503906-3.359375-7.503906-7.5s3.359375-7.5 7.503906-7.5h13.007813c4.144531 0 7.5 3.359375 7.5 7.5s-3.359376 7.5-7.5 7.5zm0 0"/><path d="m451.21875 67.289062c-4.140625 0-7.5-3.359374-7.5-7.5v-13.011718c0-4.140625 3.359375-7.5 7.5-7.5 4.144531 0 7.5 3.359375 7.5 7.5v13.011718c0 4.140626-3.355469 7.5-7.5 7.5zm0 0"/><path d="m451.21875 27.132812c-4.140625 0-7.5-3.355468-7.5-7.5v-12.132812c0-4.140625 3.359375-7.5 7.5-7.5 4.144531 0 7.5 3.359375 7.5 7.5v12.132812c0 4.144532-3.355469 7.5-7.5 7.5zm0 0"/><path d="m78.863281 60.320312h-9.496093c-4.144532 0-7.503907-3.359374-7.503907-7.5 0-4.140624 3.359375-7.5 7.503907-7.5h9.496093c4.144531 0 7.5 3.359376 7.5 7.5 0 4.140626-3.355469 7.5-7.5 7.5zm0 0"/><path d="m42.144531 60.320312h-9.5c-4.144531 0-7.5-3.359374-7.5-7.5 0-4.140624 3.355469-7.5 7.5-7.5h9.5c4.144531 0 7.5 3.359376 7.5 7.5 0 4.140626-3.355469 7.5-7.5 7.5zm0 0"/><path d="m55.753906 83.429688c-4.140625 0-7.5-3.355469-7.5-7.5v-9.5c0-4.140626 3.359375-7.5 7.5-7.5 4.144532 0 7.5 3.359374 7.5 7.5v9.5c0 4.144531-3.355468 7.5-7.5 7.5zm0 0"/><path d="m55.753906 45.9375c-4.140625 0-7.5-3.359375-7.5-7.5v-8.726562c0-4.144532 3.359375-7.5 7.5-7.5 4.144532 0 7.5 3.355468 7.5 7.5v8.726562c0 4.140625-3.355468 7.5-7.5 7.5zm0 0"/></g><path d="m477.042969 140.972656h-42.164063v-18.882812c0-10.089844 8.179688-18.265625 18.269532-18.265625h29.664062c6.351562 0 11.496094 5.144531 11.496094 11.492187v8.390625c0 9.535157-7.730469 17.265625-17.265625 17.265625zm0 0" fill="#24447f"/><path d="m34.957031 140.972656h42.164063v-18.882812c0-10.089844-8.179688-18.265625-18.269532-18.265625h-29.664062c-6.347656 0-11.496094 5.144531-11.496094 11.492187v8.390625c0 9.535157 7.730469 17.265625 17.265625 17.265625zm0 0" fill="#24447f"/><path d="m497.144531 182.582031c-.921875-23.242187-20.03125-41.609375-43.289062-41.609375h-106.625v115.871094c0 6.769531-5.488281 12.257812-12.257813 12.257812h-157.972656c-6.769531 0-12.257812-5.488281-12.257812-12.257812v-115.871094h-106.597657c-23.257812 0-42.367187 18.367188-43.289062 41.609375l-4.664063 117.546875h491.621094zm0 0" fill="#4172cc"/><path d="m497.144531 182.582031c-.921875-23.242187-20.03125-41.609375-43.289062-41.609375h-3.488281c4.015624 6.273438 6.460937 13.652344 6.777343 21.609375l1.921875 48.410157c1.496094 37.730468-28.6875 69.136718-66.453125 69.136718h-381.628906l-.796875 20h491.621094zm0 0" fill="#2d56a1"/><path d="m502.148438 354.132812h-492.296876c-5.441406 0-9.851562-4.410156-9.851562-9.851562v-34.300781c0-5.441407 4.410156-9.851563 9.851562-9.851563h492.296876c5.441406 0 9.851562 4.410156 9.851562 9.851563v34.300781c0 5.441406-4.410156 9.851562-9.851562 9.851562zm0 0" fill="#fff263"/><path d="m502.148438 300.128906h-30.148438c0 18.78125-15.226562 34.007813-34.003906 34.007813h-437.996094v10.148437c0 5.4375 4.410156 9.851563 9.851562 9.851563h492.296876c5.441406 0 9.851562-4.414063 9.851562-9.851563v-34.304687c0-5.441407-4.410156-9.851563-9.851562-9.851563zm0 0" fill="#eeda06"/><path d="m104.175781 171.492188h-51.246093c-6.035157 0-10.925782 4.890624-10.925782 10.929687v30.875c0 6.035156 4.890625 10.925781 10.925782 10.925781h68.460937c6.035156 0 10.929687-4.890625 10.929687-10.925781v-13.660156c0-15.546875-12.601562-28.144531-28.144531-28.144531zm0 0" fill="#e1ebf0"/><path d="m407.824219 171.492188h51.246093c6.035157 0 10.925782 4.890624 10.925782 10.929687v30.875c0 6.035156-4.890625 10.925781-10.925782 10.925781h-68.460937c-6.035156 0-10.929687-4.890625-10.929687-10.925781v-13.660156c0-15.546875 12.601562-28.144531 28.144531-28.144531zm0 0" fill="#e1ebf0"/><path d="m104.175781 171.492188h-3.058593c.777343 2.578124 1.203124 5.308593 1.203124 8.140624v13.660157c0 6.035156-4.894531 10.929687-10.929687 10.929687h-49.386719v9.070313c0 6.035156 4.890625 10.929687 10.925782 10.929687h68.460937c6.035156 0 10.929687-4.890625 10.929687-10.929687v-13.660157c0-15.542968-12.601562-28.140624-28.144531-28.140624zm0 0" fill="#b4d2d7"/><path d="m459.070312 171.492188h-19.074218v21.800781c0 6.035156-4.890625 10.929687-10.925782 10.929687h-49.390624v9.070313c0 6.035156 4.894531 10.929687 10.929687 10.929687h68.460937c6.035157 0 10.925782-4.890625 10.925782-10.929687v-30.875c0-6.035157-4.890625-10.925781-10.925782-10.925781zm0 0" fill="#b4d2d7"/><path d="m192.671875 300.128906h126.625v54.007813h-126.625zm0 0" fill="#e1ebf0"/><path d="m279.296875 300.128906v4.121094c0 16.503906-13.378906 29.886719-29.886719 29.886719h-56.738281v20h126.625v-54.007813zm0 0" fill="#b4d2d7"/><path d="m70.46875 403.058594h-46.386719c-7.765625 0-14.0625-6.292969-14.0625-14.058594v-34.867188h74.507813v34.867188c0 7.765625-6.292969 14.058594-14.058594 14.058594zm0 0" fill="#355f7e"/><path d="m441.53125 403.058594h46.390625c7.765625 0 14.058594-6.292969 14.058594-14.058594v-34.867188h-74.507813v34.867188c0 7.765625 6.292969 14.058594 14.058594 14.058594zm0 0" fill="#355f7e"/><path d="m44.527344 354.132812v14.867188c0 7.765625-6.292969 14.058594-14.058594 14.058594h-20.449219v5.941406c0 7.765625 6.296875 14.058594 14.0625 14.058594h46.386719c7.765625 0 14.058594-6.292969 14.058594-14.058594v-34.867188zm0 0" fill="#2b4d66"/><path d="m461.980469 354.132812v14.867188c0 7.765625-6.296875 14.058594-14.0625 14.058594h-20.445313v5.941406c0 7.765625 6.292969 14.058594 14.058594 14.058594h46.390625c7.765625 0 14.058594-6.292969 14.058594-14.058594v-34.867188zm0 0" fill="#2b4d66"/><path d="m334.972656 269.097656h-157.972656c-6.769531 0-12.257812-5.484375-12.257812-12.253906v-116.257812c0-4.351563 2.925781-8.160157 7.132812-9.277344l67.601562-17.996094c10.816407-2.878906 22.199219-2.878906 33.019532 0l67.601562 17.996094c4.203125 1.117187 7.132813 4.925781 7.132813 9.277344v116.257812c0 6.769531-5.488281 12.253906-12.257813 12.253906zm0 0" fill="#fff263"/><path d="m340.097656 131.308594-32.871094-8.75v66.128906c0 33.367188-27.046874 60.410156-60.40625 60.410156h-82.078124v7.746094c0 6.769531 5.488281 12.253906 12.257812 12.253906h157.972656c6.769532 0 12.257813-5.484375 12.257813-12.253906v-116.257812c-.003907-4.351563-2.929688-8.160157-7.132813-9.277344zm0 0" fill="#eeda06"/><path d="m285.957031 242.082031h-8.210937c-.734375 0-1.328125-.59375-1.328125-1.328125v-96.714844c0-.871093.828125-1.503906 1.667969-1.28125l8.210937 2.1875c.582031.152344.988281.679688.988281 1.28125v94.527344c0 .734375-.59375 1.328125-1.328125 1.328125zm-34.078125 0h8.214844c.730469 0 1.324219-.59375 1.324219-1.328125v-101.007812c0-.664063-.492188-1.238282-1.152344-1.316406-1.421875-.167969-2.847656-.261719-4.28125-.261719-1.429687 0-2.859375.09375-4.277344.261719-.664062.078124-1.15625.652343-1.15625 1.316406v101.007812c.003907.734375.59375 1.328125 1.328125 1.328125zm64.554688-89.117187-12.484375-3.320313c-.839844-.226562-1.664063.410157-1.664063 1.28125v89.828125c0 .734375.59375 1.328125 1.324219 1.328125h11.515625c2.808594 0 5.085938-2.277343 5.085938-5.085937v-79.113282c0-2.304687-1.550782-4.324218-3.777344-4.917968zm-108.414063-3.320313-12.480469 3.320313c-2.230468.59375-3.78125 2.613281-3.78125 4.917968v79.109376c0 2.8125 2.277344 5.089843 5.089844 5.089843h11.511719c.734375 0 1.328125-.59375 1.328125-1.328125v-89.828125c0-.871093-.828125-1.507812-1.667969-1.28125zm17.992188 92.4375h8.214843c.730469 0 1.324219-.59375 1.324219-1.328125v-96.714844c0-.871093-.824219-1.503906-1.667969-1.28125l-8.210937 2.1875c-.582031.152344-.984375.679688-.984375 1.28125v94.527344c0 .734375.59375 1.328125 1.324219 1.328125zm0 0" fill="#355f7e"/><path d="m224.6875 222.082031h10.863281v18.671875c0 .734375-.59375 1.328125-1.324219 1.328125h-8.214843c-.730469 0-1.324219-.59375-1.324219-1.328125zm36.730469-2.707031c-3.355469 1.488281-7.015625 2.410156-10.863281 2.644531v18.738281c0 .730469.59375 1.324219 1.324218 1.324219h8.214844c.730469 0 1.324219-.59375 1.324219-1.324219zm16.328125 22.707031h8.210937c.734375 0 1.328125-.59375 1.328125-1.328125v-94.527344c0-.601562-.40625-1.128906-.988281-1.28125l-6.085937-1.621093v47.179687c0 5.433594-1.375 10.546875-3.792969 15.011719v35.238281c0 .734375.59375 1.328125 1.328125 1.328125zm-68.058594-20h-17.929688v14.910157c0 2.8125 2.277344 5.089843 5.089844 5.089843h11.511719c.734375 0 1.328125-.59375 1.328125-1.328125zm106.746094-69.117187-12.484375-3.320313c-.839844-.226562-1.664063.410157-1.664063 1.28125v89.828125c0 .734375.59375 1.328125 1.324219 1.328125h11.515625c2.808594 0 5.085938-2.277343 5.085938-5.085937v-79.113282c0-2.304687-1.550782-4.324218-3.777344-4.917968zm0 0" fill="#2b4d66"/><path d="m266.148438 111.964844 4.125-33.703125h-28.574219l4.125 33.703125c6.730469-1.082032 13.59375-1.082032 20.324219 0zm0 0" fill="#ddcb05"/><path d="m283.027344 85.761719h-54.082032c-4.144531 0-7.503906-3.355469-7.503906-7.5 0-4.140625 3.359375-7.5 7.503906-7.5h54.082032c4.140625 0 7.5 3.359375 7.5 7.5 0 4.144531-3.359375 7.5-7.5 7.5zm0 0" fill="#fff263"/><path d="m132.320312 262.714844c0 9.234375-7.484374 16.71875-16.714843 16.71875-9.234375 0-16.71875-7.484375-16.71875-16.71875 0-9.230469 7.484375-16.714844 16.71875-16.714844 9.230469 0 16.714843 7.484375 16.714843 16.714844zm0 0" fill="#fff263"/><path d="m413.113281 262.714844c0 9.234375-7.484375 16.71875-16.714843 16.71875-9.234376 0-16.71875-7.484375-16.71875-16.71875 0-9.230469 7.484374-16.714844 16.71875-16.714844 9.230468 0 16.714843 7.484375 16.714843 16.714844zm0 0" fill="#fff263"/><path d="m73.90625 197.855469c0 4.144531-3.359375 7.503906-7.5 7.503906-4.144531 0-7.5-3.359375-7.5-7.503906 0-4.140625 3.355469-7.5 7.5-7.5 4.140625 0 7.5 3.359375 7.5 7.5zm13.253906-7.5c-4.140625 0-7.5 3.359375-7.5 7.5 0 4.144531 3.359375 7.503906 7.5 7.503906 4.144532 0 7.5-3.359375 7.5-7.503906 0-4.140625-3.355468-7.5-7.5-7.5zm20.757813 0c-4.140625 0-7.5 3.359375-7.5 7.5 0 4.144531 3.359375 7.503906 7.5 7.503906s7.5-3.359375 7.5-7.503906c0-4.140625-3.359375-7.5-7.5-7.5zm337.675781 0c-4.140625 0-7.5 3.359375-7.5 7.5 0 4.144531 3.359375 7.503906 7.5 7.503906 4.144531 0 7.503906-3.359375 7.503906-7.503906 0-4.140625-3.359375-7.5-7.503906-7.5zm-20.753906 0c-4.144532 0-7.5 3.359375-7.5 7.5 0 4.144531 3.355468 7.503906 7.5 7.503906 4.140625 0 7.5-3.359375 7.5-7.503906 0-4.140625-3.359375-7.5-7.5-7.5zm-20.757813 0c-4.140625 0-7.5 3.359375-7.5 7.5 0 4.144531 3.359375 7.503906 7.5 7.503906 4.144531 0 7.5-3.359375 7.5-7.503906 0-4.140625-3.355469-7.5-7.5-7.5zm0 0" fill="#fff"/><path d="m453.097656 197.855469c0 4.144531-3.359375 7.503906-7.503906 7.503906-3.667969 0-6.714844-2.636719-7.363281-6.117187 1.113281-1.710938 1.765625-3.75 1.765625-5.949219v-.414063c1.375-1.542968 3.371094-2.523437 5.597656-2.523437 4.144531 0 7.503906 3.359375 7.503906 7.5zm-49.015625 7.503906c1.453125 0 2.804688-.421875 3.953125-1.136719h-7.90625c1.148438.714844 2.5 1.136719 3.953125 1.136719zm16.804688-1.136719c1.148437.714844 2.5 1.136719 3.953125 1.136719s2.804687-.421875 3.953125-1.136719zm-312.96875-13.867187c-2.230469 0-4.226563.980469-5.597657 2.523437v.414063c0 2.199219-.65625 4.238281-1.769531 5.949219.652344 3.480468 3.699219 6.117187 7.367188 6.117187 4.144531 0 7.5-3.359375 7.5-7.503906 0-4.140625-3.359375-7.5-7.5-7.5zm-41.511719 15.003906c1.453125 0 2.804688-.421875 3.953125-1.136719h-7.90625c1.148437.714844 2.5 1.136719 3.953125 1.136719zm16.800781-1.136719c1.152344.714844 2.5 1.136719 3.953125 1.136719s2.804688-.421875 3.953125-1.136719zm0 0" fill="#e1ebf0"/><path d="m480.863281 334.632812h-129.144531c-4.144531 0-7.5-3.359374-7.5-7.5 0-4.140624 3.355469-7.5 7.5-7.5h129.144531c4.144531 0 7.5 3.359376 7.5 7.5 0 4.140626-3.359375 7.5-7.5 7.5zm-313.109375-7.5c0-4.140624-3.359375-7.5-7.5-7.5h-129.117187c-4.140625 0-7.5 3.359376-7.5 7.5 0 4.140626 3.359375 7.5 7.5 7.5h129.117187c4.140625 0 7.5-3.359374 7.5-7.5zm0 0" fill="#eeda06"/><path d="m28.464844 334.132812c.832031.316407 1.730468.5 2.671875.5h129.117187c.941406 0 1.839844-.183593 2.667969-.5zm0 0" fill="#ddcb05"/><path d="m480.863281 319.632812h-15.019531c-6.152344 8.765626-16.328125 14.503907-27.847656 14.503907h-88.949219c.832031.316406 1.730469.496093 2.671875.496093h129.144531c4.144531 0 7.5-3.359374 7.5-7.5 0-4.140624-3.359375-7.5-7.5-7.5zm0 0" fill="#ddcb05"/><path d="m231.863281 333.632812h-13.683593c-4.140626 0-7.5-3.359374-7.5-7.5 0-4.140624 3.359374-7.5 7.5-7.5h13.683593c4.140625 0 7.5 3.359376 7.5 7.5 0 4.140626-3.359375 7.5-7.5 7.5zm69.425781-7.5c0-4.140624-3.355468-7.5-7.5-7.5h-38.230468c-4.140625 0-7.5 3.359376-7.5 7.5 0 4.140626 3.359375 7.5 7.5 7.5h38.230468c4.144532 0 7.5-3.359374 7.5-7.5zm0 0" fill="#355f7e"/><path d="m293.789062 318.632812h-18.179687c-4.222656 7.675782-11.71875 13.289063-20.609375 14.972657.1875.011719.371094.027343.558594.027343h38.230468c4.144532 0 7.5-3.359374 7.5-7.5 0-4.140624-3.355468-7.5-7.5-7.5zm0 0" fill="#2b4d66"/></svg>