<svg id="Capa_1" enable-background="new 0 0 512 512" height="512" viewBox="0 0 512 512" width="512" xmlns="http://www.w3.org/2000/svg"><g><g><path d="m192.071 200.016c7.303-2.595 14.187-2.595 21.492 0v4.307c0 13.007 10.602 23.591 23.633 23.591h14.901c13.03 0 23.632-10.583 23.632-23.591v-17.573c0-13.007-10.602-23.591-23.632-23.591h-14.901c-12.237 0-22.331 9.334-23.515 21.244-7.26-1.783-14.467-1.783-21.727 0-1.184-11.91-11.277-21.244-23.515-21.244h-14.901c-13.031 0-23.633 10.583-23.633 23.591v17.573c0 13.007 10.602 23.591 23.633 23.591h14.901c13.031 0 23.632-10.583 23.632-23.591zm36.495-13.265c0-4.735 3.871-8.588 8.63-8.588h14.901c4.758 0 8.629 3.852 8.629 8.588v17.573c0 4.735-3.871 8.588-8.629 8.588h-14.901c-4.758 0-8.63-3.852-8.63-8.588zm-51.498 17.573c0 4.735-3.871 8.588-8.629 8.588h-14.901c-4.758 0-8.63-3.852-8.63-8.588v-17.573c0-4.735 3.871-8.588 8.63-8.588h14.901c4.758 0 8.629 3.852 8.629 8.588z"/><path d="m202.818 327.077c-16.895 0-30.64 13.718-30.64 30.579 0 16.862 13.745 30.58 30.64 30.58 16.894 0 30.639-13.719 30.639-30.58s-13.745-30.579-30.639-30.579zm0 46.157c-8.622 0-15.637-6.988-15.637-15.577s7.015-15.576 15.637-15.576 15.636 6.988 15.636 15.576c0 8.589-7.015 15.577-15.636 15.577z"/><path d="m266.305 368.071-3.008-1.731c.412-2.87.62-5.774.62-8.683 0-2.91-.208-5.814-.62-8.683l3.026-1.741c5.871-3.397 7.919-10.956 4.532-16.903l-10.329-17.808c-3.424-5.89-11.008-7.902-16.889-4.5l-3.028 1.743c-4.581-3.596-9.684-6.536-15.103-8.703v-3.454c0-6.826-5.559-12.379-12.393-12.379h-20.592c-6.833 0-12.392 5.554-12.392 12.379v3.456c-5.401 2.164-10.502 5.104-15.096 8.705l-3.018-1.737c-5.899-3.415-13.482-1.4-16.915 4.506l-10.288 17.785c-1.658 2.851-2.103 6.183-1.253 9.381.851 3.203 2.895 5.877 5.77 7.54l3.009 1.731c-.412 2.87-.62 5.774-.62 8.683 0 2.91.208 5.814.62 8.683l-3.026 1.741c-2.859 1.656-4.903 4.331-5.753 7.533-.849 3.199-.404 6.53 1.244 9.362l10.286 17.783c1.65 2.872 4.323 4.927 7.526 5.786 3.203.861 6.54.421 9.383-1.224l3.043-1.75c4.608 3.605 9.706 6.546 15.088 8.706v3.459c0 6.826 5.559 12.379 12.392 12.379h20.592c6.833 0 12.393-5.554 12.393-12.379v-3.457c5.4-2.163 10.5-5.103 15.095-8.704l3.019 1.737c2.86 1.656 6.198 2.094 9.4 1.234 3.204-.86 5.877-2.915 7.516-5.768l10.286-17.785c1.658-2.849 2.103-6.179 1.254-9.377-.85-3.205-2.892-5.88-5.771-7.546zm-18.668-21.174c.847 3.505 1.277 7.125 1.277 10.76s-.43 7.256-1.277 10.761c-.783 3.238.664 6.605 3.551 8.265l5.334 3.068-7.67 13.261-5.369-3.089c-2.872-1.651-6.487-1.223-8.895 1.052-5.295 5.008-11.762 8.735-18.701 10.779-3.192.94-5.383 3.869-5.383 7.196v6.162h-15.371v-6.162c0-3.327-2.191-6.256-5.383-7.196-6.903-2.033-13.374-5.764-18.714-10.79-2.408-2.268-6.016-2.688-8.883-1.04l-5.369 3.089-7.67-13.261 5.334-3.068c2.887-1.66 4.334-5.027 3.551-8.265-.847-3.505-1.277-7.125-1.277-10.761 0-3.634.43-7.255 1.277-10.76.783-3.238-.663-6.604-3.55-8.265l-5.335-3.069 7.658-13.239 5.381 3.096c2.872 1.652 6.489 1.225 8.896-1.053 5.293-5.007 11.76-8.733 18.7-10.777 3.192-.94 5.383-3.869 5.383-7.196v-6.162h15.371v6.162c0 3.327 2.191 6.256 5.383 7.196 6.976 2.054 13.439 5.777 18.688 10.766 2.406 2.288 6.03 2.718 8.908 1.065l5.384-3.098 7.674 13.23-5.353 3.08c-2.887 1.659-4.333 5.025-3.55 8.263z"/><path d="m496.188 273.617c-30.167-47.487-93.441-61.645-141.045-31.56-8.983 5.677-16.916 12.618-23.619 20.581-4.108-3.964-9.685-6.366-15.762-6.366h-9.744c3.604-6.076 6.64-12.216 9.061-18.331 15.222-.413 28.034-7.151 35.688-19.01 7.604-11.783 8.501-26.769 2.285-38.179-5.728-10.515-16.266-16.642-29.873-17.482l4.185-28.989c4.19-28.923-3.213-55.637-21.409-77.255-15.598-18.531-38.83-32.731-65.417-39.983-24.35-6.642-49.439-6.96-70.649-.896-22.539 6.445-38.89 19.357-47.524 37.461-35.105 10.758-51.388 40.003-44.759 80.802v.001l4.696 28.874c-13.53.884-24.008 7.003-29.714 17.477-6.216 11.409-5.32 26.393 2.283 38.173 7.653 11.858 20.463 18.596 35.684 19.008 2.421 6.114 5.458 12.255 9.062 18.331h-9.749c-12.492 0-22.654 10.149-22.654 22.625v74.217l-16.289 5.743c-45.646 16.03-50.925 54.419-50.925 81.9v45.959c0 7.423 6.035 13.463 13.453 13.463h378.734c7.428 0 13.472-6.039 13.472-13.463v-45.959c0-3.748-.106-7.283-.318-10.66.209.009.416.027.624.035 1.334.052 2.664.077 3.994.077 19.347 0 38.153-5.449 54.618-15.863 3.502-2.215 4.545-6.849 2.331-10.35-2.214-3.502-6.851-4.542-10.35-2.331-30.324 19.181-68.725 18.026-97.83-2.941-1.178-.849-2.578-1.338-4.028-1.407l-50.401-2.381 19.359-46.436c.563-1.349.718-2.832.448-4.267-6.605-35.201 8.723-70.33 39.051-89.496 40.629-25.677 94.624-13.599 120.37 26.927 19.369 30.439 17.739 70.232-4.057 99.019-2.5 3.303-1.85 8.008 1.452 10.509 3.303 2.5 8.009 1.85 10.509-1.452 25.562-33.76 27.473-80.43 4.757-116.125zm-174.154-69.179v-26.21c8.478.471 14.626 3.797 17.843 9.703 3.627 6.657 2.953 15.632-1.716 22.866-2.553 3.955-8.016 9.887-18.25 11.655 1.388-6.151 2.123-12.192 2.123-18.014zm-254.558 6.361c-4.667-7.231-5.339-16.203-1.714-22.859 3.217-5.905 9.363-9.233 17.838-9.71v26.208c0 5.822.735 11.863 2.123 18.014-10.235-1.768-15.694-7.699-18.247-11.653zm24.938-78.797c-3.917-24.109-.629-54.938 37.286-64.883 2.279-.598 4.145-2.233 5.039-4.413 14.265-34.825 62.036-42.051 101.851-31.19 40.162 10.956 84.145 43.881 75.925 100.618l-2.377 16.472c-11.472-16.32-21.981-19.714-45.731-19.765h-123.87c-23.79.051-33.846 3.295-45.365 20.114zm-46.653 326.869v11.325c0 5.455 1.475 10.57 4.036 14.981h-34.794v-44.419c0-37.418 12.23-57.679 40.902-67.75l11.309-3.987v75.044h-6.629c-8.174.001-14.824 6.642-14.824 14.806zm299.109 11.325c0 8.258-6.745 14.978-15.036 14.978-.026 0-.051.004-.077.004h-253.879c-.026 0-.051-.004-.077-.004-8.291 0-15.036-6.719-15.036-14.978v-11.127h284.105zm-6.424-58.624 13.365.63c11.6 7.976 24.625 13.41 38.352 16.086.328 3.873.493 7.992.493 12.471v44.419h-34.819c2.561-4.412 4.036-9.526 4.036-14.981v-11.325c0-8.164-6.65-14.805-14.823-14.805h-6.604zm-22.646-123.344c-7.633 17.921-9.982 37.417-6.833 56.531l-22.636 54.283c-.942 2.258-.724 4.834.585 6.902 1.309 2.067 3.543 3.366 5.987 3.481l30.54 1.44v33.202h-241.227v-165.17c0-4.203 3.432-7.622 7.651-7.622 0 0 23.681.002 23.692.002.008 0 68.066-.002 68.066-.002 4.143 0 7.501-3.358 7.501-7.501s-3.359-7.501-7.501-7.501h-64.196c-11.996-17.374-18.826-36.09-18.826-51.834v-31.889c14.838-27.55 18.776-28.656 41.96-28.705h123.817c23.012.049 27.636.882 42.651 28.708v31.885c0 15.745-6.83 34.461-18.826 51.834h-71.663c-4.143 0-7.501 3.358-7.501 7.501s3.359 7.501 7.501 7.501h99.22c2.817 0 5.382 1.601 6.713 3.97-2.515 4.142-4.753 8.473-6.675 12.984z"/><path d="m373.328 300.117c-3.545-2.143-8.158-1.009-10.301 2.538l-14.643 24.22c-1.419 2.347-1.445 5.281-.066 7.652l14.643 25.19c1.393 2.395 3.908 3.732 6.492 3.732 1.281 0 2.577-.327 3.763-1.017 3.582-2.082 4.797-6.674 2.715-10.256l-12.409-21.344 12.342-20.413c2.146-3.547 1.009-8.159-2.536-10.302z"/><path d="m413.273 301.134-21.793 54.658c-1.534 3.848.342 8.212 4.19 9.746.911.363 1.851.535 2.776.535 2.98 0 5.799-1.788 6.97-4.726l21.793-54.658c1.534-3.848-.342-8.212-4.19-9.746-3.846-1.534-8.211.342-9.746 4.191z"/><path d="m457.95 302.655c-2.144-3.547-6.757-4.681-10.301-2.538-3.545 2.144-4.682 6.755-2.538 10.301l12.343 20.413-12.409 21.344c-2.082 3.582-.867 8.173 2.714 10.255 1.187.691 2.483 1.018 3.763 1.018 2.585 0 5.1-1.337 6.492-3.732l14.644-25.19c1.379-2.371 1.354-5.305-.065-7.652z"/></g></g></svg>