<svg height="512" viewBox="0 0 128 128" width="512" xmlns="http://www.w3.org/2000/svg"><g><g><path d="m21.65 35a8.875 8.875 0 0 0 -2.65 6.34v45.32a8.859 8.859 0 0 0 2.79 6.47l31.55-27.46z" fill="#fc852d"/><path d="m106.35 35-31.69 30.67 31.55 27.46a8.859 8.859 0 0 0 2.79-6.47v-45.32a8.875 8.875 0 0 0 -2.65-6.34z" fill="#fc852d"/><path d="m68.19 71.93a6.026 6.026 0 0 1 -8.38 0l-6.47-6.26-31.55 27.46a8.881 8.881 0 0 0 6.11 2.43h72.2a8.881 8.881 0 0 0 6.11-2.43l-31.55-27.46z" fill="#fecd1a"/><path d="m106.35 35-31.69 30.67-6.47 6.26a6.026 6.026 0 0 1 -8.38 0l-6.47-6.26-31.69-30.67a8.889 8.889 0 0 1 6.25-2.56h72.2a8.889 8.889 0 0 1 6.25 2.56z" fill="#fff8cd"/></g><g fill="#3f0e5e"><path d="m109 57.2a1.75 1.75 0 0 0 -1.75 1.75v2.22a1.75 1.75 0 0 0 3.5 0v-2.22a1.75 1.75 0 0 0 -1.75-1.75z"/><path d="m107.579 33.755a10.609 10.609 0 0 0 -7.479-3.065h-72.2a10.614 10.614 0 0 0 -7.476 3.061 10.586 10.586 0 0 0 -3.17 7.585v45.324a10.677 10.677 0 0 0 3.33 7.74v.005a10.617 10.617 0 0 0 7.316 2.905h72.2a10.614 10.614 0 0 0 7.308-2.905 10.676 10.676 0 0 0 3.339-7.742v-17.088a1.75 1.75 0 1 0 -3.5 0v17.085a7.081 7.081 0 0 1 -1.216 4l-28.784-25.06 28.944-28.014a7.109 7.109 0 0 1 1.059 3.752v8.411a1.75 1.75 0 1 0 3.5 0v-8.409a10.583 10.583 0 0 0 -3.171-7.585zm-79.679.435h72.2a7.118 7.118 0 0 1 3.58.958l-36.705 35.523a4.265 4.265 0 0 1 -5.948 0l-36.708-35.523a7.127 7.127 0 0 1 3.581-.958zm22.853 31.41-28.787 25.057a7.074 7.074 0 0 1 -1.216-4v-45.317a7.117 7.117 0 0 1 1.058-3.752zm49.347 28.21h-72.2a7.124 7.124 0 0 1 -3.3-.81l28.677-24.96 5.316 5.145a7.755 7.755 0 0 0 10.813 0l5.316-5.144 28.678 24.959a7.124 7.124 0 0 1 -3.3.81z"/></g></g></svg>